<svg width="42" height="25" viewBox="0 0 42 25" fill="none" xmlns="http://www.w3.org/2000/svg">
<g clip-path="url(#clip0_574_272)">
<path d="M9.9102 6.52381H17.8318V7.14475H10.6363V11.8178H17.4028V12.4387H10.6363V17.5693H17.9143V18.1901H9.9102V6.52381ZM18.5415 6.52381H19.3832L23.1129 11.6544L26.9251 6.52372L32.1104 0.00683594L23.5914 12.1936L27.9814 18.1901H27.1067L23.1129 12.7328L19.1025 18.1901H18.2444L22.6673 12.1936L18.5415 6.52381ZM28.2949 7.14475V6.52372H37.3223V7.14467H33.1633V18.1901H32.4372V7.14475H28.2949ZM0 6.52372H0.907676L13.424 24.9939L8.25169 18.1901L0.759117 7.40613L0.726141 18.1902H0L0 6.52372ZM37.2491 17.3818C37.1007 17.3818 36.9894 17.2685 36.9894 17.1219C36.9894 16.9755 37.1007 16.8621 37.2491 16.8621C37.3992 16.8621 37.5087 16.9754 37.5087 17.1219C37.5087 17.2684 37.3992 17.3818 37.2491 17.3818ZM37.9626 16.6982H38.3512C38.3564 16.9057 38.5101 17.0452 38.7361 17.0452C38.9887 17.0452 39.1318 16.8953 39.1318 16.6145V14.8356H39.5274V16.6162C39.5274 17.1219 39.2307 17.4132 38.7397 17.4132C38.2787 17.4132 37.9626 17.1307 37.9626 16.6981V16.6982ZM40.0449 16.6755H40.437C40.4705 16.9144 40.7072 17.0661 41.0481 17.0661C41.366 17.0661 41.5991 16.9039 41.5991 16.6807C41.5991 16.4889 41.4507 16.3738 41.1134 16.2953L40.7849 16.2169C40.3239 16.1104 40.1138 15.8907 40.1138 15.521C40.1138 15.0729 40.4846 14.7746 41.041 14.7746C41.5584 14.7746 41.9364 15.0728 41.9594 15.4966H41.5743C41.5373 15.2647 41.3323 15.1199 41.0356 15.1199C40.7231 15.1199 40.5147 15.2681 40.5147 15.4948C40.5147 15.6744 40.6489 15.7774 40.9809 15.8541L41.2617 15.9221C41.7845 16.0425 42 16.2517 42 16.6302C42 17.1115 41.6221 17.4132 41.0181 17.4132C40.4529 17.4132 40.0731 17.1254 40.0449 16.6755V16.6755Z" fill="white"/>
</g>
<defs>
<clipPath id="clip0_574_272">
<rect width="42" height="25" fill="white"/>
</clipPath>
</defs>
</svg>
