<svg width="42" height="42" viewBox="0 0 42 42" fill="none" xmlns="http://www.w3.org/2000/svg">
<g clip-path="url(#clip0_574_2)">
<path d="M31.5188 13.4216L21.4781 27.9392C21.3714 28.0933 21.2175 28.2086 21.0396 28.2676C20.8615 28.3267 20.6691 28.3264 20.4912 28.2668C20.3137 28.2072 20.1605 28.0915 20.0547 27.9371C19.9493 27.7828 19.8973 27.5982 19.9066 27.4116L20.3085 19.3964L13.821 18.0206C13.6825 17.9913 13.5534 17.9283 13.445 17.8372C13.3369 17.7464 13.2529 17.6302 13.2005 17.4991C13.1482 17.368 13.129 17.2259 13.1448 17.0856C13.1607 16.9452 13.2112 16.8109 13.2916 16.6947L23.3325 2.1771C23.4394 2.02303 23.5934 1.9078 23.7714 1.84875C23.9494 1.7897 24.1418 1.79001 24.3195 1.84964C24.497 1.90915 24.6502 2.02492 24.756 2.1794C24.8614 2.33395 24.9135 2.51835 24.9041 2.70489L24.5022 10.7202L30.9895 12.096C31.128 12.1253 31.2572 12.1882 31.3657 12.2793C31.4739 12.37 31.558 12.4862 31.6104 12.6174C31.6627 12.7485 31.6818 12.8906 31.6658 13.031C31.6498 13.1714 31.5993 13.3055 31.5188 13.4216Z" fill="#FCC72B"/>
<path d="M21.0041 40.1189C20.7371 40.1192 20.4726 40.0668 20.2259 39.9646C19.9792 39.8624 19.7551 39.7124 19.5665 39.5233L10.0791 30.0368C9.69941 29.6552 9.4866 29.1387 9.48731 28.6004C9.48801 28.0622 9.70218 27.5462 10.0828 27.1657C10.4635 26.7852 10.9794 26.5711 11.5176 26.5704C12.0557 26.5697 12.5722 26.7823 12.9539 27.1617L21.0041 35.2108L38.5411 17.6745C38.9224 17.2933 39.4394 17.0791 39.9786 17.0791C40.5178 17.0791 41.0348 17.2933 41.4161 17.6746C41.7973 18.0558 42.0115 18.5729 42.0114 19.1121C42.0114 19.6512 41.7972 20.1683 41.416 20.5495L22.4413 39.5233C22.2529 39.7125 22.0289 39.8624 21.7822 39.9646C21.5356 40.0668 21.2711 40.1193 21.0041 40.1189Z" fill="#729B1B"/>
<path d="M20.9958 40.1198C21.2628 40.1202 21.5273 40.0677 21.7741 39.9655C22.0208 39.8633 22.2449 39.7134 22.4335 39.5243L31.9209 30.0377C32.3004 29.6562 32.5132 29.1397 32.5123 28.6015C32.5115 28.0633 32.2973 27.5473 31.9168 27.1667C31.5362 26.7861 31.0203 26.5719 30.4821 26.5711C29.9439 26.5705 29.4274 26.7832 29.0457 27.1627L20.9958 35.2117L3.45866 17.6754C3.07607 17.3007 2.56105 17.092 2.02549 17.0948C1.48994 17.0975 0.977102 17.3115 0.5984 17.6902C0.219698 18.0689 0.00572218 18.5817 0.00295683 19.1173C0.000191474 19.6528 0.20886 20.1679 0.583631 20.5505L19.5584 39.5243C19.7469 39.7134 19.9709 39.8633 20.2176 39.9655C20.4642 40.0677 20.7288 40.1202 20.9958 40.1198Z" fill="#729B1B" fill-opacity="0.5"/>
</g>
<defs>
<clipPath id="clip0_574_2">
<rect width="42" height="42" fill="white"/>
</clipPath>
</defs>
</svg>
