<svg width="350" height="361" viewBox="0 0 350 361" fill="none" xmlns="http://www.w3.org/2000/svg">
<path d="M75.505 262.533C75.4329 260.252 75.3463 257.97 75.2598 255.689C75.0722 251.126 74.8126 246.563 74.5096 242.014C73.9037 232.903 73.1247 223.791 72.0572 214.723C71.7543 212.224 71.4369 209.712 71.1195 207.214C70.7733 204.629 70.5281 201.929 69.7779 199.431C69.3596 198.03 67.3977 198.535 67.3688 199.878C67.34 202.145 67.7006 204.441 67.9747 206.694C68.2344 208.889 68.4796 211.069 68.7248 213.264C69.2009 217.726 69.6769 222.188 70.0809 226.664C70.9031 235.689 71.509 244.714 71.9274 253.768C72.0428 256.281 72.1438 258.808 72.2303 261.32C72.2736 262.577 72.3169 263.833 72.3457 265.104C72.3746 266.374 72.2448 267.775 72.7641 268.974C73.1824 269.927 74.7981 270.389 75.2742 269.176C76.0388 267.169 75.5915 264.671 75.5338 262.562L75.505 262.533Z" fill="#53514E"/>
<path d="M169.532 203.546C169.316 204.283 168.753 204.875 167.96 204.918C159.535 205.366 151.125 205.871 142.715 206.348C127.784 207.185 112.868 208.08 97.9369 208.889C83.0205 209.698 68.0898 210.737 53.1446 211.084C51.024 211.142 50.8509 207.979 52.957 207.806C53.4908 207.763 54.0246 207.734 54.5583 207.676C54.5872 205.192 54.616 202.709 54.6449 200.211C54.6449 199.185 55.3373 198.319 56.3904 198.247L84.492 196.037C101.082 194.738 117.671 193.467 134.261 192.196C138.387 191.879 142.513 191.561 146.653 191.258C150.49 190.955 154.371 190.478 158.208 190.839C161.627 191.171 164.988 192.442 167.296 195.084C169.302 197.395 170.427 200.499 169.547 203.532L169.532 203.546Z" fill="#FFC65E"/>
<path d="M215.291 166.609C215.464 166.768 215.652 166.883 215.883 166.941C216.085 167.027 216.301 167.071 216.532 167.042C216.82 167.027 217.095 166.941 217.354 166.782C217.657 166.522 217.845 166.392 218.032 166.031C218.061 165.988 218.076 165.93 218.104 165.872C218.22 165.627 218.292 165.352 218.378 165.092C218.451 164.861 218.537 164.616 218.595 164.37C218.653 164.125 218.725 163.894 218.782 163.648C218.84 163.403 218.826 163.143 218.84 162.883C218.84 162.623 218.826 162.378 218.725 162.132C218.609 161.67 218.234 161.353 217.845 161.223C217.672 161.15 217.498 161.121 217.311 161.136C217.066 161.15 216.849 161.223 216.633 161.353C216.604 161.381 216.561 161.41 216.532 161.439C216.647 161.381 216.763 161.324 216.878 161.28C216.532 161.381 216.258 161.598 216.056 161.887C215.912 162.103 215.739 162.306 215.623 162.537C215.522 162.768 215.436 162.999 215.335 163.215C215.19 163.576 215.061 163.937 214.945 164.313C214.902 164.443 214.844 164.573 214.815 164.703C214.815 164.76 214.786 164.818 214.786 164.876C214.714 165.251 214.758 165.497 214.844 165.858C214.931 166.147 215.089 166.378 215.306 166.58L215.291 166.609Z" fill="#53514E"/>
<path d="M329.933 310.98C329.501 306.85 327.726 303.052 326.038 299.313C324.379 295.601 322.72 291.876 320.989 288.194C317.484 280.757 313.834 273.378 309.694 266.274C307.458 262.433 305.179 258.404 302.366 254.938C300.418 252.527 297.778 250.491 294.835 250.318C295.052 247.805 294.936 245.278 294.604 242.78C298.499 239.733 302.322 236.513 304.933 232.268C307.617 227.907 308.799 222.42 306.996 217.51C305.51 213.467 302.452 210.333 299.437 207.373C296.465 204.471 293.263 201.525 291.791 197.525C290.118 192.962 290.406 187.98 290.378 183.186C295.888 183.114 301.211 181.381 304.544 176.659C307.025 173.15 308.251 168.905 308.756 164.674C309.276 160.14 309.001 155.461 307.544 151.115C304.803 142.942 297.576 136.458 288.762 136.025C280.943 135.635 273.326 141.743 272.49 149.396C271.134 148.458 269.734 147.606 268.277 146.841C263.012 144.054 257.155 142.35 251.226 141.729C250.779 141.685 250.36 141.642 249.913 141.599C249.726 141.382 249.451 141.209 249.091 141.137C238.704 138.783 227.553 141.267 219.229 147.967C215.378 151.071 212.175 154.884 209.881 159.288C208.814 161.309 208.222 163.591 207.068 165.555C206.621 166.306 206.059 166.927 205.164 167.1C203.765 167.374 202.337 167.085 200.952 167.504C198.384 168.284 196.898 170.753 196.711 173.338C196.509 176.168 197.922 178.912 199.581 181.136C195.932 187.634 196.913 196.485 200.288 202.839C200.981 204.138 201.803 205.38 202.726 206.536C202.741 207.489 202.726 208.456 202.553 209.395C202.192 211.373 200.836 212.384 199.105 213.236C197.273 214.131 195.398 214.867 193.71 216.008C192.022 217.134 190.464 218.492 189.123 220.008C183.006 226.91 181.578 237.163 185.574 245.408C184.968 245.913 184.362 246.448 183.771 246.968C179.746 250.563 175.981 254.447 172.23 258.317C172.562 256.715 172.677 255.039 172.648 253.523C172.576 247.357 172.417 241.177 172.302 235.011C172.187 228.802 172.115 222.607 171.999 216.398C171.884 210.304 171.999 204.153 171.581 198.074C171.249 193.164 169.287 186.493 163.848 185.294C163.517 184.904 163.012 184.63 162.377 184.616C133.814 183.764 105.207 184.197 76.6875 185.915C73.0378 186.132 69.4024 186.377 65.7671 186.637C62.7377 186.854 59.6938 186.998 56.6933 187.475C51.0816 188.37 45.7729 190.724 43.3061 196.182C40.8825 201.51 41.3297 207.691 41.3874 213.395C41.4451 220.557 41.4884 227.705 41.5461 234.867C41.6182 242.809 41.676 250.765 41.7337 258.707C41.7769 264.382 41.1278 272.194 46.1191 275.775C44.9939 276.931 44.3159 278.577 44.1716 280.107C44.0706 281.219 44.1283 282.302 44.4746 283.371C44.6333 283.862 44.8496 284.353 45.1382 284.8C45.3113 285.075 45.5132 285.32 45.744 285.551C45.8162 285.623 45.9027 285.681 45.9749 285.739C46.0181 286.1 46.1768 286.432 46.4798 286.721C51.0383 290.851 56.1884 294.389 61.223 297.912C66.373 301.522 71.6096 305.031 76.9183 308.395C82.0395 311.659 87.2184 315.052 92.6425 317.796C95.2968 319.139 98.1099 320.222 101.067 320.684C103.952 321.117 106.881 321.045 109.78 320.669C113.084 320.236 116.33 319.471 119.561 318.749C122.85 318.027 126.197 317.666 129.486 317.002C129.573 316.987 129.645 316.958 129.717 316.929C134.752 320.092 140.608 321.824 146.61 320.843C153.621 319.702 159.766 315.846 165.623 312.034C165.782 312.034 165.94 312.034 166.113 311.991C170.585 310.836 175.029 309.565 179.457 308.28C181.607 307.659 183.727 307.038 185.877 306.417C188.127 305.753 190.565 305.262 192.729 304.352C194.157 305.782 195.845 307.023 197.677 307.745C197.576 308.872 197.576 310.013 197.547 311.096C197.49 312.684 197.49 314.301 197.576 315.89C197.764 318.893 198.139 322.359 200.966 324.034C201.312 324.25 201.716 324.424 202.135 324.583C200.981 327.355 199.798 330.113 198.586 332.857C197.706 334.835 200.36 336.106 201.514 334.344C203.548 331.225 205.106 327.817 206.535 324.351C206.823 324.12 207.025 323.817 207.112 323.398C207.155 323.225 207.14 323.052 207.112 322.893C207.79 321.204 208.468 319.5 209.146 317.81C211.266 312.597 213.473 307.399 216.431 302.59C219.071 298.287 222.374 294.215 226.5 291.255C230.972 288.035 236.18 286.446 241.618 285.883C247.461 285.277 253.361 285.609 259.218 285.811C265.724 286.028 272.215 286.259 278.722 286.475C282.054 286.591 285.386 286.706 288.719 286.822C290.205 286.865 291.719 286.894 293.205 287.01C293.508 287.111 293.797 287.125 294.071 287.082C295.196 287.183 296.321 287.342 297.417 287.587C299.827 288.107 302.192 289.132 303.895 290.981C305.64 292.872 306.073 295.399 305.958 297.897C305.813 301.204 304.991 304.54 304.342 307.774C303.635 311.298 302.856 314.807 302.005 318.316C300.317 325.232 298.355 332.077 296.105 338.835C295.787 339.759 296.638 340.813 297.504 340.986C298.572 341.203 299.336 340.51 299.653 339.571C299.653 339.528 299.668 339.499 299.697 339.47C300.404 339.73 301.226 339.658 301.889 338.965C306.809 333.853 313.921 331.932 319.778 328.193C325.721 324.395 330.712 318.503 329.933 311.023V310.98ZM201.11 191.46C201.053 190.088 201.154 188.745 201.356 187.417C202.394 186.883 203.447 186.348 204.501 185.829C205.049 185.554 205.582 185.28 206.102 184.977C206.347 184.832 206.578 184.673 206.809 184.5C207.112 184.283 207.328 184.081 207.487 183.749C207.573 183.561 207.631 183.359 207.703 183.157C207.79 182.912 207.689 182.464 207.53 182.247C207.328 181.973 207.068 181.8 206.751 181.713C206.275 181.583 205.828 181.583 205.366 181.771C205.005 181.901 204.674 182.045 204.327 182.219C203.794 182.507 203.26 182.782 202.726 183.085C202.539 183.186 202.351 183.287 202.178 183.388C202.322 182.839 202.466 182.276 202.611 181.713C203.188 181.193 203.447 180.341 202.914 179.432C201.861 177.656 200.259 175.721 200.476 173.526C200.548 172.804 200.808 172.024 201.341 171.519C202.135 170.768 203.433 170.984 204.443 170.941C206.765 170.854 208.641 169.93 209.968 168.01C211.165 166.262 211.713 164.212 212.608 162.32C216.402 154.191 223.514 147.808 232.083 145.108C232.371 145.021 232.66 144.949 232.948 144.862C229.544 148.371 226.688 152.371 224.524 156.718C224.221 156.357 223.889 156.039 223.543 155.736C222.994 155.288 222.403 154.884 221.754 154.609C221.364 154.45 220.96 154.292 220.542 154.205C220.297 154.162 220.052 154.133 219.821 154.133C219.648 154.133 219.489 154.162 219.33 154.219C218.941 154.378 218.84 154.436 219.027 154.378C218.104 154.826 217.671 156.082 218.551 156.833C218.494 156.79 218.465 156.761 218.45 156.761C218.522 156.833 218.825 157.093 218.912 157.151C219.071 157.266 219.186 157.324 219.359 157.396C219.431 157.425 219.749 157.555 219.763 157.555C219.835 157.584 219.907 157.613 219.979 157.642C220.196 157.743 220.383 157.829 220.571 157.945C220.672 158.017 220.773 158.075 220.874 158.147C221.09 158.335 221.263 158.479 221.422 158.624C221.509 158.71 221.61 158.797 221.696 158.898C221.711 158.912 221.797 159.013 221.855 159.071C221.913 159.143 221.985 159.23 221.985 159.245C222.057 159.317 222.115 159.403 222.172 159.49C222.316 159.707 222.446 159.923 222.576 160.14C222.619 160.226 222.677 160.313 222.72 160.414C222.778 160.573 222.793 160.616 222.821 160.66C221.307 164.558 220.254 168.616 219.792 172.775C219.388 176.63 220.153 181.482 217.989 184.904C216.979 186.507 215.233 187.504 213.632 188.413C211.829 189.453 210.055 190.449 208.497 191.836C206.015 194.045 204.212 197.048 203.346 200.269C202.019 197.539 201.312 194.507 201.197 191.475L201.11 191.46ZM47.706 280.858C47.706 280.93 47.6771 280.974 47.706 280.829C47.706 280.829 47.706 280.844 47.706 280.858ZM58.3955 266.678C58.309 263.025 57.9772 259.343 57.8473 255.689C57.6742 251.328 57.53 246.953 57.4001 242.578C57.1405 233.668 57.0106 224.759 56.9962 215.864C56.9818 210.882 56.9674 205.9 56.6788 200.918C58.8283 200.788 60.9777 200.528 63.0839 200.37C66.5605 200.095 70.0516 199.85 73.5427 199.619C80.5103 199.157 87.478 198.738 94.4601 198.377C108.338 197.669 122.23 197.222 136.122 197.005C143.494 196.904 150.865 196.962 158.237 197.005C158.107 204.528 158.626 212.095 158.872 219.589C159.146 228.008 159.405 236.441 159.679 244.845C159.838 249.22 159.968 253.61 160.127 257.985C153.707 258.765 147.273 259.415 140.825 259.906C137.377 260.18 133.929 260.397 130.481 260.57C128.75 260.671 127.034 260.758 125.303 260.844C123.557 260.945 121.739 260.96 120.052 261.451C119.922 261.494 119.821 261.537 119.72 261.61C119.143 260.902 118.479 260.252 117.743 259.718C116.084 258.534 113.993 257.841 111.93 258.173C109.925 258.505 108.078 259.617 107.256 261.537C107.054 262.014 106.895 262.519 106.809 263.039C106.347 262.967 105.9 262.938 105.438 262.938C103.851 262.938 102.293 263.357 100.995 264.31C99.8987 264.093 98.7735 264.007 97.6338 264.093C96.9991 264.137 96.3788 264.223 95.7729 264.382C88.8052 264.685 81.8375 265.234 74.8843 265.667C71.3355 265.884 67.8012 266.115 64.2524 266.332C62.3338 266.447 60.343 266.49 58.3811 266.606L58.3955 266.678ZM157.645 273.205C156.434 274.447 155.222 275.66 154.024 276.902C150.548 280.454 147.071 284.006 143.609 287.573C142.657 286.981 141.589 286.562 140.608 286.042C139.599 285.493 138.603 284.916 137.622 284.295C135.733 283.082 133.958 281.696 132.256 280.223C130.77 278.923 129.342 277.551 128.044 276.079C129.876 275.862 131.693 275.559 133.511 275.342C136.223 275.01 138.935 274.707 141.647 274.432C146.97 273.898 152.293 273.494 157.645 273.219V273.205ZM112.579 300.453C110.891 300.757 109.218 300.988 107.516 301.19C105.885 301.377 104.241 301.536 102.611 301.652C101.37 301.738 100.115 301.753 98.8745 301.883C98.7158 301.666 98.4994 301.479 98.2686 301.334L80.2218 289.84C75.4613 286.807 70.7585 283.573 65.8825 280.699C66.8346 280.67 67.7867 280.613 68.71 280.598C70.9316 280.555 73.1532 280.526 75.3603 280.468C79.2842 280.382 83.1936 280.281 87.1174 280.194C86.8721 281.826 86.7567 283.544 86.9875 285.161C87.5069 288.742 90.118 291.775 93.8254 292.237C95.7008 292.468 97.6194 292.035 99.1774 290.952C100.245 290.201 100.995 289.306 101.428 288.223C102.553 289.97 103.592 291.775 104.832 293.45C107.054 296.482 110.184 299.183 113.935 299.587C114.022 299.775 114.123 299.933 114.238 300.107C113.69 300.222 113.142 300.338 112.579 300.439V300.453ZM167.368 306.143C161.757 309.911 155.986 314.056 149.495 316.135C146.422 317.117 143.191 317.507 139.988 316.944C136.901 316.409 134.016 315.11 131.39 313.435C128.303 311.457 125.678 308.814 123.283 306.056C121.797 304.338 120.47 302.504 119.099 300.699C118.984 300.266 118.71 299.876 118.306 299.659C118.032 299.298 117.758 298.952 117.469 298.605C117.859 297.681 117.368 296.425 116.041 296.497C111.959 296.699 108.973 293.132 106.967 290.028C105.842 288.28 104.847 286.461 103.664 284.786C103.015 283.862 102.308 282.981 101.543 282.158C100.822 281.378 99.942 280.454 98.9466 280.035C98.2253 279.732 97.5473 279.847 97.0712 280.208C96.9125 280.18 96.7538 280.151 96.5952 280.136C96.0903 280.078 95.6286 280.093 95.1382 280.252C94.4457 280.468 93.7677 280.93 93.3349 281.522C92.8589 282.129 92.5271 282.851 92.455 283.645C92.4405 283.919 92.4117 284.165 92.4261 284.425C92.4405 284.685 92.4982 284.945 92.5559 285.205C92.6136 285.45 92.7435 285.681 92.8733 285.898C93.0608 286.187 93.2916 286.403 93.5513 286.548C93.6523 286.62 93.7677 286.663 93.8975 286.706C94.1428 286.793 94.2438 286.793 94.5323 286.807C95.0516 286.822 95.5132 286.418 95.7585 285.999C95.8017 285.927 95.8162 285.84 95.845 285.768C95.8595 285.724 95.8883 285.667 95.8883 285.609C95.8883 285.566 95.9172 285.537 95.9316 285.508C96.0037 285.176 95.9749 284.815 95.9027 284.468C95.8883 284.324 95.8883 284.179 95.8883 284.035C95.8883 283.963 95.9027 283.876 95.9316 283.818C95.9604 283.775 95.9749 283.717 96.0037 283.674C96.047 283.631 96.0758 283.573 96.1335 283.544C96.3067 283.414 96.4798 283.299 96.6673 283.197C96.7394 283.169 96.8116 283.14 96.8837 283.125C97.6915 283.891 98.6004 284.497 99.3072 285.306C99.4371 285.465 99.5525 285.623 99.6967 285.782C99.1774 286.605 98.3551 287.443 97.5761 288.006C96.7394 288.584 95.8017 288.959 94.7775 288.916C92.5271 288.8 90.8104 286.995 90.5075 284.829C90.1757 282.447 90.4642 279.27 91.7769 277.205C92.931 275.414 95.1959 274.779 97.2155 275.126C99.9275 275.602 102.034 277.667 103.476 279.905C104.731 281.855 107.775 279.905 106.506 277.97C104.587 275.082 101.875 272.555 98.4272 271.747C95.6575 271.082 92.4982 271.689 90.3488 273.537C91.1422 270.996 93.1185 268.974 95.6575 268.093C95.9893 268.079 96.3355 268.05 96.6673 268.021C97.0712 267.992 97.3886 267.862 97.6483 267.66C97.8935 267.631 98.1532 267.617 98.4128 267.617C100.894 267.559 103.318 268.483 105.193 270.086C106.116 270.866 106.91 271.761 107.559 272.772C108.28 273.884 108.655 275.429 109.607 276.338C110.415 277.118 112.089 276.699 112.233 275.487C112.406 273.855 111.281 272.093 110.386 270.765C109.463 269.393 108.323 268.137 106.996 267.111C106.578 266.794 106.145 266.519 105.712 266.245C106.131 266.519 106.809 266.49 107.299 266.649C107.948 266.866 108.583 267.14 109.16 267.472C110.487 268.209 111.555 269.22 112.507 270.375C113.026 271.01 113.517 271.66 113.993 272.31C114.555 273.089 115.06 273.84 115.868 274.375C117.152 275.183 118.407 273.653 118.133 272.44C117.917 271.487 117.152 270.664 116.561 269.913C115.984 269.147 115.363 268.396 114.7 267.689C113.445 266.332 111.973 265.09 110.314 264.252C110.271 264.238 110.242 264.209 110.199 264.194C110.199 264.079 110.184 263.978 110.199 263.862C110.199 263.805 110.242 263.588 110.242 263.559C110.271 263.458 110.285 263.357 110.329 263.227C111.165 261.537 113.127 261.191 114.743 261.898C116.344 262.592 117.484 263.992 118.364 265.581C119.46 267.559 120.167 269.711 121.018 271.79C121.927 274.028 123.081 275.848 124.61 277.696C126.226 279.631 127.971 281.465 129.847 283.14C131.708 284.771 133.698 286.259 135.776 287.602C137.334 288.612 139.022 289.695 140.782 290.475C139.44 291.847 138.098 293.219 136.757 294.605C134.867 296.554 137.969 299.37 139.858 297.435C146.336 290.822 152.798 284.223 159.261 277.609C159.146 279.645 159.391 281.725 159.752 283.573C160.415 286.966 161.814 290.273 163.863 293.06C165.868 295.775 168.378 298.027 171.263 299.76C172.273 300.352 173.326 300.858 174.408 301.305C172.1 302.966 169.763 304.583 167.397 306.172L167.368 306.143ZM303.924 285.97C301.471 284.396 298.687 283.645 295.816 283.284L295.845 283.14C296.076 282.071 296.22 280.974 296.408 279.891C296.523 279.226 296.119 278.49 295.412 278.375C294.677 278.259 294.114 278.678 293.898 279.371C293.58 280.425 293.234 281.465 292.96 282.533C292.917 282.692 292.888 282.836 292.844 282.995C290.479 282.851 288.113 282.865 285.862 282.779L265.176 282.057C258.799 281.84 252.38 281.421 245.989 281.624C239.974 281.811 233.958 282.75 228.505 285.421C223.6 287.818 219.475 291.645 216.2 295.977C212.262 301.161 209.42 306.995 206.953 312.973C205.857 315.615 204.76 318.258 203.678 320.886C203.245 320.785 202.87 320.64 202.596 320.366C201.846 319.615 201.731 318.272 201.615 317.233C201.399 315.485 201.312 313.724 201.284 311.976C201.255 310.258 201.5 308.41 201.255 306.691C201.385 305.912 201.053 305.016 200.288 304.713C200.216 304.684 199.812 304.54 199.711 304.496C199.581 304.439 199.437 304.395 199.293 304.338C198.961 304.208 198.629 304.049 198.312 303.89C197.994 303.731 197.692 303.558 197.389 303.37C197.331 303.327 197.201 303.255 197.172 303.24C197.028 303.139 196.898 303.038 196.754 302.937C195.6 302.042 194.835 301.19 194.1 300.107C193.277 298.908 192.844 297.984 192.412 296.598C192.022 295.37 191.806 294.244 191.806 292.93C192.513 292.367 193.205 291.789 193.912 291.212C197.187 288.483 200.634 285.782 203.621 282.735C205.121 281.19 202.885 278.403 201.139 279.79C198.312 282.028 195.701 284.555 192.945 286.865C190.233 289.147 187.492 291.371 184.708 293.551C182.588 295.197 180.467 296.829 178.303 298.417C177.928 298.331 177.567 298.244 177.207 298.128C175.865 297.695 174.581 297.089 173.355 296.381C170.96 295.009 168.797 293.132 167.152 290.908C165.349 288.483 164.123 285.71 163.502 282.735C162.839 279.645 163.3 276.656 163.228 273.552C165.363 271.342 167.484 269.162 169.604 266.996C174.293 262.202 178.909 257.321 183.727 252.686C185.242 251.227 186.786 249.798 188.401 248.455C189.05 247.877 189.728 247.329 190.406 246.809C193.003 244.744 195.758 242.867 198.701 241.307C204.198 238.419 210.704 236.614 216.979 237.076C215.998 240.08 215.594 243.242 216.315 246.404C217.383 251.068 221.061 254.433 224.769 257.119C232.79 262.924 241.95 269.306 252.279 269.162C254.847 269.133 257.299 268.469 259.795 268.035C262.478 267.573 264.945 267.906 267.556 268.584C272.417 269.84 277.135 271.183 282.039 269.277C286.829 267.415 290.738 263.516 292.787 258.823C293.537 257.104 294.071 255.314 294.431 253.509C296.956 253.87 299.048 256.469 300.389 258.433C302.495 261.523 304.443 264.729 306.304 267.963C310.083 274.548 313.445 281.364 316.604 288.251C317.138 289.421 317.657 290.591 318.191 291.76C317.614 292.656 317.037 293.435 316.286 294.36C315.334 295.515 314.281 296.598 313.156 297.58C312.795 297.897 312.161 298.403 311.641 298.778C311.05 299.211 310.444 299.63 309.838 300.02C309.795 300.049 309.752 300.078 309.708 300.107C310.04 297.435 310.083 294.677 309.146 292.136C308.165 289.508 306.304 287.472 303.967 285.97H303.924ZM324.12 318.503C322.576 321.016 320.124 322.98 317.686 324.554C312.464 327.933 306.462 329.911 301.558 333.68C302.957 329.203 304.241 324.698 305.409 320.164C306.751 314.951 308.049 309.652 309.001 304.338C309.968 303.991 310.891 303.486 311.713 303.009C313.156 302.172 314.469 301.175 315.724 300.092C317.296 298.749 318.667 297.204 319.893 295.558C320.34 296.554 320.802 297.565 321.249 298.562C322.821 302.071 324.61 305.594 325.505 309.363C326.269 312.568 325.851 315.702 324.12 318.518V318.503Z" fill="#53514E"/>
<path d="M60.1265 286.417C59.9678 286.229 59.7225 286.1 59.5206 285.97C59.3186 285.825 59.1022 285.681 58.9003 285.536C58.4963 285.262 58.0924 284.973 57.6885 284.699C56.7652 284.049 55.842 283.414 54.8899 282.822C54.5437 282.605 53.9522 282.576 53.5771 282.721C53.2165 282.851 52.928 283.067 52.7116 283.385C52.2499 284.049 52.2932 285.074 52.9568 285.623C53.7214 286.258 54.5292 286.85 55.3371 287.442C55.7266 287.731 56.1305 288.02 56.52 288.309C56.722 288.453 56.9239 288.612 57.1259 288.756C57.4288 288.973 57.7462 289.276 58.078 289.406C58.5108 289.58 59.0157 289.695 59.4773 289.522C59.8668 289.377 60.1697 289.146 60.4006 288.814C60.6314 288.497 60.7756 288.078 60.7323 287.673L60.6458 287.211C60.5448 286.908 60.3717 286.648 60.1409 286.417H60.1265Z" fill="#53514E"/>
<path d="M64.5123 290.432C62.2042 290.432 62.4062 294.013 64.7143 294.013C67.0224 294.013 66.8205 290.432 64.5123 290.432Z" fill="#53514E"/>
<path d="M74.9852 296.742C74.7111 296.511 74.4514 296.367 74.1341 296.237C73.9465 296.164 73.759 296.078 73.5715 296.006C73.2108 295.861 72.8502 295.717 72.4895 295.572C72.0135 295.385 71.5374 295.211 71.0469 295.067C70.6863 294.951 70.2679 294.793 69.8784 294.764C69.8352 294.764 69.7919 294.749 69.7342 294.735C69.1572 294.619 68.4647 294.923 68.205 295.471C68.1041 295.702 68.0464 295.933 68.0608 296.193C68.0608 296.497 68.2628 296.959 68.508 297.146C68.5801 297.19 68.6378 297.247 68.71 297.291C68.6234 297.19 68.5513 297.103 68.4647 297.002C68.6667 297.291 68.8686 297.45 69.1572 297.637C69.2293 297.681 69.3014 297.724 69.3735 297.767C69.5467 297.868 69.7198 297.984 69.8929 298.085C70.2247 298.287 70.5709 298.475 70.9171 298.648C71.2633 298.821 71.6095 298.995 71.9702 299.168C72.4318 299.385 72.9367 299.688 73.4416 299.774C74.1774 299.89 75.0285 299.572 75.3458 298.85C75.4757 298.561 75.5334 298.273 75.5334 297.955C75.5334 297.551 75.2881 297.016 74.9708 296.756L74.9852 296.742Z" fill="#53514E"/>
<path d="M311.108 212.673C308.656 208.341 304.66 205.915 300.246 203.907C297.635 202.723 294.966 201.568 292.831 199.619C290.912 197.872 289.181 195.446 289.455 192.716C289.585 191.374 287.594 190.883 287.349 192.283C286.541 196.861 289.34 200.817 292.961 203.301C296.928 206.03 301.905 207.099 305.54 210.333C311.858 215.965 312.349 226.145 306.391 232.195C303.001 235.632 298.385 237.091 293.639 236.932C291.922 236.874 291.749 239.646 293.422 239.921C302.467 241.408 311.873 234.333 313.388 225.38C314.123 221.048 313.258 216.485 311.094 212.673H311.108Z" fill="#53514E"/>
<path d="M310.17 150.479C307.689 145.598 303.203 141.844 297.779 140.776C296.408 140.501 296.019 142.523 297.346 142.884C306.073 145.281 309.363 155.273 309.795 163.36C310.026 167.749 309.579 172.356 307.372 176.24C305.612 179.345 302.438 182.074 298.788 182.464C294.749 182.911 291.475 180.486 289.816 176.933C289.138 175.475 286.801 175.648 286.887 177.482C287.089 182.045 291.72 185.308 295.918 185.973C300.635 186.709 305.237 184.485 308.324 180.991C311.858 177.005 313.2 171.706 313.359 166.493C313.532 161.049 312.652 155.36 310.17 150.465V150.479Z" fill="#53514E"/>
<path d="M193.537 220.629C193.147 220.08 192.426 219.893 191.849 220.254C191.763 220.311 191.69 220.355 191.604 220.398C191.387 220.485 191.214 220.557 191.056 220.6C190.998 220.615 190.926 220.643 190.854 220.643C190.594 220.672 190.435 220.672 190.262 220.672C190.161 220.658 190.075 220.643 189.974 220.629C189.887 220.615 189.786 220.586 189.7 220.557C189.411 220.456 189.281 220.383 189.252 220.369C189.238 220.369 189.079 220.239 189.022 220.225C188.892 220.124 188.776 220.008 188.647 219.893C188.603 219.849 188.56 219.806 188.517 219.763C188.3 219.474 188.113 219.214 187.94 218.925C187.911 218.882 187.853 218.737 187.795 218.694C187.738 218.535 187.666 218.376 187.579 218.246C187.565 218.218 187.507 218.16 187.449 218.102C187.406 217.972 187.377 217.885 187.348 217.799C187.276 217.582 187.19 217.38 187.089 217.163C186.944 216.86 186.526 216.701 186.223 216.716C185.848 216.73 185.617 216.947 185.415 217.236C185.271 217.452 185.184 217.727 185.127 217.986C185.112 218.073 185.098 218.16 185.083 218.246C185.083 218.333 185.083 218.42 185.069 218.506C184.867 218.853 184.997 219.315 185.069 219.647C185.069 219.705 185.098 219.763 185.112 219.82C185.112 219.748 185.083 219.69 185.069 219.618C185.112 219.864 185.141 220.037 185.242 220.254C185.718 221.293 186.396 222.102 187.406 222.651C189.151 223.604 191.546 223.459 193.147 222.275C193.667 221.9 193.912 221.149 193.523 220.586L193.537 220.629Z" fill="#53514E"/>
<path d="M208.035 86.7556C205.294 84.3297 201.688 84.0698 198.442 85.1672C198.803 83.4488 199.279 81.716 199.351 79.9544C199.466 76.8498 198.456 73.774 195.557 72.2867C192.874 70.9005 189.613 71.738 188.358 74.6116C187.002 77.7017 188.488 81.3262 188.2 84.5463C187.68 90.6544 183.425 95.0875 178.693 98.4953C176.515 100.055 174.163 101.383 171.696 102.452C166.662 104.632 161.166 105.701 155.684 105.528C153.736 105.455 151.803 105.239 149.899 104.863C149.654 105.975 149.409 107.13 149.134 108.286C153.736 109.253 158.482 109.47 163.156 108.791C170.326 107.766 177.178 104.546 182.574 99.7227C185.3 97.2968 187.666 94.4377 189.484 91.2609C191.431 87.8675 191.676 84.9073 191.301 81.0085C191.143 79.4056 190.551 77.2252 191.345 75.7234C191.965 74.5682 193.278 74.6549 194.287 75.2325C195.615 76.0122 196.062 77.4996 196.119 78.9724C196.22 81.716 195.283 84.3008 194.908 86.9866C192.845 88.5028 191.33 90.6255 190.234 92.9359C189.541 94.3944 189.036 95.9683 188.632 97.5278C188.243 99.0152 187.565 100.863 187.998 102.409C187.868 102.654 187.752 102.9 187.68 103.145C187.377 104.141 187.349 105.224 187.623 106.235C187.897 107.275 188.445 108.213 189.195 108.95C187.536 110.466 185.964 112.04 184.175 113.397C182.242 114.841 180.179 116.112 178.029 117.181C173.615 119.39 168.84 120.791 163.95 121.498C158.006 122.365 152.034 122.119 146.177 121.094C145.86 122.394 145.557 123.635 145.254 124.776C145.499 124.819 145.744 124.863 145.975 124.906C156.665 126.711 167.946 125.801 177.9 121.325C182.458 119.274 187.349 116.3 190.666 112.372C193.855 114.914 198.86 114.379 202.265 112.372C206.593 109.831 209.81 105.109 211.194 100.329C212.594 95.5496 211.887 90.1923 207.992 86.7556H208.035ZM195.73 91.5497C195.802 91.463 195.874 91.3764 195.961 91.3042C196.538 90.6688 197.259 90.0912 198.067 89.6147C199.971 88.474 202.308 87.983 204.357 88.9216C206.679 89.9902 207.833 92.3294 208.122 94.7698C207.905 93.4413 206.174 92.7338 205.035 92.3872C202.77 91.6363 200.289 91.4919 197.952 91.954C196.898 92.1562 195.744 92.4883 194.706 92.9937C195.023 92.4883 195.369 92.0118 195.759 91.5641L195.73 91.5497ZM208.05 97.6867C207.429 101.456 205.15 105.427 202.279 107.925C200.13 109.802 197.548 110.668 194.937 110.408C194.994 110.365 195.081 110.351 195.167 110.307C195.413 110.192 195.586 110.047 195.744 109.86C195.73 109.903 195.817 109.816 195.874 109.759C196.249 109.426 196.466 108.979 196.394 108.473C196.321 108.026 196.004 107.665 195.586 107.506C195.384 107.434 195.196 107.405 195.009 107.419C194.908 107.39 194.821 107.361 194.72 107.347C194.648 107.347 194.475 107.347 194.331 107.347C194.158 107.318 193.97 107.304 193.797 107.333C193.696 107.333 193.638 107.333 193.609 107.347C193.393 107.347 193.191 107.333 192.989 107.289C192.946 107.289 192.802 107.246 192.715 107.232C192.672 107.232 192.643 107.217 192.585 107.203C192.426 107.145 192.253 107.073 192.109 107.015C192.066 106.972 191.893 106.885 191.864 106.856C191.734 106.755 191.59 106.611 191.445 106.524C191.33 106.394 191.258 106.322 191.2 106.235C191.157 106.192 191.128 106.105 191.07 106.047C191.042 106.004 191.027 105.946 190.998 105.903C190.955 105.802 190.926 105.715 190.883 105.614C190.868 105.571 190.84 105.513 190.84 105.455C190.825 105.325 190.753 105.123 190.724 104.936C190.724 104.834 190.71 104.748 190.695 104.661C190.695 104.618 190.695 104.56 190.695 104.531C190.695 104.286 190.724 104.04 190.753 103.809C190.825 103.78 190.897 103.751 190.984 103.708C191.373 103.52 191.792 103.347 192.196 103.217C192.253 103.203 192.268 103.203 192.297 103.188C192.441 103.145 192.556 103.116 192.672 103.087C192.888 103.044 193.104 103.001 193.306 102.957C193.754 102.871 194.172 102.798 194.605 102.755C194.836 102.741 195.052 102.712 195.268 102.712C195.47 102.712 195.6 102.712 195.716 102.712C196.148 102.712 196.581 102.755 197.043 102.798C197.259 102.827 197.475 102.856 197.692 102.9C197.822 102.914 197.937 102.943 198.053 102.972C198.514 103.102 198.932 103.246 199.38 103.39C199.784 103.52 200.159 103.578 200.591 103.564C200.909 103.564 201.125 103.52 201.414 103.405C202.164 103.102 202.337 102.293 202.121 101.6C201.933 100.907 201.168 100.358 200.548 100.113C200 99.896 199.423 99.7516 198.86 99.6216C197.778 99.3617 196.682 99.2606 195.586 99.304C194.345 99.3473 193.191 99.6072 192.08 100.026C192.239 99.2751 192.412 98.5675 192.614 97.8455C193.71 97.3834 194.533 96.777 195.629 96.2716C196.725 95.7806 197.447 95.5207 198.529 95.3185C199.711 95.1019 200.433 95.073 201.587 95.1886C202.755 95.3041 203.405 95.4918 204.53 95.9394C205.107 96.156 205.77 96.5459 206.405 96.5315C207.213 96.5315 208.035 96.1127 208.107 95.2174C208.107 95.1597 208.107 95.1164 208.107 95.0586C208.194 95.9539 208.151 96.8347 208.035 97.6867H208.05Z" fill="#53514E"/>
<path d="M193.639 107.347C193.783 107.347 193.927 107.289 193.639 107.347V107.347Z" fill="#53514E"/>
<path d="M80.5683 42.5549C64.0218 42.9303 18.6958 69.1678 25.952 111.26C33.2082 153.353 86.3819 166.421 113.445 156.746C140.508 147.072 155.987 119.968 150.187 91.4198C144.388 62.872 101.846 42.0639 80.5827 42.5549H80.5683Z" fill="#89A7D1"/>
<path d="M153.75 89.2825C145.614 57.2113 109.679 35.4791 75.3459 40.4031C40.8392 45.3416 14.4255 74.8425 20.9892 110.495C23.5138 124.213 30.3372 137.079 40.5074 146.667C50.7209 156.299 64.0648 162.493 77.8992 164.573C91.6759 166.638 105.885 164.616 118.508 158.667C143.84 146.725 160.891 117.484 153.736 89.2825H153.75ZM144.388 114.812C143.998 116.704 143.479 118.581 142.83 120.459C127.539 164.587 54.7169 164.183 35.141 124.17C30.1497 113.989 28.8802 102.293 31.2172 91.2319C34.5351 75.6656 44.6909 61.5722 58.8715 54.1933C76.875 44.8218 97.9656 47.8686 115.204 57.4857C135.329 68.6911 149.163 91.8529 144.388 114.812Z" fill="#53514E"/>
<path d="M92.2533 102.019C92.2245 100.907 92.1956 99.8094 92.1668 98.6976C92.1091 96.6326 92.0514 94.5822 91.9937 92.5172C91.8638 88.1708 91.7484 83.8099 91.6186 79.4635C91.4887 75.1892 91.3589 70.915 91.2435 66.6408C91.1858 64.5036 91.1137 62.3665 91.0271 60.2294C90.9406 58.0778 91.0415 55.7674 90.5078 53.6736C90.1039 52.0997 87.7236 52.3452 87.4351 53.8469C87.0167 55.9552 87.2764 58.3089 87.3053 60.446C87.3341 62.5109 87.3774 64.5614 87.4351 66.6263C87.5505 70.9872 87.6515 75.3336 87.7669 79.6945C87.8679 83.9688 87.9833 88.243 88.0987 92.5172C88.1564 94.6544 88.2141 96.7915 88.2718 98.9286C88.3295 101.037 88.041 103.535 88.6613 105.557C89.2095 107.362 91.7628 107.073 92.1812 105.354C92.4409 104.286 92.2966 103.131 92.2677 102.019H92.2533Z" fill="#FFF8EB"/>
<path d="M135.098 90.3079C134.781 89.326 133.641 88.7195 132.645 89.0661C129.154 90.279 125.721 91.7375 122.259 93.0226C118.71 94.3511 115.147 95.6218 111.569 96.8637C108.064 98.0766 104.544 99.2463 101.01 100.373C97.4031 101.528 93.739 102.524 90.2046 103.853C87.9975 104.676 89.0938 107.723 91.3154 107.275C94.9507 106.524 98.4851 105.354 102.034 104.243C105.655 103.116 109.247 101.932 112.824 100.69C116.33 99.4773 119.821 98.221 123.298 96.9214C126.832 95.6074 130.438 94.3222 133.872 92.7483C134.824 92.3151 135.473 91.3765 135.112 90.2935L135.098 90.3079Z" fill="#FFF8EB"/>
<path d="M214.974 44.9229C214.484 39.5801 211.974 34.5117 208.238 30.6995C204.27 26.6419 199.077 23.9994 193.711 22.3099C182.862 18.9165 169.49 18.5988 160.156 26.0065C155.626 29.6021 152.251 34.7139 151.789 40.5909C151.4 45.6738 153.015 50.9733 156.651 54.5689C155.713 58.973 154.775 63.3773 153.823 67.7814C153.52 69.1821 155.251 70.5251 156.492 69.6153C159.305 67.536 162.089 65.3988 164.931 63.3628C168.451 66.5396 173.226 68.0702 177.886 68.5612C183.483 69.1532 189.224 68.6334 194.706 67.4349C200.332 66.2075 205.8 63.7383 209.796 59.5073C213.503 55.5797 215.45 50.3379 214.96 44.9229H214.974ZM208.584 54.9443C205.771 58.9442 201.4 61.4856 196.812 62.9296C191.475 64.6046 185.56 65.2256 179.977 64.9656C174.928 64.7346 169.98 63.3195 166.287 59.7528C165.768 59.2474 164.744 59.103 164.138 59.5651C162.19 61.0669 160.214 62.5397 158.238 63.9837L159.42 58.4388C159.579 57.7312 159.723 57.0092 159.882 56.3017C160.315 56.2439 160.733 56.0417 161.065 55.6663C161.772 54.8865 161.844 53.3848 160.935 52.6917C157.545 50.1213 155.886 46.0926 155.915 41.8761C155.944 37.6307 158.021 33.7319 160.993 30.7862C168.422 23.4218 179.92 23.1763 189.527 25.3134C198.803 27.3783 208.064 32.6345 210.661 42.4104C211.801 46.6846 211.166 51.2621 208.613 54.9154L208.584 54.9443Z" fill="#53514E"/>
<path d="M194.547 43.3779C193.538 45.0097 192.283 46.5403 191.143 48.0854C188.806 51.2622 186.44 54.439 184.103 57.6013C183.569 58.3233 182.372 58.2656 181.766 57.7024C181.723 57.6591 181.694 57.6158 181.651 57.5725C181.319 57.5725 180.973 57.4569 180.641 57.1537C178.174 54.9155 176.299 52.4607 174.87 49.4283C173.558 46.6125 172.332 43.1613 172.505 40.0134C172.606 38.1795 173.514 36.4323 175.26 35.6959C176.948 34.9739 178.679 35.6381 179.891 36.9377C181.449 38.6272 182.603 40.6632 183.483 42.8148C184.781 40.952 186.253 39.2192 187.94 37.7175C189.21 36.5623 190.71 35.4359 192.542 35.8258C194.014 36.1435 195.081 37.4431 195.456 38.8582C195.875 40.4322 195.384 42.035 194.547 43.3924V43.3779Z" fill="#53514E"/>
<path d="M67.1814 90.7553C67.0948 90.5821 67.0227 90.4232 66.9361 90.2499C66.7197 89.9178 66.4456 89.6579 66.085 89.4846C65.8253 89.3402 65.5512 89.268 65.2483 89.268C64.9742 89.2247 64.6857 89.2536 64.4116 89.3547C64.1375 89.4269 63.8923 89.5713 63.6903 89.7734C63.4451 89.9467 63.2719 90.1633 63.1421 90.4377C62.9979 90.6976 62.9257 90.9719 62.9257 91.2752C62.8824 91.5495 62.9113 91.8384 63.0123 92.1127C63.0556 92.286 63.1421 92.4304 63.2287 92.5748C63.2575 92.6325 63.2719 92.7048 63.3008 92.7625C63.3873 93.008 63.5316 93.2102 63.7336 93.3834C63.8778 93.4845 64.0221 93.5856 64.1663 93.6867C64.4116 93.8166 64.6568 93.8888 64.9165 93.8744C65.0896 93.9033 65.2627 93.9033 65.4214 93.8455C65.6811 93.8166 65.9119 93.73 66.1283 93.5856C66.2581 93.4701 66.3879 93.369 66.5178 93.2535C66.7053 93.0513 66.8207 92.8058 66.9073 92.5459C66.9361 92.5026 66.965 92.4737 66.9938 92.4159L67.1814 91.8672C67.2535 91.4918 67.2391 91.1163 67.1236 90.7553H67.1814Z" fill="#FFF8EB"/>
<path d="M111.872 77.7593C109.232 77.7593 109.463 81.8747 112.103 81.8747C114.743 81.8747 114.512 77.7593 111.872 77.7593Z" fill="#FFF8EB"/>
<path d="M119.749 101.6C118.22 102.596 117.138 104.445 115.84 105.73C114.614 106.943 113.301 108.04 111.902 109.037C108.901 111.159 105.598 112.762 102.063 113.787C98.3126 114.87 94.3022 115.246 90.4073 114.87C86.2815 114.466 82.5307 113.138 78.5925 111.997C77.323 111.636 76.2844 113.571 77.3807 114.379C80.9295 116.964 85.5313 118.134 89.8591 118.553C94.2878 118.971 98.7454 118.639 103.044 117.441C106.925 116.358 110.647 114.553 113.936 112.228C115.595 111.044 117.167 109.715 118.61 108.286C119.995 106.914 121.74 105.282 122.303 103.376C122.721 101.947 120.889 100.878 119.749 101.614V101.6Z" fill="#FFF8EB"/>
<path d="M155.785 200.211C155.713 199.979 155.598 199.777 155.425 199.604C155.28 199.402 155.093 199.243 154.862 199.142C154.559 198.998 154.256 198.925 153.924 198.94C153.881 198.94 153.852 198.94 153.809 198.94C153.693 198.94 153.593 198.969 153.463 198.998C153.318 199.026 153.29 199.012 153.189 199.055C152.741 199.243 152.785 199.214 152.539 199.431C152.381 199.546 152.265 199.691 152.164 199.85C152.107 199.936 152.049 200.008 151.991 200.095C151.948 200.153 151.934 200.211 151.919 200.283C151.847 200.499 151.789 200.586 151.818 200.846L151.876 201.178C151.962 201.452 152.02 201.525 152.121 201.655C152.251 201.842 152.352 201.958 152.453 202.073C152.525 202.117 152.583 202.174 152.655 202.218C152.713 202.275 152.785 202.333 152.871 202.362C153.044 202.434 153.275 202.535 153.405 202.55C153.477 202.55 153.549 202.564 153.621 202.579C153.939 202.636 154.256 202.622 154.559 202.521C154.703 202.449 154.848 202.391 154.977 202.319C155.251 202.145 155.468 201.9 155.627 201.611C155.756 201.395 155.814 201.149 155.814 200.904C155.857 200.673 155.814 200.427 155.742 200.196L155.785 200.211Z" fill="#53514E"/>
<path d="M146.206 199.46C143.883 199.46 144.085 203.07 146.408 203.07C148.73 203.07 148.528 199.46 146.206 199.46Z" fill="#53514E"/>
<path d="M137.536 225.134C134.982 226.78 131.073 226.073 129.717 223.213C131.102 222.607 132.472 221.957 133.814 221.25C135.992 220.094 138.012 217.813 136.483 215.257C134.809 212.47 131.232 212.716 128.981 214.607C126.976 216.297 126.024 218.968 126.226 221.553C126.096 221.596 125.966 221.654 125.836 221.712C123.73 222.491 120.888 223.661 118.292 223.704C119.359 222.997 120.297 222.13 120.831 220.932C121.84 218.694 120.903 216.037 118.941 214.665C116.835 213.178 114.05 213.596 112.19 215.271C110.242 217.019 109.78 219.849 110.819 222.203C111.093 222.824 111.425 223.343 111.8 223.805C106.333 226.159 97.4607 229.408 93.133 224.672C93.6234 224.369 94.0995 224.051 94.5611 223.69C96.4942 222.174 98.8168 219.834 98.2397 217.12C97.7348 214.752 95.4411 213.741 93.2195 214.246C91.0124 214.737 89.44 216.441 88.9062 218.621C88.5023 220.325 88.7475 222.015 89.4111 223.517C88.4734 223.95 87.5213 224.296 86.5259 224.585C85.2565 224.946 85.6027 227.112 86.9587 226.91C88.3147 226.693 89.6275 226.347 90.8681 225.827C92.2386 227.444 94.1139 228.672 96.0758 229.235C102.077 230.939 108.843 228.152 114.296 225.712C117.498 227.054 121.826 226.073 125.057 224.99C125.678 224.787 126.298 224.556 126.904 224.325C128.938 228.845 134.867 230.722 139.224 227.776C140.897 226.65 139.224 224.036 137.521 225.134H137.536ZM91.8779 217.784C92.4982 216.946 94.5756 215.835 95.369 217.062C96.4509 218.737 93.4936 221.004 92.4117 221.784C92.1664 221.957 91.8924 222.116 91.6327 222.289C91.0557 220.874 90.9114 219.069 91.8779 217.798V217.784ZM113.271 218.39C113.848 216.99 115.681 216.008 117.094 216.773C118.407 217.481 118.869 219.156 117.945 220.354C117.152 221.394 115.825 222.058 114.555 222.607C113.329 221.639 112.666 219.892 113.271 218.39ZM129.558 218.694C130.063 217.38 131.722 215.372 133.338 216.094C135.603 217.091 132.631 218.679 131.693 219.156C130.871 219.575 130.034 219.964 129.183 220.34C129.226 219.777 129.342 219.214 129.544 218.694H129.558Z" fill="#53514E"/>
<path d="M232.401 68.6913C231.636 68.6768 230.944 69.11 230.309 69.4999C229.689 69.8753 229.112 70.3374 228.535 70.7706C227.337 71.6803 226.154 72.6045 224.972 73.5287C222.635 75.3625 220.326 77.2253 218.033 79.1025C217.47 79.5646 217.196 80.3155 217.629 80.9797C218.018 81.5717 218.913 81.8172 219.504 81.384C221.957 79.6512 224.394 77.9184 226.804 76.1279C227.972 75.2615 229.141 74.3951 230.295 73.5142C231.463 72.6189 233.18 71.5648 233.569 70.0486C233.757 69.2977 233.093 68.7057 232.401 68.6913Z" fill="#53514E"/>
<path d="M238.17 87.5496C237.651 87.203 236.858 87.1308 236.252 87.102C235.718 87.0731 235.184 87.102 234.65 87.1453C233.453 87.2319 232.256 87.3186 231.073 87.4341C228.721 87.6507 226.399 87.8962 224.047 88.1561C222.331 88.3582 222.461 90.8997 224.206 90.8419C226.601 90.7697 228.995 90.6831 231.39 90.5531C232.544 90.4954 233.698 90.4087 234.838 90.3365C236.064 90.2499 237.536 90.1344 238.488 89.2824C239.079 88.7481 238.704 87.9106 238.17 87.5496Z" fill="#53514E"/>
<path d="M235.776 108.921C235.113 107.477 233.713 106.885 232.343 106.25C231.045 105.643 229.746 105.022 228.433 104.416C225.779 103.188 223.067 102.077 220.384 100.893C218.956 100.257 217.859 102.337 219.273 103.073C221.855 104.445 224.409 105.86 227.02 107.188C228.304 107.838 229.588 108.474 230.871 109.109C232.213 109.773 233.598 110.567 235.127 110.177C235.603 110.062 235.978 109.383 235.776 108.921Z" fill="#53514E"/>
</svg>
