<svg width="220" height="222" viewBox="0 0 220 222" fill="none" xmlns="http://www.w3.org/2000/svg">
<path d="M29.3095 136.404H27.4854V221.114H29.3095V136.404Z" fill="#F49D9D"/>
<path d="M40.3811 134.546C40.1348 135.826 40.0232 137.101 40.0309 138.354L35.917 142.4L38.7571 150.053L44.6451 150.854C46.1691 152.677 48.0278 154.241 50.1483 155.451L51.6145 160.973L59.7962 162.476L63.4944 157.933C65.3994 157.648 67.2312 157.1 68.9476 156.326L74.6047 158.122L80.5812 152.453L78.6878 147.055C79.4883 145.463 80.0925 143.744 80.4427 141.918C80.6928 140.608 80.8083 139.309 80.7929 138.026L84.7836 133.722L81.9435 126.069L76.1287 125.545C74.597 123.73 72.7305 122.173 70.6024 120.971L68.8437 115.422L60.662 113.915L57.2447 118.535C55.3975 118.82 53.6157 119.352 51.9455 120.1L46.4808 118.088L40.5043 123.757L42.1668 129.336C41.347 130.947 40.7313 132.693 40.3734 134.55L40.3811 134.546ZM61.6703 131.714C65.3532 132.392 67.7777 135.856 67.085 139.459C66.3923 143.059 62.8441 145.428 59.165 144.754C55.4783 144.076 53.0576 140.608 53.7504 137.009C54.4431 133.406 57.9874 131.04 61.6703 131.714Z" fill="#F49D9D"/>
<path d="M72.9226 113.341C73.3421 113.95 73.8116 114.501 74.3234 115.002L74.3119 118.212L78.5412 120.181L81.2235 118.227C82.5705 118.37 83.9482 118.277 85.2874 117.942L88.1083 119.587L91.9951 117.029L91.6411 113.78C92.2876 112.932 92.8033 112.004 93.1766 111.029L96.1668 109.564L96.2707 104.987L93.3305 103.553C93.0073 102.605 92.5532 101.684 91.9567 100.817C91.5295 100.197 91.0484 99.6303 90.5251 99.1216L90.3827 95.8578L86.1533 93.8887L83.6134 95.9233C82.2665 95.7884 80.8887 95.8848 79.5495 96.2277L76.6016 94.6863L72.7148 97.245L73.2151 100.416C72.5878 101.245 72.0914 102.147 71.7258 103.091L68.724 104.397L68.6201 108.975L71.541 110.566C71.8643 111.53 72.3223 112.466 72.9303 113.348L72.9226 113.341ZM80.3038 103.981C82.0509 102.829 84.4254 103.279 85.603 104.99C86.7806 106.701 86.3188 109.021 84.5678 110.173C82.8168 111.325 80.4462 110.871 79.2686 109.164C78.091 107.453 78.5528 105.137 80.3038 103.981Z" fill="#F49D9D"/>
<path d="M205.9 220.25C205.819 220.647 205.55 220.971 205.123 221.037C199.169 221.942 193.139 222.096 187.124 221.957C181.763 221.838 176.41 221.495 171.049 221.279C165.596 221.056 160.15 221.056 154.697 221.206C144.237 221.495 133.754 222.104 123.31 221.283C123.156 221.391 122.948 221.433 122.69 221.372C121.47 221.09 120.258 220.809 119.046 220.528C118.55 220.412 118.195 220.062 118.238 219.534C118.365 217.965 118.499 216.393 118.634 214.825C119.204 208.509 119.908 202.189 121.313 195.997C122.69 189.905 124.842 184.036 127.335 178.294C128.598 175.377 129.941 172.491 131.28 169.609C132.431 167.135 133.597 164.661 134.951 162.287C137.672 157.544 141.243 153.513 146.281 151.05C148.871 149.779 151.661 148.935 154.466 148.253C157.353 147.548 160.324 146.881 163.306 146.685C166.377 146.488 169.329 146.943 172.023 148.446C174.524 149.837 176.729 151.794 178.788 153.736C182.941 157.655 186.489 162.11 189.344 167.011C192.511 172.456 194.736 178.398 197.076 184.217C199.415 190.04 201.659 195.916 203.375 201.95C204.222 204.929 204.946 207.943 205.477 210.983C206.012 214.019 206.52 217.191 205.904 220.25H205.9Z" fill="#26241F"/>
<path d="M190.821 147.001C190.356 142.831 188.847 138.777 187.458 134.835C185.876 130.35 184.106 125.922 182.151 121.572C180.277 117.41 178.299 113.241 175.974 109.299C175.059 107.746 174.039 106.227 172.884 104.825C172.811 104.305 172.742 103.784 172.661 103.264C171.853 98.1661 170.26 92.8831 166.419 89.1568C163.005 85.8505 158.214 83.9392 153.411 83.9624C150.948 83.9739 148.359 84.4132 146.169 85.5577C143.498 86.9757 142.047 89.4651 140.477 91.8426C138.741 94.4707 137.01 97.1026 135.27 99.7383C133.873 101.858 132.546 104.305 130.429 105.838C128.589 107.175 126.146 107.299 124.198 106.096C122.255 104.898 121.416 102.671 121.963 100.501C122.228 99.457 122.798 98.5014 123.629 97.7923C124.187 97.3145 123.948 96.5708 123.471 96.2818C123.452 96.2355 123.44 96.1855 123.417 96.1392C122.94 95.2221 122.467 94.3011 121.989 93.384C121.739 92.9062 121.047 92.6095 120.581 93.0256C120.046 93.4919 119.569 94.0006 119.142 94.54C119.045 95.4302 118.953 96.3203 118.857 97.2105C115.193 105.079 111.541 113.264 111.041 121.996C110.618 129.406 112.542 137.413 117.926 142.885C120.743 145.756 124.572 147.517 126.973 150.785C128.905 153.42 130.079 156.48 131.63 159.32C133.111 162.033 134.974 164.638 137.899 165.986C142.082 167.921 146.8 166.395 150.941 165.166C155.547 163.794 160.131 162.295 164.872 161.409C167.223 160.969 169.602 160.696 171.999 160.653C173.923 160.619 175.847 160.676 177.772 160.619C181.466 160.511 185.349 159.875 188.035 157.174C190.725 154.472 191.222 150.604 190.821 147.001Z" fill="#FFC65E"/>
<path d="M133.02 207.261C133.02 215.888 133.254 221.11 124.199 221.11H16.2368C11.1261 221.11 8.34375 218.84 8.34375 209.303C8.34375 199.766 10.1987 142.793 9.96776 138.935C9.91389 138.068 10.0717 137.209 10.4142 136.4H64.1721C62.5366 141.367 60.6547 147.182 60.6547 147.182L70.5604 157.929L69.6368 168.372L78.9268 185.469L72.2652 167.917L76.1367 154.9L68.7055 146.126L73.6391 136.404H131.176C132.281 138.196 132.958 140.565 133.02 143.706C133.254 155.278 133.02 198.637 133.02 207.264V207.261Z" fill="#FFF8EB"/>
<path d="M125.576 187.069C125.449 187.566 125.199 188.171 124.645 188.41C124.179 188.61 123.617 188.733 123.09 188.853C123.028 188.88 122.967 188.895 122.898 188.903C122.774 188.934 122.655 188.957 122.536 188.995C122.251 189.072 121.989 189.034 121.782 188.93C114.373 189.015 106.969 189.096 99.561 189.18C85.8646 189.334 72.1606 189.489 58.4604 189.643C55.0623 189.681 51.6565 189.72 48.2583 189.758C46.5073 189.781 44.7563 189.797 43.0092 189.816C41.5429 189.832 40.0613 189.905 38.6028 189.797C36.3515 189.635 33.7923 188.733 33.4575 186.552C32.6917 181.489 39.8304 182.576 42.8321 182.545C48.0082 182.495 53.1804 182.445 58.3565 182.398C71.6834 182.271 85.0142 182.148 98.3449 182.021C104.906 181.959 111.479 181.809 118.045 181.84C120.612 181.851 123.509 182.233 124.941 184.325C125.511 185.15 125.803 186.117 125.564 187.069H125.576Z" fill="#F49D9D"/>
<path d="M133.87 143.687C133.808 140.581 133.146 137.98 131.899 135.953C131.746 135.702 131.472 135.548 131.176 135.548H73.639C73.3195 135.548 73.0271 135.729 72.8808 136.015L67.9472 145.737C67.7933 146.041 67.8356 146.411 68.055 146.673L75.1899 155.097L71.4492 167.67C71.3954 167.848 71.4031 168.04 71.4685 168.218L73.6621 173.998L70.5064 168.191L71.4069 158.006C71.43 157.767 71.3492 157.528 71.1837 157.351L61.6128 146.97C62.0938 145.486 63.6178 140.781 64.9763 136.666C65.0609 136.408 65.0186 136.122 64.857 135.899C64.6953 135.679 64.4413 135.544 64.1681 135.544H10.414C10.0715 135.544 9.76365 135.749 9.62895 136.065C9.22488 137.016 9.0517 137.999 9.11712 138.982C9.24027 140.997 8.76307 158.318 8.30511 175.069C7.90488 189.701 7.48926 204.833 7.48926 209.299C7.48926 218.409 9.94067 221.958 16.2328 221.958H124.191C128.663 221.958 131.361 220.69 132.681 217.962C133.87 215.511 133.866 212.147 133.862 207.889V207.257C133.862 205.141 133.878 200.929 133.893 195.608C133.947 179.454 134.035 152.422 133.862 143.683L133.87 143.687ZM132.2 195.608C132.18 200.929 132.169 205.145 132.169 207.261V207.893C132.169 211.935 132.173 215.126 131.157 217.222C130.472 218.636 129.059 220.258 124.195 220.258H16.2366C11.6686 220.258 9.19794 218.513 9.19794 209.303C9.19794 204.86 9.61356 189.739 10.0138 175.119C10.4948 157.559 10.9489 140.974 10.822 138.882C10.7873 138.338 10.8527 137.791 11.0144 137.252H62.9982C61.4589 141.933 59.8464 146.92 59.8464 146.92C59.7502 147.213 59.8233 147.532 60.0311 147.76L69.6828 158.23L68.79 168.295C68.7746 168.46 68.8092 168.63 68.8901 168.776L78.18 185.874C78.3956 186.267 78.8766 186.429 79.2845 186.24C79.6925 186.051 79.8849 185.581 79.7232 185.161L73.1656 167.879L76.9563 155.139C77.0371 154.862 76.9755 154.565 76.7908 154.345L69.7252 146.003L74.1662 137.252H130.691C131.626 138.959 132.123 141.132 132.173 143.718C132.35 152.438 132.257 179.458 132.204 195.604L132.2 195.608Z" fill="#26241F"/>
<path d="M0.215787 128.947C-1.64298 133.259 9.04011 137.575 11.8225 135.984C14.6087 134.396 54.1046 45.2969 55.7016 42.0022C57.3026 38.7076 58.3647 37.9831 54.0776 35.4206C49.7905 32.8581 43.8602 29.2898 41.5396 33.3783C39.2191 37.4668 2.07455 124.635 0.215787 128.947Z" fill="#26241F"/>
<path d="M50.4142 38.7308C50.4142 40.2876 49.1211 41.5515 47.5279 41.5515C45.9347 41.5515 44.6416 40.2876 44.6416 38.7308C44.6416 37.174 45.9347 35.9062 47.5279 35.9062C49.1211 35.9062 50.4142 37.1702 50.4142 38.7308Z" fill="#FFF8EB"/>
<path d="M46.9308 46.2179C46.9308 47.7785 45.6377 49.0386 44.0445 49.0386C42.4513 49.0386 41.1582 47.7747 41.1582 46.2179C41.1582 44.6611 42.4513 43.3933 44.0445 43.3933C45.6377 43.3933 46.9308 44.6572 46.9308 46.2179Z" fill="#FFF8EB"/>
<path d="M42.9864 54.1637C42.9864 55.7244 41.6934 56.9883 40.1001 56.9883C38.5069 56.9883 37.2139 55.7244 37.2139 54.1637C37.2139 52.6031 38.5069 51.343 40.1001 51.343C41.6934 51.343 42.9864 52.6069 42.9864 54.1637Z" fill="#FFF8EB"/>
<path d="M145.304 53.7051C145.211 53.9325 145.03 54.1251 144.83 54.2022C139.689 56.0018 134.39 53.5934 129.221 53.1695C124.295 52.7649 119.277 53.3275 114.432 52.1676C113.397 51.9171 112.4 51.5587 111.727 50.6802C111.157 49.9287 110.934 49.0039 110.661 48.1138C110.137 46.4029 109.102 45.058 107.655 44.0137C104.403 41.667 100.135 40.8847 96.3485 39.8405C93.3429 39.012 90.3373 38.1835 87.3241 37.355C86.6814 37.4012 86.0387 37.4012 85.3922 37.3511C85.2267 37.3897 85.0689 37.4244 84.9034 37.4745C84.4724 37.617 84.0991 37.4244 83.8952 37.1276C83.2063 36.9851 82.529 36.7962 81.8748 36.5458C78.1188 35.1393 75.1786 32.1452 73.1351 28.758C71.007 25.236 69.356 20.9818 70.372 16.8278C70.4913 16.3307 70.8107 16.0802 71.3187 16.0764C71.7497 16.0764 72.1769 16.0918 72.6117 16.111C72.7156 15.7642 73.0158 15.4829 73.493 15.5292C74.4551 15.6216 75.4057 15.7796 76.3447 15.9916C77.9725 16.2189 79.6004 16.3923 81.2398 16.5041C82.4597 16.5426 83.6758 16.5966 84.8957 16.6505C92.1499 16.9973 99.3887 17.637 106.62 18.3422C109.991 18.6736 113.381 18.9356 116.737 19.398C119.027 19.7101 121.321 20.2419 123.337 21.3517C125.631 22.0029 127.836 22.9123 129.826 24.3227C133.997 27.2706 136.972 31.6095 139.377 36.0487C142.26 41.3549 144.599 46.9924 146.589 52.6955C146.897 53.5741 145.9 54.1482 145.296 53.7051H145.304Z" fill="#FFF8EB"/>
<path d="M85.6069 25.5753C84.5601 23.1553 82.5243 21.3827 80.3192 19.9685C77.887 18.4117 75.2894 17.0399 72.6609 15.8184C69.4514 14.3271 66.0995 13.121 62.6513 12.3618C62.6436 12.0574 62.4743 11.7646 62.0818 11.6258C57.0827 9.81858 51.4333 10.9322 47.1462 13.9032C42.6552 17.0168 40.0075 22.1264 39.0723 27.3401C38.8029 28.8121 38.649 30.3304 38.6875 31.8255C38.7067 32.8274 38.98 33.9179 39.7535 34.5576C40.0152 35.0085 40.4116 35.3476 40.8734 35.6019C41.2236 36.1221 41.77 36.5267 42.3896 36.6886C43.6134 37.0084 44.8295 36.3918 45.5838 35.4555C45.7723 35.2204 45.9263 34.9661 46.0571 34.7002C46.3573 34.3457 46.6074 33.9411 46.8037 33.5056C46.8768 33.4208 46.9384 33.3207 46.9769 33.1896C47.0192 33.0278 47.0616 32.8582 47.1039 32.6925C47.1847 32.4536 47.2501 32.1993 47.3079 31.9488C47.7966 30.0915 48.2815 28.2303 48.9011 26.4153C49.5668 24.4693 50.4943 22.4925 52.1491 21.1631C55.2009 18.7123 59.9074 18.7662 62.736 21.5292C64.1445 22.901 65.0412 24.7815 65.1489 26.7274C62.8745 27.2592 60.6155 27.8411 58.3719 28.5C56.3361 29.0934 54.1079 29.6098 52.3608 30.8468C50.8907 31.8833 50.0133 33.4941 50.4597 35.2512C50.2442 36.2647 50.6328 37.2473 51.4141 37.9833C52.3839 38.8812 53.6577 39.147 54.9546 38.9698C56.4939 38.7617 57.9217 38.0488 59.4071 37.6442C60.8464 37.255 62.3358 37.0199 63.8251 36.9121C69.5399 36.5113 75.3663 39.1779 80.9657 37.1086C83.2517 36.2647 85.1682 34.5692 85.9609 32.2687C86.7075 30.0992 86.5189 27.6754 85.6107 25.5791L85.6069 25.5753Z" fill="#FFF8EB"/>
<path d="M84.9644 34.7193C82.6438 37.3435 78.7608 37.7289 75.4358 37.4514C71.0717 37.0854 66.8385 35.571 62.4129 35.9871C60.277 36.1875 58.3605 37.0391 56.3171 37.5902C54.7392 38.014 52.6573 38.2067 51.3373 37.0314C50.0635 35.8985 50.3829 33.9564 51.2834 32.6963C52.4033 31.1318 54.3698 30.3958 56.1631 29.8563C61.1044 28.3689 66.292 27.525 71.4373 27.1165C72.6188 27.024 72.3494 25.2438 71.1756 25.3362C66.015 25.7486 60.8928 26.6464 55.9207 28.0606C53.858 28.6502 51.7914 29.4556 50.3021 31.0316C48.9859 32.4227 48.3047 34.5151 48.8435 36.3686C49.3938 38.2491 51.141 39.3473 53.0459 39.6286C55.2472 39.9562 57.3407 39.1585 59.3919 38.4842C61.8549 37.6788 64.2909 37.5786 66.8578 37.9023C69.3323 38.2144 71.7567 38.8194 74.2351 39.1277C78.5453 39.6633 83.4327 39.197 86.4421 35.7906C87.2157 34.9159 85.7417 33.8446 84.9721 34.7155L84.9644 34.7193Z" fill="#26241F"/>
<path d="M73.0809 14.1844C66.9389 11.487 60.2735 8.70101 53.3849 9.91484C46.9812 11.0439 42.1284 15.9724 39.55 21.6177C38.2801 24.396 37.4488 27.5481 37.5412 30.6039C37.6258 33.4786 39.0805 36.5074 42.1169 37.3397C45.0147 38.1335 47.4122 36.1259 48.4552 33.6211C49.6366 30.7889 49.0824 27.498 50.7757 24.8392C52.3151 22.4192 55.159 20.6351 58.1492 20.9472C61.074 21.2555 63.764 23.4404 64.2643 26.3228C64.4605 27.4634 66.2808 27.209 66.0846 26.0646C65.1802 20.847 59.2383 17.8606 54.2931 19.7103C51.8802 20.612 49.906 22.4732 48.7553 24.7159C47.3584 27.4325 47.8894 30.6424 46.5656 33.363C46.0499 34.4188 45.1725 35.4438 43.9449 35.6827C42.6787 35.9294 41.3972 35.2242 40.6122 34.2878C38.6764 31.9796 39.3037 28.3304 40.0272 25.6792C41.5358 20.1496 45.4303 14.5081 51.0682 12.3926C58.2416 9.69905 65.8844 12.9976 72.4074 15.8607C73.485 16.3347 74.1584 14.6623 73.0771 14.1883L73.0809 14.1844Z" fill="#26241F"/>
<path d="M151.318 62.8416C146.05 51.1619 144.376 37.2934 134.928 27.7831C125.311 18.1033 110.941 16.7199 97.9218 15.8259C89.6093 15.2556 81.2969 14.6853 72.9844 14.115C71.8068 14.0341 71.5913 15.8182 72.7766 15.8991C80.0346 16.3962 87.2926 16.8972 94.5507 17.3942C101.624 17.8798 108.774 18.2266 115.701 19.8219C121.643 21.1899 127.473 23.606 132.084 27.5904C136.667 31.5479 139.654 36.9427 141.905 42.4261C144.757 49.3662 146.534 56.6877 149.625 63.5391C150.102 64.5988 151.795 63.8974 151.318 62.8378V62.8416Z" fill="#26241F"/>
<path d="M124.114 73.8856C121.22 66.5911 117.891 59.4661 114.127 52.5607C113.208 50.8768 112.265 49.2044 111.299 47.5474C110.856 46.7921 110.41 46.0407 109.96 45.2932C109.486 44.5032 109.048 43.6208 108.397 42.9541C107.131 41.6517 104.938 41.4166 103.24 40.9812C101.232 40.4687 99.2189 39.9831 97.1985 39.5169C92.6343 38.4687 88.0394 37.5478 83.4213 36.7539C82.2552 36.5536 82.0513 38.3377 83.2135 38.5381C87.1427 39.2163 91.0565 39.9793 94.951 40.8424C96.9676 41.2856 98.9764 41.7557 100.978 42.2528C101.897 42.4801 102.813 42.7152 103.729 42.9503C104.622 43.1815 105.607 43.3472 106.446 43.7479C107.17 44.0947 107.531 44.7806 107.928 45.4319C108.447 46.2835 108.959 47.1428 109.463 48.006C110.41 49.6206 111.334 51.2506 112.234 52.8921C114.054 56.2176 115.778 59.5932 117.399 63.0151C119.2 66.8184 120.874 70.6796 122.425 74.5869C122.852 75.6698 124.545 74.9646 124.118 73.8856H124.114Z" fill="#26241F"/>
<path d="M216.844 97.7383C215.416 101.885 212.226 105.341 208.512 107.688C204.198 110.42 199.126 111.715 194.077 112.374C191.395 112.72 188.678 112.913 185.972 113.04C183.271 113.167 180.55 113.191 177.86 112.871C172.726 112.266 168.143 110.181 164.075 107.106C160.061 104.069 156.594 100.374 153.115 96.7788C149.501 93.0409 145.953 89.2183 142.778 85.1106C139.573 80.9643 136.848 76.5521 134.666 71.8163C133.515 69.3192 132.442 66.7837 131.129 64.3637C129.855 62.017 128.305 59.8398 126.638 57.7512C125.026 55.7397 123.371 53.7244 121.597 51.8555C120.088 50.2679 118.21 48.5839 115.947 48.2063C113.754 47.8364 111.195 49.2506 109.363 47.4472C109.063 47.1543 108.859 46.8075 108.751 46.4414C108.562 46.5377 108.37 46.6264 108.185 46.7227C107.131 47.2506 106.419 45.5975 107.469 45.0619C108.197 44.6958 108.936 44.3413 109.675 44.0022C109.832 43.902 110.006 43.8288 110.179 43.7671C111.649 43.1082 113.13 42.4916 114.658 41.9637C119.449 40.3183 124.602 39.4667 129.655 40.3029C132.003 40.6921 134.304 41.4127 136.402 42.5379C138.484 43.6592 140.223 45.1312 141.801 46.8614C143.271 48.4799 144.606 50.2563 146.342 51.6243C148.331 53.2003 150.717 53.8284 153.257 53.7167C158.276 53.4932 163.059 51.2428 168.147 51.9094C170.444 52.21 172.495 53.1618 174.116 54.7918C175.536 56.2214 176.486 58.021 177.518 59.728C178.545 61.4351 179.711 63.2038 181.52 64.2019C183.54 65.3155 185.988 65.3772 188.247 65.4119C190.583 65.4465 192.923 65.4311 195.193 66.0477C197.302 66.618 199.18 67.8703 200.608 69.4811C202.005 71.0494 202.967 73.0108 203.321 75.057C203.517 76.213 203.248 77.4577 203.54 78.5867C203.798 79.5694 204.741 79.9239 205.665 80.1281C206.665 80.3439 207.681 80.4287 208.674 80.6869C209.667 80.9373 210.59 81.3535 211.468 81.8737C213.142 82.8602 214.539 84.3283 215.543 85.966C217.745 89.5382 218.21 93.7962 216.848 97.7421L216.844 97.7383Z" fill="#26241F"/>
<path d="M149.525 91.2992C148.039 95.958 145.557 100.324 142.34 104C140.716 105.854 138.911 107.557 136.944 109.044C134.916 110.57 132.599 112.127 129.998 112.324C124.891 112.701 120.719 108.578 120.2 103.642C120.069 102.401 120.15 101.145 120.435 99.9348C120.754 98.5822 121.293 97.2721 121.489 95.8925C121.643 94.7943 121.428 93.7269 120.92 92.8252C120.423 92.7867 119.969 92.3705 120.169 91.8233C119.65 91.2992 119.015 90.8869 118.26 90.6365C117.214 90.2897 117.845 88.6982 118.88 89.045C119.226 89.1606 119.546 89.307 119.857 89.4766C119.657 89.1298 119.438 88.7984 119.253 88.4901C117.837 86.1087 117.437 83.3804 116.582 80.7755C115.678 78.0126 114.454 75.3615 113.458 72.6255C111.71 67.8704 110.567 62.2058 113.053 57.4854C114.15 55.4007 116.105 53.3622 118.672 54.1175C121.335 54.8997 122.143 57.7204 123.64 59.7204C126.488 63.516 131.776 64.383 135.79 66.4485C140.181 68.7066 144.033 71.9936 146.927 76.0088C148.443 78.1128 148.393 80.6561 148.967 83.2109C149.586 85.9738 150.363 88.6558 149.521 91.2954L149.525 91.2992Z" fill="#FFF8EB"/>
<path d="M136.695 72.2634C136.302 74.1015 135.009 75.6197 133.385 76.5754C132.596 77.0378 131.727 77.2536 130.915 77.6582C130.43 77.8971 130.264 78.1476 130.322 78.6948C130.364 79.1996 130.445 79.6889 130.457 80.1976C130.491 82.2399 129.826 84.2052 128.76 85.9469C126.543 89.5845 122.429 91.9968 118.542 93.6037C114.644 95.2144 110.441 95.5265 106.404 94.2202C99.1117 91.8581 94.5321 84.5751 95.4057 77.2266C94.763 75.1342 94.4513 72.9686 94.4629 70.7875C94.4321 70.5794 94.3936 70.3752 94.3666 70.1633C94.2435 69.3232 94.2858 68.5101 94.6899 67.8281C94.7553 67.5506 94.9362 67.3541 95.1671 67.2424C96.1292 66.3985 97.3376 65.9168 98.3574 65.3734C100.616 64.1673 102.902 62.9959 105.25 61.9593C109.04 60.2831 113.051 58.9652 117.184 58.5028C117.942 58.3294 118.704 58.2523 119.443 58.3371C119.589 58.3294 119.731 58.3178 119.87 58.314C120.178 58.3062 120.42 58.4296 120.593 58.6068C120.967 58.7455 121.328 58.9382 121.682 59.1925C123.449 60.4642 124.788 62.5489 125.935 64.3446C126.512 65.2501 126.962 66.2443 127.57 67.1306C128.14 67.9707 129.102 67.4543 129.86 67.1499C131.642 66.4447 133.431 66.2405 134.982 67.5738C136.329 68.7375 137.061 70.5255 136.687 72.2634H136.695Z" fill="#FFF8EB"/>
<path d="M128.632 84.8641C124.599 90.3129 118.114 94.8021 110.972 94.5825C107.797 94.4861 104.637 93.5189 102.04 91.7232C99.0995 89.6886 97.3524 86.8217 96.5519 83.4152C96.017 81.1417 95.6745 78.8181 95.2627 76.5214L93.9465 69.146C93.7426 68.0054 91.9223 68.2597 92.1263 69.4042C92.9498 74.0206 93.6271 78.6909 94.6393 83.2688C95.4667 87.0105 97.1522 90.2628 100.258 92.6673C106.038 97.145 114.02 97.3647 120.462 94.1625C124.31 92.2511 127.577 89.3534 130.102 85.9469C130.795 85.0105 129.325 83.9316 128.628 84.8718L128.632 84.8641Z" fill="#26241F"/>
<path d="M114.255 75.0725C114.086 74.4521 113.743 73.8702 113.366 73.5658C112.946 73.2267 112.319 73.034 111.78 73.1496C111.388 73.2344 111.065 73.4001 110.891 73.7816C110.626 74.0359 110.48 74.3442 110.534 74.6833C110.711 75.8201 112.219 78.1514 113.728 77.1919C114.401 76.7642 114.478 75.8817 114.255 75.0725Z" fill="#26241F"/>
<path d="M101.674 79.0068C101.505 78.3864 101.162 77.8046 100.785 77.5001C100.365 77.161 99.7381 76.9684 99.1994 77.084C98.8068 77.1687 98.4836 77.3344 98.3104 77.7159C98.0449 77.9702 97.8986 78.2785 97.9525 78.6176C98.1295 79.7544 99.6381 82.0857 101.147 81.1262C101.82 80.6985 101.893 79.816 101.674 79.0068Z" fill="#26241F"/>
<path d="M111.487 86.7946C111.445 86.5672 111.329 86.336 111.129 86.205C110.918 86.0624 110.702 86.02 110.448 86.0355C109.232 86.0971 108.081 86.4979 107.046 87.1144C106.858 87.2262 106.719 87.5152 106.696 87.7233C106.673 87.9391 106.738 88.2088 106.885 88.3745C107.042 88.5556 107.258 88.6982 107.508 88.7174C107.754 88.7329 107.951 88.6635 108.162 88.5402C108.543 88.3283 109.009 88.1394 109.49 88.0007C109.89 87.9044 110.298 87.8389 110.714 87.8157C110.937 87.8042 111.191 87.6308 111.318 87.4651C111.453 87.2878 111.533 87.0181 111.491 86.7984L111.487 86.7946Z" fill="#26241F"/>
<path d="M213.173 167.277C211.157 173.185 206.342 177.863 200.154 179.47C193.851 181.103 186.962 179.481 182.259 175.042C179.712 172.634 177.788 169.728 175.917 166.803C173.797 163.489 171.684 160.179 169.594 156.846C165.373 150.103 161.274 143.278 157.58 136.234C154.259 129.907 150.426 122.809 151.815 115.46C152.427 112.227 154.051 109.345 156.648 107.237C159.111 105.241 162.152 104.069 165.207 103.264C171.165 101.688 179.87 100.389 183.991 106.085C185.099 106.802 186.131 107.622 187.085 108.539C189.579 110.929 191.507 113.788 193.316 116.693C195.355 119.965 197.318 123.283 199.223 126.624C203.137 133.506 206.777 140.534 210.122 147.69C211.715 151.093 213.42 154.557 214.005 158.287C214.478 161.289 214.151 164.391 213.17 167.273L213.173 167.277Z" fill="#FFF8EB"/>
<path d="M193.346 114.285C192.838 114.586 192.334 114.882 191.826 115.183C179.935 122.235 168.047 129.283 156.155 136.334C155.863 136.508 155.547 136.508 155.293 136.4C155.047 136.419 154.797 136.311 154.612 136.022C152.842 133.182 151.072 130.338 149.394 127.445C146.273 122.065 143.464 116.154 141.993 110.12C140.577 104.309 139.022 98.8328 141.22 92.9332C143.725 86.2128 149.205 82.055 156.225 80.7024C160.096 79.9587 163.956 80.3132 167.377 82.3247C170.629 84.236 173.408 87.0876 175.975 89.7888C181.189 95.2568 185.549 101.442 189.498 107.827C190.502 109.449 191.484 111.087 192.449 112.728C192.757 113.245 193.058 113.765 193.35 114.285H193.346Z" fill="#FFC65E"/>
<path d="M162.04 132.277C156.964 125.055 151.587 118.038 145.923 111.245C145.176 110.347 143.721 111.449 144.472 112.347C150.137 119.14 155.513 126.154 160.589 133.375C161.262 134.331 162.709 133.225 162.043 132.273L162.04 132.277Z" fill="#26241F"/>
<path d="M204.603 168.738C204.156 170.888 203.34 173.015 201.963 174.776C200.5 176.637 198.503 177.766 196.179 178.294C194.909 178.587 193.604 178.714 192.307 178.834C191.014 178.953 189.69 179.038 188.397 178.845C185.977 178.491 184.06 177.104 182.405 175.42C180.543 173.52 178.888 171.42 177.16 169.412C175.29 167.243 173.427 165.081 171.564 162.911C169.702 160.742 167.839 158.576 165.977 156.411C164.329 154.495 162.682 152.573 161.301 150.461C159.915 148.345 158.892 146.107 158.268 143.667C157.606 141.097 157.368 138.45 157.091 135.818C156.944 134.469 156.802 133.128 156.663 131.779C156.529 130.523 156.271 129.217 156.356 127.945C156.425 126.92 156.894 125.926 157.876 125.46C158.01 125.398 158.137 125.352 158.272 125.317C158.476 125.001 158.853 124.828 159.3 125.04C160.493 125.61 161.682 126.184 162.871 126.778C167.674 129.178 172.384 131.768 176.89 134.677C181.524 137.679 185.861 141.062 190.063 144.608C192.157 146.38 194.216 148.184 196.282 149.995C198.157 151.64 200.088 153.282 201.632 155.247C204.626 159.062 205.584 164.048 204.599 168.73L204.603 168.738Z" fill="#FFF8EB"/>
<path d="M169.336 144.897C168.093 147.659 165.415 149.286 162.432 149.756C159.196 150.253 156.017 149.359 153.131 147.96C149.89 146.38 146.966 144.226 143.633 142.82C141.936 142.107 140.142 141.579 138.28 141.521C136.479 141.463 134.762 141.976 133.073 142.534C131.399 143.078 129.686 143.679 127.901 143.764C126.608 143.825 124.891 143.452 124.649 141.96C124.414 140.565 125.519 138.862 126.427 137.868C126.796 137.456 127.204 137.082 127.647 136.754C127.566 136.438 127.647 136.088 127.958 135.86C128.632 135.363 129.336 134.943 130.071 134.577C129.463 134.612 128.863 134.673 128.262 134.75C126.969 134.92 125.696 135.174 124.433 135.506C123.271 135.81 122.113 136.13 120.885 136.076C118.761 135.98 116.829 134.488 116.933 132.284C116.998 130.943 117.691 129.895 118.622 129.036C118.488 129.036 118.361 129.028 118.226 129.013C117.391 128.897 116.633 128.473 116.086 127.845C115.059 126.666 115.193 125.067 116.044 123.884C115.436 122.944 115.528 121.776 115.774 120.728C115.855 120.381 116.067 120.158 116.313 120.046C116.633 118.944 117.587 118.169 118.572 117.614C121.016 116.231 123.868 115.661 126.646 115.41C132.423 114.894 138.287 115.776 143.648 117.93C143.729 117.961 143.794 118.003 143.856 118.046C145.742 118.508 147.57 119.194 149.278 120.096C150.883 120.659 152.484 121.233 154.058 121.857C157.452 123.198 160.835 124.786 163.671 127.074C166.231 129.136 168.297 131.772 169.352 134.866C170.425 137.999 170.729 141.81 169.332 144.9L169.336 144.897Z" fill="#FFF8EB"/>
<path d="M144.61 143.61C140.958 142.581 137.075 142.496 133.373 143.34C131.772 143.706 130.248 144.396 128.62 144.604C127.266 144.777 125.472 144.746 124.345 143.872C123.217 142.989 123.31 141.459 123.66 140.222C124.056 138.851 124.934 137.66 125.969 136.677C126.869 135.822 127.851 135.151 128.89 134.627C131.218 133.452 133.839 133.047 136.506 133.02C139.023 132.99 141.586 133.302 143.991 133.649C145.161 133.822 144.953 135.606 143.783 135.44C142.182 135.205 140.562 134.974 138.93 134.859C137.987 134.785 137.037 134.751 136.094 134.781C135.409 134.801 134.739 134.847 134.074 134.936C131.403 135.282 128.682 136.354 126.842 138.35C126.027 139.244 125.349 140.338 125.268 141.567C125.226 142.215 125.422 142.55 126.084 142.716C126.765 142.897 127.524 142.908 128.224 142.835C129.629 142.681 130.949 142.111 132.303 141.756C133.739 141.371 135.209 141.128 136.69 141.024C139.6 140.82 142.486 141.14 145.288 141.922C146.427 142.246 145.742 143.918 144.614 143.598L144.61 143.61Z" fill="#26241F"/>
<path d="M141.489 127.626C137.868 127.028 134.181 126.901 130.529 127.283C127.412 127.61 124.133 128.192 121.239 129.429C120.027 129.945 118.83 130.704 118.28 131.934C118.033 132.485 117.906 133.101 118.03 133.695C118.195 134.462 118.661 134.804 119.434 134.905C121.008 135.113 122.701 134.882 124.187 134.354C125.657 133.837 126.989 133.097 128.551 132.862C130.125 132.623 131.772 132.708 133.361 132.778C134.408 132.824 135.455 132.909 136.506 133.024C137.156 133.09 137.802 133.174 138.453 133.263C139.334 133.39 139.434 134.431 138.93 134.862C137.987 134.789 137.037 134.754 136.094 134.785C134.604 134.631 133.127 134.539 131.653 134.515C130.733 134.496 129.802 134.496 128.89 134.631C128.774 134.643 128.663 134.662 128.547 134.685C127.531 134.866 126.619 135.321 125.68 135.714C124.064 136.384 122.355 136.75 120.596 136.758C118.899 136.766 117.202 136.488 116.475 134.793C115.189 131.814 117.714 129.044 120.312 127.876C121.905 127.155 123.664 126.72 125.365 126.331C127.116 125.922 128.901 125.641 130.694 125.468C134.366 125.121 138.072 125.244 141.705 125.845C142.875 126.03 142.667 127.822 141.497 127.629L141.489 127.626Z" fill="#26241F"/>
<path d="M141.301 120.015C135.779 118.828 130.037 118.242 124.411 119.075C121.871 119.452 119.042 119.996 116.933 121.522C115.098 122.847 113.893 125.209 114.643 127.429C115.39 129.641 118.145 130.685 120.174 129.491C121.186 128.893 120.478 127.83 119.473 128.419C118.657 128.897 117.095 128.003 116.614 127.306C115.987 126.404 116.241 125.182 116.772 124.296C118.095 122.096 121.174 121.475 123.537 121.04C129.363 119.965 135.344 120.562 141.089 121.799C142.244 122.046 142.444 120.262 141.297 120.015H141.301Z" fill="#26241F"/>
<path d="M197.953 150.496C188.809 141.575 178.534 133.802 167.37 127.444C161.778 124.261 155.979 121.402 150.006 118.963C143.76 116.412 137.11 114.37 130.275 114.412C126.569 114.435 122.86 115.021 119.427 116.416C117.918 117.028 116.317 117.83 115.398 119.206C114.474 120.581 114.358 122.25 115.232 123.66C115.844 124.651 117.291 123.537 116.683 122.558C115.956 121.383 116.895 119.984 117.845 119.271C119.023 118.385 120.531 117.869 121.928 117.425C124.888 116.485 128.055 116.127 131.16 116.208C137.618 116.373 143.822 118.362 149.721 120.797C160.885 125.406 171.445 131.41 181.116 138.546C186.539 142.546 191.684 146.908 196.494 151.601C196.848 151.948 197.353 152.079 197.784 151.759C198.141 151.494 198.295 150.842 197.945 150.499L197.953 150.496Z" fill="#26241F"/>
<path d="M164.534 150.168C163.829 150.353 163.118 150.469 162.409 150.527C161.57 150.6 160.72 150.588 159.873 150.507C157.784 150.315 155.721 149.717 153.797 148.92C150.372 147.513 147.151 145.563 144.253 143.301C143.329 142.577 144.426 141.14 145.35 141.856C148.063 143.972 151.03 145.798 154.216 147.139C155.983 147.883 157.838 148.457 159.719 148.673C160.039 148.708 160.351 148.735 160.67 148.75C161.871 148.804 163.079 148.696 164.28 148.384C165.427 148.083 165.669 149.864 164.545 150.164L164.534 150.168Z" fill="#26241F"/>
<path d="M213.05 170.144C210.776 175.123 206.508 178.984 201.22 180.749C195.898 182.529 190.145 182.047 185.369 179.084C180.266 175.909 176.906 170.734 173.347 166.098C169.167 160.646 164.665 155.447 159.87 150.511C159.704 150.33 159.531 150.156 159.362 149.983C158.877 149.486 159.196 148.893 159.712 148.677C160.031 148.711 160.343 148.738 160.662 148.754C160.716 148.785 160.766 148.831 160.816 148.881C161.351 149.424 161.882 149.979 162.41 150.526C167.058 155.401 171.434 160.53 175.498 165.898C178.792 170.26 182.017 175.027 186.874 177.886C191.346 180.514 196.853 180.599 201.621 178.683C206.547 176.707 210.241 172.795 211.992 167.89C213.835 162.738 213.512 156.958 211.372 151.944C210.918 150.877 212.612 150.176 213.062 151.243C215.606 157.197 215.763 164.214 213.05 170.148V170.144Z" fill="#26241F"/>
<path d="M211.195 151.833C207.189 143.69 203.029 135.621 198.696 127.645C196.448 123.499 194.193 119.314 191.826 115.187C192.334 114.886 192.838 114.589 193.346 114.289C196.067 118.975 198.657 123.73 201.224 128.493C205.257 135.968 209.14 143.521 212.884 151.135C213.4 152.183 211.703 152.877 211.195 151.837V151.833Z" fill="#26241F"/>
<path d="M129.648 100.505C126.869 98.0005 124.091 95.4957 121.312 92.9871C120.947 92.6596 120.3 92.8099 120.027 93.1682C119.704 93.5921 119.846 94.0969 120.212 94.4245C122.99 96.9292 125.769 99.4339 128.547 101.943C128.913 102.274 129.559 102.12 129.832 101.761C130.156 101.338 130.013 100.833 129.648 100.505Z" fill="#26241F"/>
<path d="M133.589 71.1151C133.246 70.7182 132.731 70.6797 132.3 70.9571C130.849 71.8896 129.702 73.1998 128.909 74.7026C128.809 74.8915 128.836 75.192 128.917 75.3808C129.006 75.5851 129.209 75.7932 129.429 75.8664C129.941 76.0359 130.383 75.8047 130.618 75.3577C130.66 75.2768 130.71 75.1997 130.749 75.1188C130.622 75.3808 130.753 75.1188 130.795 75.0456C130.895 74.8837 131.003 74.7219 131.114 74.5639C131.33 74.2595 131.569 73.9666 131.823 73.6892C131.88 73.6237 131.942 73.562 132 73.5004C132.207 73.3038 132.346 73.1805 132.484 73.0611C132.781 72.8145 133.093 72.5833 133.42 72.3752C133.824 72.117 133.885 71.4619 133.581 71.1151H133.589Z" fill="#26241F"/>
<path d="M114.794 67.9397C110.803 67.9397 107.559 71.1226 107.559 75.0339C107.559 78.9451 110.803 82.128 114.794 82.128C118.784 82.128 122.028 78.9451 122.028 75.0339C122.028 71.1226 118.784 67.9397 114.794 67.9397ZM114.794 80.4248C111.742 80.4248 109.26 78.0049 109.26 75.0339C109.26 72.0629 111.742 69.6429 114.794 69.6429C117.845 69.6429 120.328 72.0629 120.328 75.0339C120.328 78.0049 117.845 80.4248 114.794 80.4248Z" fill="#FFC65E"/>
<path d="M97.4947 73.1611C93.8233 73.1611 90.8408 76.0897 90.8408 79.6888C90.8408 83.2879 93.8272 86.2166 97.4947 86.2166C101.162 86.2166 104.148 83.2879 104.148 79.6888C104.148 76.0897 101.162 73.1611 97.4947 73.1611ZM97.4947 84.5095C94.7623 84.5095 92.5418 82.3477 92.5418 79.685C92.5418 77.0223 94.7623 74.8605 97.4947 74.8605C100.227 74.8605 102.448 77.0223 102.448 79.685C102.448 82.3477 100.227 84.5095 97.4947 84.5095Z" fill="#FFC65E"/>
<path d="M106.905 82.3901C106.778 81.5886 106.635 80.7909 106.374 80.0202C106.112 79.238 105.673 78.5212 105.211 77.8353C104.307 76.4866 103.237 75.2728 102.059 74.1476C101.705 73.8085 101.044 73.978 100.774 74.3287C100.443 74.7603 100.605 75.2458 100.959 75.5849C101.979 76.5598 102.891 77.6581 103.68 78.8218C104.061 79.3805 104.403 79.9547 104.63 80.5905C104.869 81.2533 104.969 81.9585 105.08 82.6482C105.265 83.7927 107.085 83.5345 106.901 82.3901H106.905Z" fill="#26241F"/>
<path d="M135.248 66.618C133.485 65.8705 131.368 66.1672 129.767 67.1498C127.751 68.3867 126.577 70.6102 125.954 72.7874C125.819 73.2536 125.981 73.7661 126.473 73.9511C126.9 74.1129 127.528 73.9126 127.662 73.4424C128.447 70.7065 130.526 67.327 133.962 68.09C137.549 68.8877 136.514 73.9704 135.001 76.1052C133.893 77.6697 132.184 78.6985 130.241 78.8796C129.059 78.9914 129.329 80.7678 130.502 80.6599C135.14 80.2283 138.257 75.951 138.199 71.5774C138.172 69.4965 137.291 67.4812 135.244 66.618H135.248Z" fill="#26241F"/>
<path d="M120.023 48.3488C119.28 49.343 118.876 50.4875 118.645 51.6859C117.879 53.4546 117.352 55.3043 117.187 57.2618C117.029 59.1384 117.163 61.0536 117.61 62.8801C117.621 62.9225 117.633 62.9687 117.648 63.0111C108.585 65.3116 99.7881 68.5523 91.4333 72.6986C90.6059 73.111 89.7785 73.531 88.9588 73.9626C87.7773 71.0108 87.5079 67.7817 88.0506 64.6604C89.0011 59.2579 92.2453 54.5914 96.3707 50.9923C99.6957 48.0906 103.967 45.5512 108.482 44.6495C109.952 44.3567 122.578 44.9385 120.027 48.3488H120.023Z" fill="#26241F"/>
<path d="M138.126 67.273C138.126 68.0322 137.195 68.194 136.667 67.8973C133.539 66.1016 129.236 67.4002 127.439 70.3905C127.2 70.7912 126.508 70.8567 126.154 70.5716C121.174 66.5216 118.203 60.3561 117.999 54.075C117.245 52.9113 116.49 51.7514 115.763 50.5761C114.855 49.108 114.42 47.5627 115.309 45.9751C117.075 42.823 121.081 43.0388 124.083 44.0831C126.989 45.0965 129.559 46.873 131.661 49.0617C136.356 53.9479 138.161 60.7183 138.126 67.2769V67.273Z" fill="#26241F"/>
<path d="M148.971 83.2149C147.366 84.7794 145.858 86.4633 144.607 88.3168C143.383 90.1395 142.61 92.0778 142.063 94.1817C141.59 96.0083 140.624 97.9273 138.423 97.9928C136.148 98.0699 134.551 96.2626 133.878 94.3012C132.277 89.6694 133.909 84.6214 132.273 80.0127C131.919 79.0185 133.301 78.3403 133.836 79.0724C134.651 77.9472 135.452 76.8143 136.287 75.7045C137.207 74.483 138.38 74.3134 139.847 74.1516C142.525 73.8472 145.473 73.6237 148.148 74.0861C150.041 74.4098 151.969 75.4117 152.223 77.4656C152.516 79.9202 150.568 81.635 148.971 83.211V83.2149Z" fill="#26241F"/>
<path d="M114.389 39.5707C114.104 39.4166 113.635 39.3934 113.385 39.6401C113.138 39.879 112.911 40.1333 112.696 40.3992C112.657 40.272 112.623 40.141 112.576 40.0138C112.446 39.6555 111.98 39.405 111.599 39.4744C111.176 39.5514 110.895 39.852 110.818 40.2605C110.568 41.5706 110.733 42.9502 111.256 44.1794C111.441 44.6148 112.015 44.8653 112.461 44.6572C112.584 44.5994 112.688 44.5224 112.773 44.4299C112.83 44.4029 112.884 44.3682 112.938 44.322C114.062 43.3316 114.793 41.9406 114.862 40.4531C114.878 40.0871 114.731 39.7595 114.393 39.5745L114.389 39.5707Z" fill="#26241F"/>
<path d="M216.329 82.1127C214.847 80.8988 212.954 80.0665 211.011 79.9586C209.968 79.9008 208.983 80.0704 207.982 80.3401C206.993 80.6098 205.938 81.0106 204.896 80.9644C202.406 80.8565 203.406 77.739 203.78 76.2901C204.345 74.0898 204.399 71.8047 203.78 69.6083C202.637 65.566 199.027 62.1904 194.624 61.9438C192.265 61.8128 190.029 62.5989 187.793 63.2077C185.781 63.7549 183.653 64.1364 181.674 63.2655C178.742 61.9785 177.195 58.653 175.602 56.1251C174.717 54.7186 173.77 53.3468 172.562 52.1831C171.076 50.7535 169.271 49.8325 167.224 49.4279C162.34 48.4645 157.649 50.503 152.958 51.4818C148.382 52.4335 143.772 51.7746 139.97 48.9924C139.073 48.3373 138.273 47.5898 137.549 46.7574C136.787 45.875 135.332 46.9771 136.098 47.8595C138.896 51.0887 142.921 53.2081 147.232 53.6589C152.2 54.1792 156.729 52.0405 161.528 51.2505C163.683 50.896 165.989 50.7997 168.082 51.501C169.795 52.0752 171.141 53.1657 172.258 54.5298C174.328 57.0577 175.586 60.1481 177.807 62.5642C178.861 63.7087 180.131 64.6913 181.644 65.1807C183.718 65.855 185.85 65.566 187.917 65.0189C190.022 64.4601 192.196 63.6046 194.416 63.7241C196.448 63.8358 198.392 64.7761 199.796 66.2057C201.351 67.7856 202.182 69.8742 202.367 72.0437C202.463 73.1612 202.367 74.2941 202.125 75.3923C201.909 76.3711 201.586 77.3267 201.467 78.3209C201.236 80.263 202.032 82.2437 204.172 82.6791C206.246 83.0992 208.174 81.8545 210.206 81.7427C213.966 81.5347 217.461 84.7523 218.092 88.2627C218.781 92.0969 216.321 95.8155 213.093 97.7846C212.261 98.2894 211.353 98.667 210.418 98.9445C209.287 99.2836 210.014 100.937 211.134 100.601C214.948 99.457 218.265 96.4551 219.504 92.7135C220.793 88.8215 219.531 84.7292 216.333 82.1088L216.329 82.1127Z" fill="#26241F"/>
<path d="M21.543 142.635C20.223 141.933 18.6567 142.08 17.406 142.789C16.4709 142.874 15.8166 143.694 15.4895 144.492C15.1816 145.244 15.047 146.091 15.1201 146.897C15.2047 147.783 15.6627 148.631 16.4555 149.093C16.8518 149.324 17.2752 149.463 17.7177 149.583C18.2719 149.733 18.8376 149.883 19.4149 149.929C20.4347 150.014 21.4468 149.794 22.2588 149.166C22.9207 148.654 23.4249 147.922 23.6404 147.12C24.1253 145.324 23.1863 143.502 21.5469 142.627L21.543 142.635ZM21.9009 146.565C21.8586 146.708 21.8393 146.766 21.8201 146.823C21.6969 147.139 21.67 147.19 21.4276 147.479C21.162 147.795 20.7079 148.072 20.25 148.137C19.538 148.242 18.7953 148.037 18.1141 147.837C17.8216 147.752 17.5176 147.648 17.3329 147.513C17.3098 147.498 17.2444 147.432 17.2328 147.425C17.0827 147.217 17.052 147.136 17.0212 147.059C16.9827 146.908 16.9634 146.82 16.9557 146.735C16.9481 146.677 16.9442 146.615 16.9404 146.558C16.9557 146.245 16.9673 146.064 16.9981 145.879C17.0096 145.818 17.0212 145.76 17.0327 145.698C17.102 145.44 17.1482 145.309 17.1982 145.182C17.3675 145.124 17.5215 145.02 17.6408 144.877C17.6292 144.889 17.7139 144.797 17.7485 144.758C17.787 144.723 17.8794 144.635 17.8678 144.646C17.9756 144.554 18.091 144.469 18.2103 144.388C18.2296 144.377 18.3104 144.326 18.3258 144.319C18.3719 144.296 18.4181 144.272 18.4643 144.249C18.6221 144.176 18.7876 144.111 18.9531 144.061C19.1147 144.026 19.1763 144.014 19.2378 144.003C19.2994 143.991 19.3648 143.983 19.4264 143.98C19.4226 143.98 19.5726 143.972 19.6073 143.968C19.7227 143.968 19.8382 143.976 19.9536 143.991C20.0306 143.999 20.1114 144.014 20.1884 144.03C20.2461 144.045 20.2846 144.057 20.3231 144.068C20.4578 144.111 20.5848 144.165 20.7118 144.226C20.8465 144.307 20.9119 144.35 20.9735 144.396C21.0235 144.43 21.0735 144.469 21.1197 144.508C21.1081 144.5 21.1967 144.577 21.239 144.612C21.2736 144.65 21.3583 144.735 21.3467 144.723C21.4083 144.793 21.466 144.866 21.5238 144.939C21.5507 144.974 21.6508 145.136 21.6623 145.147C21.7316 145.274 21.7855 145.405 21.8393 145.54C21.8817 145.664 21.8971 145.733 21.9086 145.802C21.924 145.876 21.9278 145.953 21.9394 146.03C21.9394 146.303 21.924 146.438 21.8971 146.573L21.9009 146.565Z" fill="#F49D9D"/>
<path d="M21.2932 154.785C20.231 154.268 18.9572 154.268 17.845 154.677C17.7027 154.661 17.5564 154.677 17.4256 154.75C15.5014 155.736 14.5162 157.883 15.1627 159.933C15.7708 161.867 17.7527 163.116 19.7962 162.896C21.7165 162.692 23.3559 161.281 23.6869 159.409C24.0101 157.567 23.0019 155.617 21.297 154.788L21.2932 154.785ZM21.8781 159.077C21.8704 159.147 21.8551 159.216 21.8435 159.289C21.7742 159.517 21.7088 159.675 21.6357 159.829C21.551 159.964 21.4933 160.044 21.4317 160.125C21.3779 160.195 21.3201 160.256 21.2624 160.322C21.0738 160.48 20.9661 160.572 20.8468 160.657C20.8391 160.661 20.7352 160.726 20.7082 160.746C20.6467 160.78 20.5851 160.811 20.5235 160.842C20.3657 160.915 20.2003 160.977 20.0348 161.031C19.8347 161.073 19.75 161.093 19.6653 161.104C19.6076 161.112 19.5499 161.12 19.4922 161.123C19.4845 161.123 19.3805 161.131 19.3382 161.135C19.1766 161.135 19.015 161.123 18.8572 161.1C18.8148 161.093 18.7725 161.085 18.7263 161.077C18.7764 161.085 18.5262 161.019 18.4954 161.008C18.1221 160.877 18.0375 160.823 17.7257 160.572C17.7257 160.572 17.6103 160.468 17.5872 160.453C17.5295 160.395 17.4756 160.337 17.4217 160.276C17.3794 160.226 17.3409 160.175 17.3024 160.125C17.287 160.102 17.1716 159.933 17.1523 159.913C17.0523 159.744 16.9676 159.555 16.9022 159.37C16.8522 159.231 16.8291 159.127 16.7983 158.904C16.7637 158.63 16.7983 158.179 16.883 157.96C16.9484 157.786 16.9984 157.663 17.0523 157.547C17.0985 157.505 17.1446 157.459 17.1793 157.405C17.2755 157.258 17.3794 157.127 17.491 156.993C17.6064 156.885 17.6488 156.846 17.695 156.811C17.7642 156.757 17.8335 156.707 17.9028 156.657C17.9105 156.653 17.9951 156.599 18.0336 156.576C18.1722 156.499 18.3184 156.434 18.4685 156.376C18.5339 156.353 18.5993 156.33 18.6647 156.31C18.684 156.31 18.8225 156.272 18.8302 156.268C18.9726 156.237 19.1189 156.218 19.2651 156.203C19.2728 156.203 19.4036 156.195 19.4306 156.195C19.4998 156.195 19.5691 156.195 19.6422 156.203C19.7307 156.21 19.8154 156.218 19.9039 156.233C19.9078 156.233 20.0117 156.253 20.054 156.26C20.2079 156.299 20.3619 156.353 20.5081 156.418C20.5197 156.426 20.6544 156.495 20.6621 156.495C20.8814 156.638 21.0084 156.738 21.1239 156.846C21.1508 156.877 21.2162 156.946 21.2239 156.954C21.2816 157.019 21.3355 157.085 21.3856 157.154C21.4279 157.208 21.4625 157.262 21.501 157.32C21.5125 157.339 21.578 157.455 21.5818 157.463C21.6472 157.59 21.705 157.721 21.755 157.856C21.755 157.86 21.7973 157.983 21.805 158.01C21.8204 158.075 21.8397 158.145 21.8512 158.214C21.882 158.368 21.8974 158.526 21.9051 158.684C21.9051 158.727 21.9051 158.831 21.9051 158.838C21.9012 158.923 21.8935 159.008 21.882 159.093L21.8781 159.077Z" fill="#F49D9D"/>
<path d="M21.0432 183.119C19.981 182.602 18.7072 182.602 17.595 183.011C17.4527 182.995 17.3064 183.011 17.1756 183.084C15.2514 184.071 14.2662 186.217 14.9127 188.267C15.5208 190.201 17.5027 191.45 19.5462 191.234C21.4665 191.03 23.1059 189.619 23.4369 187.747C23.7601 185.905 22.7519 183.955 21.047 183.126L21.0432 183.119ZM21.6281 187.411C21.6204 187.481 21.6051 187.55 21.5935 187.623C21.5242 187.851 21.4588 188.009 21.3857 188.163C21.301 188.298 21.2433 188.379 21.1817 188.46C21.1279 188.529 21.0701 188.591 21.0124 188.656C20.8238 188.814 20.7161 188.907 20.5968 188.991C20.5891 188.995 20.4852 189.061 20.4582 189.08C20.3967 189.115 20.3351 189.146 20.2735 189.176C20.1157 189.25 19.9503 189.311 19.7848 189.365C19.5847 189.408 19.5 189.427 19.4153 189.438C19.3576 189.446 19.2999 189.454 19.2422 189.458C19.2345 189.458 19.1305 189.465 19.0882 189.469C18.9266 189.469 18.765 189.458 18.6072 189.435C18.5648 189.427 18.5225 189.419 18.4763 189.411C18.5264 189.419 18.2762 189.354 18.2454 189.346C17.8721 189.215 17.7875 189.161 17.4757 188.91C17.4757 188.91 17.3603 188.806 17.3372 188.791C17.2795 188.733 17.2256 188.675 17.1717 188.614C17.1294 188.564 17.0909 188.517 17.0524 188.463C17.037 188.44 16.9216 188.271 16.9023 188.252C16.8023 188.082 16.7176 187.893 16.6522 187.708C16.6022 187.569 16.5791 187.465 16.5483 187.242C16.5137 186.968 16.5483 186.517 16.633 186.298C16.6984 186.124 16.7484 186.001 16.8023 185.886C16.8485 185.843 16.8946 185.797 16.9293 185.743C17.0255 185.596 17.1294 185.465 17.241 185.331C17.3564 185.223 17.3988 185.184 17.445 185.15C17.5104 185.096 17.5835 185.045 17.6528 184.995C17.6605 184.992 17.7451 184.938 17.7836 184.914C17.9222 184.837 18.0684 184.772 18.2185 184.714C18.2839 184.691 18.3493 184.668 18.4147 184.649C18.434 184.649 18.5725 184.61 18.5802 184.606C18.7226 184.575 18.8689 184.556 19.0151 184.545C19.0228 184.545 19.1536 184.537 19.1806 184.537C19.2498 184.537 19.3191 184.537 19.3922 184.545C19.4807 184.552 19.5654 184.56 19.6539 184.575C19.6578 184.575 19.7617 184.595 19.804 184.602C19.9579 184.641 20.1119 184.695 20.2581 184.76C20.2697 184.768 20.4044 184.837 20.4121 184.837C20.6314 184.98 20.7584 185.08 20.8739 185.188C20.9008 185.219 20.9662 185.288 20.9739 185.296C21.0316 185.361 21.0855 185.427 21.1356 185.496C21.174 185.55 21.2125 185.604 21.251 185.662C21.2625 185.681 21.328 185.797 21.3318 185.805C21.3972 185.932 21.455 186.063 21.505 186.198C21.505 186.205 21.5473 186.325 21.555 186.352C21.5704 186.417 21.5897 186.487 21.6012 186.556C21.632 186.71 21.6474 186.868 21.6551 187.026C21.6551 187.069 21.6551 187.173 21.6551 187.18C21.6512 187.265 21.6435 187.35 21.632 187.435L21.6281 187.411Z" fill="#F49D9D"/>
<path d="M23.8987 171.397C24.5068 175.84 19.9696 177.99 17.0025 176.549C14.882 175.52 14.4163 172.668 15.0475 170.626C16.4213 166.179 23.2907 166.957 23.8987 171.397Z" fill="#F49D9D"/>
<path d="M23.6634 199.319C24.2714 203.762 19.7342 205.912 16.7671 204.471C14.6466 203.442 14.181 200.59 14.8121 198.548C16.186 194.101 23.0553 194.88 23.6634 199.319Z" fill="#F49D9D"/>
<path d="M55.4203 148.87C54.6121 149.151 53.5269 149.043 52.6764 149.085C51.8105 149.128 50.9485 149.17 50.0865 149.201C46.3497 149.344 42.6052 149.405 38.8684 149.371C37.8987 149.363 36.9327 149.347 35.9706 149.328C35.2779 149.309 34.4274 149.413 33.8309 148.993C33.1882 148.538 33.169 147.795 33.1151 147.089L32.9189 144.527C32.865 143.791 33.5885 143.425 34.1388 143.552C38.4028 143.182 42.6014 143.024 46.7961 143.078C48.6087 143.101 50.4174 143.167 52.2185 143.271C53.7501 143.359 55.5627 143.14 56.1284 144.866C56.4825 145.976 56.9173 148.365 55.4242 148.881L55.4203 148.87Z" fill="#F49D9D"/>
<path d="M62.9408 170.734C62.2443 169.007 60.0084 169.231 58.1188 169.138C55.8983 169.038 53.6663 168.969 51.4304 168.946C48.4017 168.915 45.3692 168.953 42.3405 169.065C40.2393 169.142 36.3871 168.375 34.713 170.021C33.4469 171.269 33.7663 174.464 35.5712 175.115C36.0253 175.281 36.4871 175.281 36.9643 175.273C37.3992 175.265 37.8379 175.258 38.2728 175.246C38.7846 175.235 39.2964 175.227 39.8044 175.215C40.4202 175.223 41.0321 175.235 41.6478 175.238C46.2581 175.273 50.8762 175.215 55.4865 175.069C56.5525 175.038 57.6185 174.996 58.6845 174.957C59.7352 174.915 61.0744 175.023 62.0711 174.741C63.9145 174.225 63.3796 171.836 62.9408 170.726V170.734Z" fill="#F49D9D"/>
<path d="M124.433 146.916C124.41 147.968 123.552 148.804 122.355 149.151C121.162 149.505 119.869 149.451 118.618 149.436C116.836 149.417 115.051 149.398 113.269 149.382C106.18 149.301 99.0993 149.228 92.0145 149.151C88.4432 149.116 84.8757 149.078 81.3121 149.043C79.9691 149.028 78.4682 149.055 77.3175 148.407C77.1944 148.361 77.0712 148.292 76.9673 148.191C76.4401 147.771 76.0899 147.278 75.9821 146.742C75.5858 145.779 75.5973 144.716 76.0437 143.733C76.2015 143.394 76.594 143.263 77.0058 143.259C85.0027 143.213 93.0035 143.278 100.993 143.456C108.07 143.61 115.147 143.856 122.217 144.184C122.682 144.203 123.117 144.184 123.448 144.492C123.664 144.692 123.798 144.993 123.933 145.232C124.233 145.76 124.452 146.326 124.437 146.916H124.433Z" fill="#F49D9D"/>
<path d="M125.511 159.062C125.488 160.114 124.718 160.95 123.645 161.297C122.571 161.651 121.409 161.597 120.285 161.582C118.684 161.563 117.079 161.543 115.478 161.528C109.109 161.447 102.744 161.374 96.3751 161.297C93.1656 161.262 89.9599 161.224 86.7542 161.189C85.5497 161.174 84.1989 161.201 83.1637 160.553C83.0521 160.507 82.9443 160.438 82.8481 160.337C82.3747 159.917 82.0592 159.424 81.963 158.888C81.6051 157.925 81.6166 156.862 82.0168 155.879C82.1592 155.54 82.5133 155.409 82.8827 155.405C90.0676 155.359 97.2603 155.424 104.441 155.601C110.803 155.756 117.16 156.002 123.514 156.33C123.933 156.349 124.322 156.33 124.622 156.638C124.815 156.838 124.938 157.135 125.057 157.378C125.326 157.906 125.527 158.472 125.507 159.062H125.511Z" fill="#F49D9D"/>
<path d="M76.9179 200.201C76.8948 201.388 76.1367 202.328 75.0784 202.725C74.0201 203.126 72.8732 203.064 71.7649 203.045C70.1832 203.022 68.6054 202.999 67.0237 202.983C60.7432 202.895 54.4665 202.81 48.1898 202.725C45.0264 202.687 41.863 202.64 38.7035 202.602C37.5144 202.586 36.1828 202.613 35.163 201.885C35.0553 201.835 34.9475 201.754 34.8552 201.642C34.3895 201.168 34.0778 200.613 33.9816 200.008C33.6275 198.922 33.6391 197.723 34.0354 196.614C34.1778 196.232 34.5242 196.086 34.8898 196.078C41.9746 196.028 49.0672 196.101 56.1444 196.298C62.4172 196.471 68.6862 196.749 74.9514 197.118C75.3631 197.142 75.748 197.118 76.0443 197.469C76.2329 197.693 76.3522 198.032 76.4715 198.301C76.737 198.899 76.9333 199.535 76.9179 200.197V200.201Z" fill="#F49D9D"/>
<path d="M62.3747 157.864C62.3208 158.603 62.29 159.347 62.2246 160.091C62.163 160.765 61.6935 161.32 60.5275 161.42C59.346 161.517 58.0607 161.44 56.8715 161.451C51.5107 161.49 46.1577 161.524 40.7969 161.563C39.4422 161.574 38.0876 161.582 36.7291 161.594C35.8132 161.598 34.828 161.59 34.0468 161.239C33.0847 160.8 33.0309 160.099 32.9577 159.416C32.8808 158.657 32.8 157.894 32.723 157.131C32.6845 156.708 33.1386 156.434 33.662 156.345C34.4201 155.359 36.7214 155.282 38.3416 155.282C41.3318 155.293 44.3143 155.301 47.2929 155.313C49.8906 155.316 52.4805 155.328 55.0782 155.332C56.5021 155.336 57.9337 155.343 59.3576 155.347C60.3582 155.347 61.3703 155.336 62.0014 155.91C62.6133 156.469 62.4093 157.235 62.3709 157.871L62.3747 157.864Z" fill="#F49D9D"/>
<path d="M95.8592 172.757C95.1049 174.314 92.2456 173.994 90.5331 173.959C87.9547 173.909 84.7374 174.117 82.2167 173.767C81.4278 173.659 80.9429 173.304 80.7659 172.765C80.458 172.379 80.3387 171.875 80.231 171.424C79.95 170.164 80.4888 168.564 82.3553 168.31C85.8111 167.844 90.0597 167.956 93.4809 168.499C96.4172 168.965 96.829 170.749 95.8592 172.753V172.757Z" fill="#F49D9D"/>
<path d="M97.0946 201.661C96.3403 203.218 93.4809 202.898 91.7684 202.864C89.19 202.814 85.9728 203.022 83.4521 202.671C82.6632 202.563 82.1783 202.209 82.0012 201.669C81.6934 201.284 81.5741 200.779 81.4663 200.328C81.1854 199.068 81.7242 197.469 83.5906 197.215C87.0465 196.748 91.2951 196.86 94.7163 197.403C97.6526 197.87 98.0644 199.654 97.0946 201.658V201.661Z" fill="#F49D9D"/>
<path d="M125.915 169.489C125.588 168.638 124.819 168.564 123.864 168.564C122.667 168.568 121.47 168.572 120.274 168.58C118.03 168.588 115.786 168.595 113.543 168.603C111.222 168.607 108.902 168.657 106.581 168.626C104.449 168.595 100.751 168.21 100.578 170.603C100.489 171.84 100.47 173.971 102.028 174.622C103.06 175.05 104.972 174.795 106.119 174.826C110.791 174.965 115.471 175.081 120.135 174.699C121.767 174.564 123.98 174.857 125.315 173.952C126.75 172.973 126.454 170.884 125.911 169.489H125.915Z" fill="#F49D9D"/>
<path d="M124.506 197.184C124.222 196.332 123.56 196.259 122.732 196.255C121.697 196.259 120.662 196.263 119.623 196.271C117.683 196.278 115.74 196.286 113.8 196.294C111.795 196.298 109.782 196.351 107.777 196.317C105.934 196.286 102.732 195.904 102.582 198.294C102.505 199.531 102.49 201.662 103.837 202.313C104.729 202.74 106.384 202.486 107.377 202.517C111.422 202.656 115.47 202.771 119.503 202.39C120.916 202.255 122.828 202.548 123.987 201.642C125.23 200.663 124.972 198.575 124.502 197.18L124.506 197.184Z" fill="#F49D9D"/>
<path d="M179.3 4.90536C179.327 8.75109 178.734 12.5583 177.538 16.2152C174.005 15.063 170.468 13.9147 166.935 12.7625C166.412 12.593 165.712 12.8858 165.688 13.4985C165.508 17.7951 165.127 22.0801 164.522 26.3381C164.503 26.4653 164.492 27.2129 164.357 27.4094C164.368 27.3092 163.968 27.1782 163.903 27.1512C163.668 27.0626 163.433 26.9701 163.195 26.8815C162.16 26.4884 161.12 26.0915 160.085 25.6946C158.011 24.9047 155.941 24.1147 153.866 23.3248C153.174 23.0589 152.592 23.633 152.623 24.2881C152.789 28.0375 152.954 31.7908 153.12 35.5401C153.17 36.6962 154.99 36.4303 154.94 35.282C154.798 32.0181 154.651 28.7581 154.509 25.4942C156.429 26.2264 158.346 26.9585 160.266 27.6868C161.455 28.1416 162.652 28.7003 163.876 29.0548C164.811 29.3246 165.642 28.9739 166.031 28.0876C166.447 27.1397 166.439 25.9258 166.57 24.9124C166.728 23.687 166.866 22.4577 166.989 21.2285C167.201 19.0937 167.347 16.9512 167.455 14.8087L177.795 18.1766C178.253 18.3269 178.815 18.1458 178.985 17.6679C180.42 13.6218 181.159 9.3792 181.132 5.09418C181.124 3.95357 179.296 3.73392 179.304 4.88995L179.3 4.90536Z" fill="#F49D9D"/>
<path d="M155.467 12.6431C155.256 11.3368 155.044 10.0305 154.832 8.72416C154.401 6.06144 153.97 3.40257 153.539 0.739847C153.354 -0.404622 151.534 -0.146442 151.719 0.998027C152.454 5.54508 153.189 10.0921 153.928 14.6392C153.978 14.959 154.205 15.5948 154.02 15.9108C154.159 15.6757 153.928 15.7644 153.693 15.6989C153.404 15.6218 153.116 15.5255 152.831 15.4407C151.727 15.1131 150.626 14.7817 149.521 14.4542C147.22 13.7683 144.919 13.0824 142.617 12.3965C141.913 12.1845 141.07 12.8358 141.436 13.5833C143.41 17.6294 144.519 21.9877 144.726 26.4692C144.78 27.6252 146.601 27.3593 146.547 26.211C146.362 22.242 145.469 18.3308 143.93 14.6623C145.858 15.2365 147.786 15.8145 149.714 16.3886C150.999 16.7701 152.331 17.3135 153.651 17.5447C154.744 17.7335 155.683 17.1824 155.864 16.0765C156.041 14.9744 155.64 13.7298 155.467 12.6431Z" fill="#F49D9D"/>
<path d="M178.465 29.3168C175.286 31.8331 172.804 35.0815 171.222 38.7616C168.001 37.6325 165.038 35.9717 162.421 33.8022C162.032 33.4785 161.432 33.6249 161.135 33.9833L155.906 40.2798C155.159 41.1777 156.633 42.2528 157.376 41.3549C158.919 39.4976 160.462 37.6364 162.005 35.779C164.807 37.96 167.989 39.644 171.399 40.723C171.869 40.8694 172.407 40.6921 172.592 40.2143C174.028 36.4996 176.429 33.2319 179.588 30.7349C180.508 30.0066 179.381 28.5846 178.461 29.3129L178.465 29.3168Z" fill="#F49D9D"/>
<path d="M75.5783 86.3785C74.2198 83.7736 73.1269 81.0415 72.361 78.2131C72.184 77.5619 71.168 77.0532 70.7139 77.8047C69.0784 80.5213 67.9431 83.4654 67.3504 86.5481C62.8786 81.9086 58.403 77.269 53.9312 72.6295C53.2346 71.9051 51.9723 72.5332 52.3572 73.5312C54.9702 80.267 57.5871 86.999 60.2002 93.7347C57.4332 94.255 54.6277 94.5632 51.8069 94.6056C50.914 94.6172 50.4061 95.6037 51.1526 96.2164C53.8465 98.4321 57.183 99.7885 60.6889 100.116C61.8665 100.224 62.0782 98.4398 60.8967 98.328C58.5838 98.1122 56.3941 97.4071 54.4238 96.2703C56.829 96.1123 59.215 95.8002 61.5779 95.3031C62.1667 95.1798 62.513 94.6326 62.2937 94.0623C60.0963 88.3977 57.895 82.7332 55.6976 77.0687C59.5459 81.0608 63.3943 85.053 67.2427 89.0451C67.7699 89.5923 68.782 89.4266 68.8821 88.5943C69.2054 85.8506 69.9904 83.1802 71.2065 80.6986C71.9262 82.8912 72.8113 85.0221 73.885 87.0799C74.4199 88.1049 76.117 87.4113 75.5783 86.3785Z" fill="#F49D9D"/>
</svg>
