<?xml version="1.0" standalone="no"?>
<!DOCTYPE svg PUBLIC "-//W3C//DTD SVG 20010904//EN"
 "http://www.w3.org/TR/2001/REC-SVG-20010904/DTD/svg10.dtd">
<svg version="1.0" xmlns="http://www.w3.org/2000/svg"
 width="1080.000000pt" height="732.000000pt" viewBox="0 0 1080.000000 732.000000"
 preserveAspectRatio="xMidYMid meet">

<g transform="translate(0.000000,732.000000) scale(0.100000,-0.100000)"
fill="#000000" stroke="none">
<path d="M5454 7255 c-4 -8 -3 -23 1 -32 6 -17 7 -17 20 0 14 19 10 47 -6 47
-5 0 -12 -7 -15 -15z"/>
<path d="M5497 7138 c4 -49 14 -89 31 -121 21 -41 24 -56 18 -107 -5 -40 -3
-60 4 -60 5 0 10 18 10 40 0 27 5 43 15 46 21 9 19 50 -5 74 -12 12 -20 33
-20 54 0 19 -4 37 -9 40 -5 3 -14 28 -21 56 -18 73 -30 61 -23 -22z"/>
<path d="M5410 7165 c0 -8 5 -15 10 -15 6 0 10 7 10 15 0 8 -4 15 -10 15 -5 0
-10 -7 -10 -15z"/>
<path d="M5377 7064 c-4 -4 -7 -17 -7 -28 1 -19 1 -20 11 -3 11 19 8 43 -4 31z"/>
<path d="M3895 7020 c-4 -6 5 -10 20 -10 15 0 24 4 20 10 -3 6 -12 10 -20 10
-8 0 -17 -4 -20 -10z"/>
<path d="M5337 6983 c-4 -3 -7 -18 -6 -32 1 -26 1 -25 10 3 9 31 7 41 -4 29z"/>
<path d="M4052 6969 c18 -7 33 -7 45 0 14 8 9 10 -27 10 -42 -1 -43 -1 -18
-10z"/>
<path d="M4155 6930 c3 -5 12 -10 20 -10 8 0 17 5 20 10 4 6 -5 10 -20 10 -15
0 -24 -4 -20 -10z"/>
<path d="M7256 6901 c-3 -5 1 -11 9 -15 9 -3 15 0 15 9 0 16 -16 20 -24 6z"/>
<path d="M4230 6896 c0 -3 21 -25 47 -48 26 -24 57 -54 70 -67 l23 -24 9 24
c11 31 -1 63 -25 67 -11 2 -28 12 -39 23 -20 18 -85 38 -85 25z"/>
<path d="M5292 6870 c0 -14 2 -19 5 -12 2 6 2 18 0 25 -3 6 -5 1 -5 -13z"/>
<path d="M7188 6883 c7 -3 16 -2 19 1 4 3 -2 6 -13 5 -11 0 -14 -3 -6 -6z"/>
<path d="M5632 6855 c0 -16 2 -22 5 -12 2 9 2 23 0 30 -3 6 -5 -1 -5 -18z"/>
<path d="M7110 6850 c0 -5 9 -10 20 -10 11 0 20 5 20 10 0 6 -9 10 -20 10 -11
0 -20 -4 -20 -10z"/>
<path d="M5246 6803 c-4 -9 -2 -21 4 -27 7 -7 10 -2 10 17 0 31 -5 34 -14 10z"/>
<path d="M7025 6810 c-4 -6 5 -10 19 -10 14 0 26 5 26 10 0 6 -9 10 -19 10
-11 0 -23 -4 -26 -10z"/>
<path d="M5672 6770 c0 -14 2 -19 5 -12 2 6 2 18 0 25 -3 6 -5 1 -5 -13z"/>
<path d="M6945 6770 c-8 -13 20 -24 36 -15 8 6 7 10 -2 16 -18 11 -26 11 -34
-1z"/>
<path d="M4485 6760 c3 -5 8 -10 11 -10 2 0 4 5 4 10 0 6 -5 10 -11 10 -5 0
-7 -4 -4 -10z"/>
<path d="M7323 6720 c0 -25 2 -35 4 -22 2 12 2 32 0 45 -2 12 -4 2 -4 -23z"/>
<path d="M4540 6720 c0 -5 7 -10 15 -10 8 0 15 5 15 10 0 6 -7 10 -15 10 -8 0
-15 -4 -15 -10z"/>
<path d="M5207 6723 c-4 -3 -7 -11 -7 -17 0 -6 5 -5 12 2 6 6 9 14 7 17 -3 3
-9 2 -12 -2z"/>
<path d="M6880 6720 c-13 -9 -13 -10 0 -10 8 0 22 5 30 10 13 9 13 10 0 10 -8
0 -22 -5 -30 -10z"/>
<path d="M5580 6696 c0 -9 5 -16 10 -16 6 0 10 4 10 9 0 6 -4 13 -10 16 -5 3
-10 -1 -10 -9z"/>
<path d="M5711 6684 c0 -11 3 -14 6 -6 3 7 2 16 -1 19 -3 4 -6 -2 -5 -13z"/>
<path d="M6807 6683 c-13 -13 -7 -21 13 -16 11 3 20 9 20 14 0 10 -24 12 -33
2z"/>
<path d="M4615 6670 c3 -5 8 -10 11 -10 2 0 4 5 4 10 0 6 -5 10 -11 10 -5 0
-7 -4 -4 -10z"/>
<path d="M5160 6638 c0 -19 2 -20 10 -8 13 19 13 30 0 30 -5 0 -10 -10 -10
-22z"/>
<path d="M4650 6635 c7 -9 15 -13 17 -11 7 7 -7 26 -19 26 -6 0 -6 -6 2 -15z"/>
<path d="M6730 6630 c0 -13 11 -13 30 0 12 8 11 10 -7 10 -13 0 -23 -4 -23
-10z"/>
<path d="M5750 6611 c0 -6 5 -13 10 -16 6 -3 10 1 10 9 0 9 -4 16 -10 16 -5 0
-10 -4 -10 -9z"/>
<path d="M4700 6590 c0 -5 5 -10 11 -10 5 0 7 5 4 10 -3 6 -8 10 -11 10 -2 0
-4 -4 -4 -10z"/>
<path d="M7354 6566 c-3 -14 -1 -33 5 -43 8 -15 10 -10 11 25 0 47 -6 55 -16
18z"/>
<path d="M3850 6559 c0 -11 5 -17 10 -14 6 3 10 13 10 21 0 8 -4 14 -10 14 -5
0 -10 -9 -10 -21z"/>
<path d="M5110 6571 c0 -6 5 -13 10 -16 6 -3 10 1 10 9 0 9 -4 16 -10 16 -5 0
-10 -4 -10 -9z"/>
<path d="M4740 6550 c0 -5 5 -10 11 -10 5 0 7 5 4 10 -3 6 -8 10 -11 10 -2 0
-4 -4 -4 -10z"/>
<path d="M5800 6530 c0 -19 3 -21 12 -12 9 9 9 15 0 24 -9 9 -12 7 -12 -12z"/>
<path d="M4780 6505 c7 -9 15 -13 17 -11 7 7 -7 26 -19 26 -6 0 -6 -6 2 -15z"/>
<path d="M5077 6506 c-4 -10 -5 -21 -2 -24 9 -9 17 6 13 25 -3 17 -4 17 -11
-1z"/>
<path d="M5296 6476 c-14 -19 -26 -40 -26 -46 0 -6 -6 -23 -14 -38 -16 -31
-27 -120 -16 -127 9 -5 26 35 35 81 3 18 19 57 36 88 16 32 29 61 29 67 0 19
-18 8 -44 -25z"/>
<path d="M3812 6470 c0 -19 2 -27 5 -17 2 9 2 25 0 35 -3 9 -5 1 -5 -18z"/>
<path d="M4065 6467 c-4 -10 -5 -21 -1 -24 10 -10 18 4 13 24 -4 17 -4 17 -12
0z"/>
<path d="M6485 6470 c-3 -5 3 -10 14 -10 12 0 21 5 21 10 0 6 -6 10 -14 10 -8
0 -18 -4 -21 -10z"/>
<path d="M4820 6456 c0 -8 5 -18 10 -21 6 -3 10 3 10 14 0 12 -4 21 -10 21 -5
0 -10 -6 -10 -14z"/>
<path d="M5030 6429 c0 -11 5 -17 10 -14 6 3 10 13 10 21 0 8 -4 14 -10 14 -5
0 -10 -9 -10 -21z"/>
<path d="M6444 6426 c-10 -8 -16 -17 -13 -20 3 -4 17 2 30 13 27 23 13 28 -17
7z"/>
<path d="M8278 6423 c-2 -5 -1 -40 2 -80 l5 -71 29 23 30 24 -28 55 c-29 57
-32 62 -38 49z"/>
<path d="M5881 6404 c0 -11 3 -14 6 -6 3 7 2 16 -1 19 -3 4 -6 -2 -5 -13z"/>
<path d="M4860 6403 c0 -5 5 -15 10 -23 8 -12 10 -11 10 8 0 12 -4 22 -10 22
-5 0 -10 -3 -10 -7z"/>
<path d="M7401 6370 c0 -29 1 -32 10 -17 7 11 7 23 0 35 -9 14 -10 11 -10 -18z"/>
<path d="M4998 6384 c-5 -4 -8 -19 -8 -33 0 -18 3 -22 11 -14 6 6 9 21 7 33
-1 12 -6 18 -10 14z"/>
<path d="M6372 6354 c-19 -20 -32 -37 -30 -40 2 -2 22 14 43 36 22 22 35 40
30 39 -6 0 -25 -16 -43 -35z"/>
<path d="M3760 6366 c0 -8 5 -18 10 -21 6 -3 10 3 10 14 0 12 -4 21 -10 21 -5
0 -10 -6 -10 -14z"/>
<path d="M5920 6361 c0 -11 5 -23 10 -26 6 -4 10 5 10 19 0 14 -4 26 -10 26
-5 0 -10 -9 -10 -19z"/>
<path d="M4913 6272 l2 -58 21 26 c32 39 37 61 17 76 -35 26 -43 17 -40 -44z"/>
<path d="M6696 6288 c-20 -23 -36 -47 -36 -54 0 -6 -7 -17 -15 -24 -16 -13
-21 -50 -6 -50 12 0 111 130 111 146 0 29 -20 22 -54 -18z"/>
<path d="M2254 6298 c-5 -7 -6 -40 -3 -73 l6 -60 1 61 c1 33 7 65 14 72 8 8 8
12 1 12 -6 0 -15 -6 -19 -12z"/>
<path d="M2340 6300 c-11 -7 0 -10 38 -10 28 0 52 5 52 10 0 13 -70 13 -90 0z"/>
<path d="M5960 6305 c0 -13 55 -94 63 -95 15 0 -4 38 -34 71 -16 17 -29 28
-29 24z"/>
<path d="M6290 6275 c0 -8 5 -15 10 -15 6 0 10 7 10 15 0 8 -4 15 -10 15 -5 0
-10 -7 -10 -15z"/>
<path d="M8372 6255 c0 -16 2 -22 5 -12 2 9 2 23 0 30 -3 6 -5 -1 -5 -18z"/>
<path d="M3727 6263 c-11 -10 -8 -43 3 -43 6 0 10 11 10 25 0 26 -2 29 -13 18z"/>
<path d="M2538 6253 c12 -2 30 -2 40 0 9 3 -1 5 -23 4 -22 0 -30 -2 -17 -4z"/>
<path d="M3980 6229 c0 -11 5 -17 10 -14 6 3 10 13 10 21 0 8 -4 14 -10 14 -5
0 -10 -9 -10 -21z"/>
<path d="M8237 6218 c-4 -12 -4 -24 -1 -27 6 -7 24 20 24 37 0 21 -17 13 -23
-10z"/>
<path d="M2730 6220 c-11 -7 -2 -10 33 -10 30 0 46 4 42 10 -8 13 -55 13 -75
0z"/>
<path d="M6250 6214 c0 -8 5 -12 10 -9 6 3 10 10 10 16 0 5 -4 9 -10 9 -5 0
-10 -7 -10 -16z"/>
<path d="M6040 6191 c0 -6 5 -13 10 -16 6 -3 10 1 10 9 0 9 -4 16 -10 16 -5 0
-10 -4 -10 -9z"/>
<path d="M7440 6171 c0 -17 5 -31 10 -31 6 0 10 11 10 24 0 14 -4 28 -10 31
-6 4 -10 -7 -10 -24z"/>
<path d="M6217 6184 c-4 -4 -7 -14 -7 -23 0 -11 3 -12 11 -4 6 6 10 16 7 23
-2 6 -7 8 -11 4z"/>
<path d="M2885 6170 c3 -5 10 -10 16 -10 5 0 9 5 9 10 0 6 -7 10 -16 10 -8 0
-12 -4 -9 -10z"/>
<path d="M8190 6156 c-5 -13 -14 -27 -19 -31 -6 -3 -11 -11 -11 -17 0 -6 14 3
30 20 31 32 38 52 20 52 -6 0 -15 -11 -20 -24z"/>
<path d="M4701 6144 c0 -11 3 -14 6 -6 3 7 2 16 -1 19 -3 4 -6 -2 -5 -13z"/>
<path d="M8412 6135 c0 -16 2 -22 5 -12 2 9 2 23 0 30 -3 6 -5 -1 -5 -18z"/>
<path d="M3020 6130 c0 -5 11 -10 24 -10 14 0 28 5 31 10 4 6 -7 10 -24 10
-17 0 -31 -4 -31 -10z"/>
<path d="M6090 6131 c0 -5 5 -13 10 -16 6 -3 10 -2 10 4 0 5 -4 13 -10 16 -5
3 -10 2 -10 -4z"/>
<path d="M6175 6119 c-4 -5 -18 -14 -31 -20 -21 -7 -23 -12 -14 -29 16 -29 25
-25 48 20 11 22 16 40 11 40 -4 0 -11 -5 -14 -11z"/>
<path d="M3145 6090 c-4 -6 7 -10 25 -10 18 0 29 4 25 10 -3 6 -15 10 -25 10
-10 0 -22 -4 -25 -10z"/>
<path d="M8125 6080 c-3 -6 1 -7 9 -4 18 7 21 14 7 14 -6 0 -13 -4 -16 -10z"/>
<path d="M2285 6008 c-4 -36 -2 -74 4 -88 8 -20 10 -7 10 63 1 48 -1 87 -3 87
-3 0 -7 -28 -11 -62z"/>
<path d="M3680 5994 c0 -68 -3 -84 -20 -99 -22 -20 -12 -35 22 -35 15 0 17 12
16 94 0 52 -5 100 -9 108 -5 8 -9 -20 -9 -68z"/>
<path d="M3270 6050 c-12 -8 -9 -10 13 -10 16 0 26 4 22 10 -8 12 -16 12 -35
0z"/>
<path d="M5220 6051 c0 -5 5 -13 10 -16 6 -3 10 -2 10 4 0 5 -4 13 -10 16 -5
3 -10 2 -10 -4z"/>
<path d="M7015 6050 c-3 -5 -1 -10 4 -10 6 0 11 5 11 10 0 6 -2 10 -4 10 -3 0
-8 -4 -11 -10z"/>
<path d="M4820 6035 c0 -8 5 -15 10 -15 6 0 10 7 10 15 0 8 -4 15 -10 15 -5 0
-10 -7 -10 -15z"/>
<path d="M8070 6040 c0 -5 7 -7 15 -4 8 4 15 8 15 10 0 2 -7 4 -15 4 -8 0 -15
-4 -15 -10z"/>
<path d="M6175 6010 c3 -5 8 -10 11 -10 2 0 4 5 4 10 0 6 -5 10 -11 10 -5 0
-7 -4 -4 -10z"/>
<path d="M3388 5998 c17 -8 26 -8 34 0 9 9 4 12 -22 11 -33 0 -34 -1 -12 -11z"/>
<path d="M8000 6000 c0 -5 6 -10 14 -10 8 0 18 5 21 10 3 6 -3 10 -14 10 -12
0 -21 -4 -21 -10z"/>
<path d="M6974 5989 c-3 -6 -1 -16 5 -22 8 -8 11 -5 11 11 0 24 -5 28 -16 11z"/>
<path d="M8455 5987 c-4 -10 -5 -21 -1 -24 10 -10 18 4 13 24 -4 17 -4 17 -12
0z"/>
<path d="M5233 5939 c4 -28 12 -57 18 -65 6 -8 15 -29 18 -47 4 -19 14 -33 24
-35 21 -4 22 16 2 38 -9 10 -20 46 -26 80 -11 70 -15 80 -31 80 -7 0 -9 -17
-5 -51z"/>
<path d="M3475 5960 c3 -5 15 -10 26 -10 10 0 19 5 19 10 0 6 -12 10 -26 10
-14 0 -23 -4 -19 -10z"/>
<path d="M7940 5960 c0 -5 6 -10 14 -10 8 0 18 5 21 10 3 6 -3 10 -14 10 -12
0 -21 -4 -21 -10z"/>
<path d="M4750 5918 c0 -30 1 -31 16 -16 9 9 14 24 11 32 -11 27 -27 17 -27
-16z"/>
<path d="M3560 5920 c0 -5 11 -10 25 -10 14 0 25 5 25 10 0 6 -11 10 -25 10
-14 0 -25 -4 -25 -10z"/>
<path d="M7870 5920 c0 -5 9 -10 20 -10 11 0 20 5 20 10 0 6 -9 10 -20 10 -11
0 -20 -4 -20 -10z"/>
<path d="M7803 5873 c9 -2 23 -2 30 0 6 3 -1 5 -18 5 -16 0 -22 -2 -12 -5z"/>
<path d="M4738 5852 c-6 -22 1 -44 13 -36 12 7 12 41 0 48 -5 3 -11 -2 -13
-12z"/>
<path d="M7728 5833 c6 -2 18 -2 25 0 6 3 1 5 -13 5 -14 0 -19 -2 -12 -5z"/>
<path d="M7635 5790 c-8 -13 15 -13 35 0 12 8 11 10 -7 10 -12 0 -25 -4 -28
-10z"/>
<path d="M7555 5750 c-3 -5 3 -10 14 -10 11 0 23 5 26 10 3 6 -3 10 -14 10
-11 0 -23 -4 -26 -10z"/>
<path d="M3921 5716 c-9 -11 -9 -16 1 -22 7 -4 24 -14 38 -23 25 -15 25 -15 8
5 -10 11 -18 26 -18 32 0 18 -17 23 -29 8z"/>
<path d="M7477 5724 c-14 -14 -6 -24 19 -24 16 0 24 5 22 13 -5 14 -31 21 -41
11z"/>
<path d="M8501 5560 c1 -103 4 -165 9 -150 12 36 12 292 0 310 -6 10 -9 -44
-9 -160z"/>
<path d="M6408 5666 c-27 -20 -32 -61 -12 -95 10 -17 21 -31 25 -31 7 0 19 61
19 102 0 33 -10 40 -32 24z"/>
<path d="M4020 5620 c0 -5 7 -10 16 -10 8 0 12 5 9 10 -3 6 -10 10 -16 10 -5
0 -9 -4 -9 -10z"/>
<path d="M3330 5571 c0 -15 34 -71 43 -71 5 0 28 -19 51 -42 90 -91 196 -160
295 -193 29 -9 65 -24 80 -31 14 -8 36 -14 47 -14 12 0 28 -7 35 -16 8 -9 30
-27 49 -39 19 -12 65 -50 103 -84 37 -33 72 -61 77 -61 24 0 5 30 -58 96 -69
70 -137 112 -271 164 -30 12 -74 30 -97 41 -24 10 -46 19 -49 19 -26 0 -140
88 -205 157 -71 76 -100 98 -100 74z"/>
<path d="M5272 5571 c2 -7 7 -12 11 -12 12 1 9 15 -3 20 -7 2 -11 -2 -8 -8z"/>
<path d="M7136 5518 c-29 -41 -12 -54 24 -18 11 11 20 25 20 30 0 18 -29 10
-44 -12z"/>
<path d="M6261 5464 c0 -11 3 -14 6 -6 3 7 2 16 -1 19 -3 4 -6 -2 -5 -13z"/>
<path d="M5275 5389 c-10 -15 3 -25 16 -12 7 7 7 13 1 17 -6 3 -14 1 -17 -5z"/>
<path d="M6045 5370 c-3 -5 -1 -18 4 -27 9 -16 10 -14 11 10 0 28 -5 34 -15
17z"/>
<path d="M6427 5364 c-10 -11 -9 -82 3 -89 5 -3 12 5 16 19 7 28 -7 81 -19 70z"/>
<path d="M2331 5182 c-1 -103 3 -161 9 -157 11 7 11 255 0 293 -5 17 -9 -36
-9 -136z"/>
<path d="M4325 5320 c3 -5 8 -10 11 -10 2 0 4 5 4 10 0 6 -5 10 -11 10 -5 0
-7 -4 -4 -10z"/>
<path d="M4356 5285 c4 -8 11 -15 16 -15 6 0 5 6 -2 15 -7 8 -14 15 -16 15 -2
0 -1 -7 2 -15z"/>
<path d="M7945 5291 c-3 -5 -1 -12 5 -16 5 -3 10 1 10 9 0 18 -6 21 -15 7z"/>
<path d="M4425 5254 c-15 -11 -17 -18 -9 -31 20 -31 34 -26 34 11 0 20 -1 36
-2 36 -2 0 -12 -7 -23 -16z"/>
<path d="M8458 5234 c-5 -4 -8 -24 -8 -43 0 -20 -9 -54 -21 -75 -14 -26 -18
-47 -14 -65 6 -25 7 -26 21 -6 14 18 15 15 13 -37 -3 -57 5 -84 16 -56 8 21 1
291 -7 282z"/>
<path d="M6646 5151 c-8 -12 3 -41 15 -41 4 0 13 9 18 19 8 15 7 20 -5 25 -20
8 -22 8 -28 -3z"/>
<path d="M4501 5127 c-8 -11 -7 -20 7 -38 11 -13 22 -31 25 -39 3 -8 5 7 4 34
-2 51 -15 67 -36 43z"/>
<path d="M2707 5093 c-7 -12 11 -53 23 -53 11 0 13 20 4 44 -6 17 -20 21 -27
9z"/>
<path d="M3050 5091 c0 -5 5 -13 10 -16 6 -3 10 -2 10 4 0 5 -4 13 -10 16 -5
3 -10 2 -10 -4z"/>
<path d="M3090 5026 c0 -8 5 -18 10 -21 6 -3 10 3 10 14 0 12 -4 21 -10 21 -5
0 -10 -6 -10 -14z"/>
<path d="M2744 4998 c7 -36 23 -58 42 -58 19 0 18 13 -7 54 -26 45 -44 47 -35
4z"/>
<path d="M3130 4956 c0 -17 14 -29 23 -20 8 8 -3 34 -14 34 -5 0 -9 -6 -9 -14z"/>
<path d="M8560 4950 c0 -6 59 -10 156 -10 101 0 153 3 149 10 -4 6 -67 10
-156 10 -93 0 -149 -4 -149 -10z"/>
<path d="M6436 4907 c-11 -43 -8 -52 14 -32 23 21 26 41 6 48 -9 4 -16 -3 -20
-16z"/>
<path d="M8420 4909 c-6 -11 -10 -28 -8 -37 3 -13 8 -9 21 15 20 37 21 43 7
43 -5 0 -14 -9 -20 -21z"/>
<path d="M1170 4910 c8 -5 47 -10 85 -10 49 0 65 3 55 10 -8 5 -46 10 -85 10
-49 0 -65 -3 -55 -10z"/>
<path d="M9075 4910 c-24 -6 -18 -8 30 -9 42 0 56 2 45 9 -17 11 -32 11 -75 0z"/>
<path d="M940 4890 c0 -5 5 -10 10 -10 6 0 10 5 10 10 0 6 -4 10 -10 10 -5 0
-10 -4 -10 -10z"/>
<path d="M1900 4870 c-17 -5 4 -8 63 -9 57 -1 86 3 82 9 -7 12 -109 12 -145 0z"/>
<path d="M9290 4870 c-32 -7 -30 -7 20 -9 39 0 51 2 40 9 -8 5 -17 9 -20 9 -3
-1 -21 -5 -40 -9z"/>
<path d="M6302 4830 c0 -14 2 -19 5 -12 2 6 2 18 0 25 -3 6 -5 1 -5 -13z"/>
<path d="M980 4816 c0 -14 5 -28 10 -31 6 -3 10 5 10 19 0 14 -4 28 -10 31 -6
3 -10 -5 -10 -19z"/>
<path d="M2118 4819 c15 -6 30 -5 40 1 13 7 8 9 -23 9 -35 0 -37 -1 -17 -10z"/>
<path d="M9435 4820 c3 -5 19 -10 35 -10 16 0 32 5 35 10 4 6 -10 10 -35 10
-25 0 -39 -4 -35 -10z"/>
<path d="M2220 4780 c0 -5 14 -10 31 -10 17 0 28 4 24 10 -3 6 -17 10 -31 10
-13 0 -24 -4 -24 -10z"/>
<path d="M9590 4780 c0 -5 11 -10 24 -10 14 0 28 5 31 10 4 6 -7 10 -24 10
-17 0 -31 -4 -31 -10z"/>
<path d="M1020 4763 c0 -10 5 -25 10 -33 8 -12 10 -9 10 12 0 15 -4 30 -10 33
-5 3 -10 -2 -10 -12z"/>
<path d="M2307 4763 c-17 -17 -5 -33 24 -33 24 0 30 3 25 16 -3 9 -6 18 -6 20
0 7 -36 5 -43 -3z"/>
<path d="M6046 4753 c-4 -13 -3 -30 2 -39 8 -15 10 -14 14 3 3 10 2 27 -2 38
-7 19 -7 19 -14 -2z"/>
<path d="M9720 4740 c-12 -8 -9 -10 13 -10 15 0 27 5 27 10 0 13 -20 13 -40 0z"/>
<path d="M8698 4733 c12 -2 30 -2 40 0 9 3 -1 5 -23 4 -22 0 -30 -2 -17 -4z"/>
<path d="M9810 4696 c0 -2 11 -6 25 -8 14 -3 25 -1 25 3 0 5 -11 9 -25 9 -14
0 -25 -2 -25 -4z"/>
<path d="M1060 4670 c0 -11 5 -20 10 -20 6 0 10 9 10 20 0 11 -4 20 -10 20 -5
0 -10 -9 -10 -20z"/>
<path d="M3300 4666 c0 -8 5 -18 10 -21 6 -3 10 3 10 14 0 12 -4 21 -10 21 -5
0 -10 -6 -10 -14z"/>
<path d="M9920 4650 c20 -13 43 -13 35 0 -3 6 -16 10 -28 10 -18 0 -19 -2 -7
-10z"/>
<path d="M2382 4615 c0 -16 2 -22 5 -12 2 9 2 23 0 30 -3 6 -5 -1 -5 -18z"/>
<path d="M8322 4605 c-24 -51 -9 -59 35 -20 24 21 26 26 13 35 -24 16 -36 12
-48 -15z"/>
<path d="M1106 4603 c-4 -9 -2 -21 4 -27 7 -7 10 -2 10 17 0 31 -5 34 -14 10z"/>
<path d="M9973 4590 c-11 -29 -10 -30 17 -30 20 0 29 6 33 22 13 47 -32 54
-50 8z"/>
<path d="M6263 4565 c0 -22 2 -30 4 -17 2 12 2 30 0 40 -3 9 -5 -1 -4 -23z"/>
<path d="M4463 4563 c-15 -6 -17 -46 -4 -71 5 -9 12 -25 15 -35 6 -18 33 -34
43 -24 7 7 -27 137 -36 136 -3 0 -12 -3 -18 -6z"/>
<path d="M1640 4541 c0 -5 28 -27 63 -49 34 -23 93 -73 132 -112 67 -67 95
-84 95 -57 0 15 -108 137 -121 137 -5 0 -34 20 -65 45 -50 41 -104 60 -104 36z"/>
<path d="M8290 4539 c0 -5 5 -7 10 -4 6 3 10 8 10 11 0 2 -4 4 -10 4 -5 0 -10
-5 -10 -11z"/>
<path d="M1150 4516 c0 -9 5 -16 10 -16 6 0 10 4 10 9 0 6 -4 13 -10 16 -5 3
-10 -1 -10 -9z"/>
<path d="M9890 4521 c0 -5 9 -7 20 -4 11 3 20 7 20 9 0 2 -9 4 -20 4 -11 0
-20 -4 -20 -9z"/>
<path d="M3382 4503 c5 -25 28 -28 28 -4 0 12 -6 21 -16 21 -9 0 -14 -7 -12
-17z"/>
<path d="M9815 4470 c-10 -11 -23 -20 -29 -20 -11 0 -96 -83 -126 -124 -13
-16 -12 -18 2 -15 22 5 201 179 184 179 -7 0 -21 -9 -31 -20z"/>
<path d="M6007 4473 c-11 -10 -8 -63 3 -63 6 0 10 16 10 35 0 36 -2 40 -13 28z"/>
<path d="M8030 4425 c0 -8 5 -15 10 -15 6 0 10 7 10 15 0 8 -4 15 -10 15 -5 0
-10 -7 -10 -15z"/>
<path d="M6303 4387 c5 -30 1 -43 -20 -67 -28 -33 -45 -120 -24 -120 6 0 11 5
11 12 0 6 11 26 25 44 14 18 25 36 25 40 0 4 7 16 17 26 15 17 15 20 -3 54
-27 50 -38 54 -31 11z"/>
<path d="M6385 4400 c-3 -5 -1 -10 4 -10 6 0 11 5 11 10 0 6 -2 10 -4 10 -3 0
-8 -4 -11 -10z"/>
<path d="M2416 4384 c-3 -9 -6 -26 -6 -38 0 -12 -5 -27 -11 -33 -8 -8 -1 -22
26 -52 21 -23 41 -41 46 -41 17 0 9 29 -16 58 -21 26 -24 37 -19 70 6 40 -8
66 -20 36z"/>
<path d="M1242 4370 c0 -14 2 -19 5 -12 2 6 2 18 0 25 -3 6 -5 1 -5 -13z"/>
<path d="M4528 4372 c-3 -9 -1 -26 3 -37 6 -15 8 -11 8 18 1 40 -4 48 -11 19z"/>
<path d="M5075 4381 c-4 -7 1 -21 11 -32 10 -11 21 -41 24 -67 3 -33 10 -47
20 -47 19 0 15 73 -5 89 -7 6 -19 24 -27 40 -10 19 -18 25 -23 17z"/>
<path d="M1270 4296 c0 -8 5 -18 10 -21 6 -3 10 3 10 14 0 12 -4 21 -10 21 -5
0 -10 -6 -10 -14z"/>
<path d="M6662 4216 c-57 -69 -60 -76 -36 -76 21 0 114 99 114 122 0 34 -26
18 -78 -46z"/>
<path d="M5960 4225 c0 -19 5 -35 10 -35 6 0 10 16 10 35 0 19 -4 35 -10 35
-5 0 -10 -16 -10 -35z"/>
<path d="M1320 4221 c0 -12 5 -21 10 -21 6 0 10 6 10 14 0 8 -4 18 -10 21 -5
3 -10 -3 -10 -14z"/>
<path d="M4105 4230 c3 -5 8 -10 11 -10 2 0 4 5 4 10 0 6 -5 10 -11 10 -5 0
-7 -4 -4 -10z"/>
<path d="M6176 4213 c-9 -28 16 -98 34 -98 25 0 23 56 -4 89 -22 27 -24 27
-30 9z"/>
<path d="M3050 4196 c0 -9 5 -16 10 -16 6 0 10 4 10 9 0 6 -4 13 -10 16 -5 3
-10 -1 -10 -9z"/>
<path d="M1360 4173 c0 -11 7 -27 16 -34 15 -12 16 -11 9 11 -10 35 -25 49
-25 23z"/>
<path d="M4150 4176 c0 -9 5 -16 10 -16 6 0 10 4 10 9 0 6 -4 13 -10 16 -5 3
-10 -1 -10 -9z"/>
<path d="M4570 4171 c0 -12 5 -21 10 -21 6 0 10 6 10 14 0 8 -4 18 -10 21 -5
3 -10 -3 -10 -14z"/>
<path d="M1615 4120 c3 -5 8 -10 11 -10 2 0 4 5 4 10 0 6 -5 10 -11 10 -5 0
-7 -4 -4 -10z"/>
<path d="M3090 4121 c0 -6 5 -13 10 -16 6 -3 10 1 10 9 0 9 -4 16 -10 16 -5 0
-10 -4 -10 -9z"/>
<path d="M4180 4121 c0 -6 5 -13 10 -16 6 -3 10 1 10 9 0 9 -4 16 -10 16 -5 0
-10 -4 -10 -9z"/>
<path d="M1400 4108 c0 -8 12 -28 26 -44 140 -158 203 -224 217 -224 15 0 5
14 -44 63 -28 27 -80 84 -116 126 -36 42 -70 80 -74 86 -6 5 -9 3 -9 -7z"/>
<path d="M6140 4075 c-5 -14 -10 -35 -10 -46 0 -10 -9 -36 -20 -56 -11 -21
-20 -44 -20 -52 0 -8 -9 -33 -19 -55 -11 -23 -24 -57 -29 -76 -12 -40 -48
-133 -68 -171 -19 -36 -28 -99 -15 -99 14 0 31 34 31 62 0 13 9 34 20 48 11
14 20 32 20 40 0 8 9 29 20 45 11 17 20 38 20 48 0 9 9 34 20 54 11 21 20 43
20 50 0 7 9 27 20 45 11 18 20 42 20 53 0 11 7 29 15 39 19 25 19 70 0 86 -12
10 -16 8 -25 -15z"/>
<path d="M9511 4084 c0 -11 3 -14 6 -6 3 7 2 16 -1 19 -3 4 -6 -2 -5 -13z"/>
<path d="M4230 4061 c0 -5 5 -13 10 -16 6 -3 10 -2 10 4 0 5 -4 13 -10 16 -5
3 -10 2 -10 -4z"/>
<path d="M9295 4057 c-4 -10 -5 -21 -1 -24 10 -10 18 4 13 24 -4 17 -4 17 -12
0z"/>
<path d="M2544 4049 c-3 -6 -1 -16 5 -22 8 -8 11 -5 11 11 0 24 -5 28 -16 11z"/>
<path d="M5920 4017 c0 -23 4 -36 10 -32 13 8 13 35 0 55 -7 11 -10 5 -10 -23z"/>
<path d="M2220 4020 c0 -5 5 -10 11 -10 5 0 7 5 4 10 -3 6 -8 10 -11 10 -2 0
-4 -4 -4 -10z"/>
<path d="M3640 4011 c0 -12 5 -21 10 -21 6 0 10 6 10 14 0 8 -4 18 -10 21 -5
3 -10 -3 -10 -14z"/>
<path d="M8853 4004 c-44 -26 -55 -44 -27 -44 16 0 84 50 84 63 0 12 -13 8
-57 -19z"/>
<path d="M4270 4000 c0 -5 5 -10 10 -10 6 0 10 5 10 10 0 6 -4 10 -10 10 -5 0
-10 -4 -10 -10z"/>
<path d="M5673 3975 c0 -22 2 -30 4 -17 2 12 2 30 0 40 -3 9 -5 -1 -4 -23z"/>
<path d="M9471 3994 c0 -11 3 -14 6 -6 3 7 2 16 -1 19 -3 4 -6 -2 -5 -13z"/>
<path d="M7846 3930 c-22 -22 -37 -42 -34 -45 9 -10 113 51 113 66 0 29 -40
19 -79 -21z"/>
<path d="M3680 3940 c13 -24 35 -27 26 -4 -3 9 -6 18 -6 20 0 2 -7 4 -15 4
-13 0 -14 -4 -5 -20z"/>
<path d="M4315 3940 c3 -5 8 -10 11 -10 2 0 4 5 4 10 0 6 -5 10 -11 10 -5 0
-7 -4 -4 -10z"/>
<path d="M8721 3936 c-7 -9 -8 -17 -2 -20 11 -7 57 9 66 23 10 17 -51 13 -64
-3z"/>
<path d="M9427 3923 c-3 -5 -2 -15 2 -22 5 -7 11 -9 14 -4 3 5 2 15 -2 22 -5
7 -11 9 -14 4z"/>
<path d="M2630 3894 c0 -8 5 -12 10 -9 6 4 8 11 5 16 -9 14 -15 11 -15 -7z"/>
<path d="M3720 3898 c0 -18 18 -34 28 -24 3 4 -2 14 -11 23 -16 16 -17 16 -17
1z"/>
<path d="M7050 3890 c0 -5 5 -10 10 -10 6 0 10 5 10 10 0 6 -4 10 -10 10 -5 0
-10 -4 -10 -10z"/>
<path d="M3766 3836 c3 -9 11 -16 16 -16 13 0 5 23 -10 28 -7 2 -10 -2 -6 -12z"/>
<path d="M5882 3830 c0 -14 2 -19 5 -12 2 6 2 18 0 25 -3 6 -5 1 -5 -13z"/>
<path d="M9380 3825 c0 -8 5 -15 10 -15 6 0 10 7 10 15 0 8 -4 15 -10 15 -5 0
-10 -7 -10 -15z"/>
<path d="M3310 3822 c0 -12 19 -26 26 -19 2 2 -2 10 -11 17 -9 8 -15 8 -15 2z"/>
<path d="M1680 3810 c0 -5 7 -10 16 -10 8 0 12 5 9 10 -3 6 -10 10 -16 10 -5
0 -9 -4 -9 -10z"/>
<path d="M8260 3810 c0 -5 14 -10 30 -10 17 0 30 5 30 10 0 6 -13 10 -30 10
-16 0 -30 -4 -30 -10z"/>
<path d="M2470 3797 c0 -20 22 -37 47 -37 29 0 29 14 1 34 -27 19 -48 21 -48
3z"/>
<path d="M2666 3794 c-9 -22 -8 -24 9 -24 8 0 15 6 15 14 0 22 -17 28 -24 10z"/>
<path d="M5626 3791 c-4 -7 -5 -15 -2 -18 9 -9 19 4 14 18 -4 11 -6 11 -12 0z"/>
<path d="M1740 3770 c0 -15 21 -23 32 -12 6 6 2 11 -11 15 -12 3 -21 1 -21 -3z"/>
<path d="M9337 3766 c-4 -10 -5 -21 -2 -24 9 -9 17 6 13 25 -3 17 -4 17 -11
-1z"/>
<path d="M2024 3758 c-17 -27 69 -55 121 -39 28 9 29 9 5 10 -14 1 -42 10 -63
21 -43 23 -53 24 -63 8z"/>
<path d="M9000 3730 c-8 -5 -11 -12 -7 -16 4 -4 13 -2 19 4 15 15 7 24 -12 12z"/>
<path d="M1821 3716 c-14 -16 -4 -26 26 -26 28 0 30 15 4 29 -14 8 -22 7 -30
-3z"/>
<path d="M6810 3719 c0 -5 5 -7 10 -4 6 3 10 8 10 11 0 2 -4 4 -10 4 -5 0 -10
-5 -10 -11z"/>
<path d="M9300 3722 c0 -5 -19 -28 -42 -50 -25 -25 -36 -42 -27 -42 8 0 32 18
52 40 37 41 46 60 27 60 -5 0 -10 -4 -10 -8z"/>
<path d="M3389 3704 c-17 -21 3 -34 54 -34 45 0 48 14 7 35 -37 19 -44 19 -61
-1z"/>
<path d="M7565 3680 c-3 -5 -1 -10 4 -10 6 0 11 5 11 10 0 6 -2 10 -4 10 -3 0
-8 -4 -11 -10z"/>
<path d="M1565 3640 c-4 -6 13 -10 44 -10 27 0 53 5 56 10 4 6 -13 10 -44 10
-27 0 -53 -4 -56 -10z"/>
<path d="M3530 3640 c0 -5 7 -10 15 -10 8 0 15 5 15 10 0 6 -7 10 -15 10 -8 0
-15 -4 -15 -10z"/>
<path d="M7505 3640 c-3 -5 1 -10 9 -10 9 0 16 5 16 10 0 6 -4 10 -9 10 -6 0
-13 -4 -16 -10z"/>
<path d="M7952 3638 c-19 -19 -14 -38 9 -38 12 0 39 -5 59 -11 40 -12 90 -6
90 11 0 6 -20 10 -45 10 -34 0 -48 5 -57 20 -14 23 -38 26 -56 8z"/>
<path d="M10360 3646 c0 -8 38 -46 46 -46 3 0 4 10 2 23 -2 14 -11 23 -25 25
-13 2 -23 1 -23 -2z"/>
<path d="M355 3600 c-4 -6 3 -10 14 -10 25 0 27 6 6 13 -8 4 -17 2 -20 -3z"/>
<path d="M1310 3600 c0 -6 27 -10 63 -10 44 0 58 3 47 10 -20 13 -110 13 -110
0z"/>
<path d="M3635 3600 c-3 -5 1 -10 10 -10 9 0 13 5 10 10 -3 6 -8 10 -10 10 -2
0 -7 -4 -10 -10z"/>
<path d="M4865 3600 c3 -5 8 -10 11 -10 2 0 4 5 4 10 0 6 -5 10 -11 10 -5 0
-7 -4 -4 -10z"/>
<path d="M5160 3601 c0 -5 5 -13 10 -16 6 -3 10 -2 10 4 0 5 -4 13 -10 16 -5
3 -10 2 -10 -4z"/>
<path d="M8740 3600 c-12 -8 -9 -10 13 -10 16 0 26 4 22 10 -8 12 -16 12 -35
0z"/>
<path d="M9175 3599 c-4 -6 -5 -13 -2 -16 7 -7 27 6 27 18 0 12 -17 12 -25 -2z"/>
<path d="M10265 3600 c-4 -6 5 -10 19 -10 14 0 26 5 26 10 0 6 -9 10 -19 10
-11 0 -23 -4 -26 -10z"/>
<path d="M7404 3560 c-27 -22 -52 -40 -56 -40 -5 0 -8 -4 -8 -10 0 -18 38 -10
76 15 35 24 53 29 99 26 19 -1 19 0 -1 8 -12 5 -24 16 -27 25 -10 25 -31 19
-83 -24z"/>
<path d="M350 3562 c0 -10 9 -25 20 -35 11 -9 20 -28 20 -42 0 -14 9 -33 20
-42 11 -10 20 -21 20 -26 0 -5 11 -22 25 -39 14 -16 25 -36 25 -44 0 -9 5 -12
10 -9 6 3 10 -3 10 -14 0 -11 13 -34 29 -50 16 -17 32 -39 36 -51 6 -20 7 -20
26 4 l19 25 -50 50 c-28 28 -55 61 -60 73 -12 25 -52 85 -73 108 -19 20 -49
80 -41 80 4 0 1 7 -6 15 -17 20 -30 19 -30 -3z"/>
<path d="M510 3560 c-18 -6 -4 -8 48 -9 47 -1 71 3 67 9 -7 12 -79 12 -115 0z"/>
<path d="M1015 3560 c-4 -6 21 -10 67 -9 50 0 67 3 53 9 -28 12 -113 12 -120
0z"/>
<path d="M4900 3562 c0 -12 19 -26 26 -19 2 2 -2 10 -11 17 -9 8 -15 8 -15 2z"/>
<path d="M10135 3560 c-4 -6 9 -10 32 -10 28 0 34 3 23 10 -20 13 -47 13 -55
0z"/>
<path d="M5200 3552 c0 -12 19 -26 26 -19 2 2 -2 10 -11 17 -9 8 -15 8 -15 2z"/>
<path d="M8564 3549 c-11 -18 19 -39 60 -42 52 -3 57 18 10 38 -43 18 -60 19
-70 4z"/>
<path d="M9115 3550 c-3 -5 1 -10 9 -10 8 0 18 5 21 10 3 6 -1 10 -9 10 -8 0
-18 -4 -21 -10z"/>
<path d="M10348 3515 c-3 -14 -1 -25 3 -25 5 0 9 11 9 25 0 14 -2 25 -4 25 -2
0 -6 -11 -8 -25z"/>
<path d="M9960 3520 c-11 -7 1 -10 39 -10 30 0 52 2 50 4 -11 10 -76 14 -89 6z"/>
<path d="M4105 3510 c3 -5 8 -10 11 -10 2 0 4 5 4 10 0 6 -5 10 -11 10 -5 0
-7 -4 -4 -10z"/>
<path d="M5356 3496 c-13 -21 -21 -24 -50 -19 l-35 5 6 -36 c3 -20 1 -36 -4
-36 -5 0 -23 -13 -39 -30 -34 -35 -62 -38 -97 -10 -14 11 -28 20 -32 20 -4 0
-29 18 -55 40 -50 42 -60 47 -60 30 0 -12 -34 -62 -63 -95 -11 -11 -23 -30
-28 -42 -4 -12 -20 -30 -35 -39 -25 -17 -28 -17 -56 -1 -16 9 -47 20 -69 23
-24 4 -44 14 -50 25 -12 24 -39 25 -39 2 -1 -33 -58 -113 -82 -113 -19 0 -20
-1 -6 -17 10 -11 16 -37 16 -68 l0 -51 -134 1 -134 0 0 -82 c0 -76 -2 -83 -26
-102 -17 -13 -41 -21 -67 -21 -55 0 -131 -37 -121 -59 12 -30 25 -95 22 -113
-3 -21 -105 -68 -145 -68 -32 0 -36 -16 -8 -34 27 -18 65 -84 65 -115 0 -20
-39 -53 -77 -65 -11 -4 -27 -13 -33 -21 -7 -8 -20 -15 -29 -15 -9 0 -22 -4
-30 -9 -15 -9 -5 -27 57 -98 35 -41 29 -68 -22 -98 -24 -14 -50 -32 -56 -40
-7 -8 -23 -15 -37 -15 -37 0 -37 -22 1 -86 20 -32 36 -63 36 -68 0 -5 11 -24
24 -41 l25 -32 -65 -71 c-66 -73 -72 -92 -28 -92 13 0 34 -11 46 -25 13 -15
32 -25 48 -25 55 0 65 -42 23 -97 -23 -30 -28 -45 -26 -85 3 -62 7 -68 46 -68
38 0 77 -24 77 -48 0 -9 -10 -36 -22 -59 -32 -61 -19 -94 43 -108 26 -5 54
-16 63 -24 20 -17 21 -84 1 -101 -8 -7 -15 -18 -15 -24 0 -22 44 -54 83 -61
51 -10 67 -28 67 -78 0 -50 7 -62 40 -70 133 -33 133 -34 108 -104 -11 -30
-10 -36 10 -55 19 -20 25 -21 54 -11 78 28 118 -13 121 -123 2 -51 5 -65 20
-70 22 -7 127 52 127 72 0 8 9 14 19 14 25 0 37 18 22 33 -18 18 -13 27 14 27
26 0 28 -4 25 -61 -1 -22 5 -41 14 -48 9 -8 16 -26 16 -41 0 -23 5 -30 29 -35
41 -9 100 4 122 26 27 27 63 24 85 -7 10 -15 29 -36 42 -47 12 -11 22 -26 22
-33 0 -7 9 -16 20 -19 11 -3 20 -12 20 -20 0 -7 7 -16 16 -19 21 -8 18 -9 47
17 14 12 36 30 49 40 12 9 37 28 54 42 38 30 48 31 71 6 10 -11 38 -35 62 -54
42 -33 47 -35 71 -22 15 8 41 30 58 50 18 19 42 39 55 44 35 14 105 2 121 -20
18 -26 79 -30 84 -6 2 11 14 34 27 53 13 19 25 40 27 46 5 14 102 12 128 -2
32 -17 67 12 74 64 10 66 26 75 124 72 68 -2 85 -6 96 -22 8 -10 18 -16 22
-12 4 4 1 14 -5 22 -10 12 -10 29 3 85 9 39 16 81 16 95 0 45 60 57 98 19 12
-12 17 -10 37 11 13 14 39 27 63 31 26 4 43 13 46 23 13 48 16 91 6 97 -14 8
-13 88 2 103 6 6 44 19 85 29 59 13 77 22 87 42 12 22 11 26 -12 46 -24 21
-41 84 -34 130 5 32 116 96 180 102 40 5 50 8 38 15 -9 5 -22 7 -29 5 -22 -8
-44 12 -75 66 -16 29 -37 59 -46 66 -28 23 -18 47 47 106 107 100 110 118 27
200 -33 33 -60 64 -60 70 0 21 78 115 96 115 19 0 17 30 -4 56 -9 12 -45 45
-79 73 -34 28 -64 60 -68 71 -7 22 39 96 77 123 l23 17 -49 44 c-32 30 -62 47
-87 51 -20 4 -45 15 -55 26 -16 18 -16 21 11 74 15 31 25 58 22 61 -3 3 -36
18 -74 33 l-68 28 4 92 c2 50 -1 91 -5 92 -5 0 -42 2 -82 4 -40 2 -76 6 -81 9
-5 4 -9 36 -9 73 1 65 -21 143 -39 143 -4 0 -33 -9 -62 -21 -66 -24 -101 -15
-101 26 0 28 -24 34 -34 8 -12 -31 -46 17 -53 75 -3 29 -9 54 -12 57 -4 2 -31
-3 -61 -10 -118 -29 -160 -36 -170 -30 -5 3 -10 22 -10 41 0 32 -2 34 -21 24
-29 -16 -44 -7 -65 39 -21 48 -32 50 -72 16 -17 -14 -32 -25 -35 -25 -4 0 -23
-11 -43 -25 -46 -31 -68 -31 -98 -2 -17 17 -22 32 -19 49 4 23 2 25 -19 21
-20 -4 -31 4 -59 41 -19 25 -37 46 -40 46 -4 0 -14 -11 -23 -24z m174 -195 c0
-14 -18 -23 -30 -16 -6 4 -8 11 -5 16 8 12 35 12 35 0z m-600 -75 c-12 -12
-30 8 -30 33 0 11 5 10 20 -4 15 -13 17 -22 10 -29z m207 -14 c-1 -25 -7 -37
-17 -37 -19 0 -26 51 -10 70 18 22 29 9 27 -33z m513 3 c0 -8 -6 -15 -14 -15
-17 0 -28 14 -19 24 12 12 33 6 33 -9z m-770 -55 c9 -16 8 -22 -5 -26 -21 -8
-39 10 -32 30 9 22 24 20 37 -4z m561 -38 c24 -20 21 -52 -5 -52 -18 0 -56 39
-56 57 0 19 34 16 61 -5z m-473 -65 c2 -20 -1 -37 -5 -37 -11 0 -34 61 -27 72
12 19 29 0 32 -35z m686 4 c3 -5 -1 -12 -10 -15 -27 -11 -37 -7 -24 9 14 17
26 19 34 6z m-996 -39 c3 -21 1 -22 -17 -12 -26 13 -28 43 -3 38 9 -2 18 -14
20 -26z m197 -3 c9 -17 14 -33 12 -36 -11 -10 -47 23 -47 44 0 32 17 28 35 -8z
m485 -5 c0 -17 -22 -14 -28 4 -2 7 3 12 12 12 9 0 16 -7 16 -16z m605 -43 c-9
-29 -35 -27 -35 3 0 25 19 39 33 26 5 -5 6 -17 2 -29z m-335 -75 c0 -8 -5 -18
-11 -22 -14 -8 -33 11 -25 25 10 16 36 13 36 -3z m-1150 -67 c0 -5 -4 -9 -10
-9 -5 0 -10 7 -10 16 0 8 5 12 10 9 6 -3 10 -10 10 -16z m824 -49 c21 -24 33
-46 30 -55 -9 -22 -20 -18 -44 15 -12 17 -30 30 -39 30 -22 0 -45 25 -36 40
14 22 53 9 89 -30z m466 21 c0 -12 -20 -25 -27 -18 -7 7 6 27 18 27 5 0 9 -4
9 -9z m156 -27 c4 -14 2 -30 -5 -37 -17 -17 -45 15 -36 42 9 29 33 26 41 -5z
m-458 -27 c4 -20 -25 -34 -40 -19 -15 15 -1 44 19 40 10 -2 19 -11 21 -21z
m-818 -72 c0 -8 -4 -15 -10 -15 -5 0 -10 7 -10 15 0 8 5 15 10 15 6 0 10 -7
10 -15z m1760 -5 c0 -5 -4 -10 -10 -10 -5 0 -10 5 -10 10 0 6 5 10 10 10 6 0
10 -4 10 -10z m-1490 -30 c12 -7 12 -13 4 -27 -23 -37 -63 -18 -48 22 7 17 22
19 44 5z m708 -22 c3 -22 -1 -28 -17 -28 -19 0 -51 24 -51 39 0 15 15 22 40
19 19 -2 26 -10 28 -30z m712 6 c0 -9 -7 -14 -17 -12 -25 5 -28 28 -4 28 12 0
21 -6 21 -16z m245 -4 c0 -7 -6 -15 -12 -17 -8 -3 -13 4 -13 17 0 13 5 20 13
18 6 -3 12 -11 12 -18z m-635 -85 c34 -18 39 -41 10 -50 -38 -12 -79 33 -53
58 9 9 10 9 43 -8z m478 3 c-6 -18 -28 -21 -28 -4 0 9 7 16 16 16 9 0 14 -5
12 -12z m-138 -39 c0 -5 -4 -9 -10 -9 -5 0 -10 7 -10 16 0 8 5 12 10 9 6 -3
10 -10 10 -16z m-600 1 c0 -5 -7 -10 -15 -10 -8 0 -15 5 -15 10 0 6 7 10 15
10 8 0 15 -4 15 -10z m-235 -20 c0 -7 -6 -15 -12 -17 -8 -3 -13 4 -13 17 0 13
5 20 13 18 6 -3 12 -11 12 -18z m-1020 -45 c0 -13 -8 -21 -22 -23 -17 -3 -23
2 -23 16 0 10 3 22 7 26 13 13 38 1 38 -19z m1674 -49 c14 -16 8 -21 -37 -31
-25 -5 -33 -3 -38 10 -12 32 52 49 75 21z m-950 -50 c13 -15 5 -46 -12 -46
-16 0 -47 31 -47 47 0 17 44 17 59 -1z m1331 -6 c0 -5 -5 -12 -11 -16 -14 -8
-33 11 -25 25 7 11 36 4 36 -9z m-566 -71 c9 -49 7 -69 -8 -69 -24 0 -36 25
-29 63 7 45 28 48 37 6z m-379 -9 c0 -8 -8 -16 -17 -18 -13 -2 -18 3 -18 18 0
15 5 20 18 18 9 -2 17 -10 17 -18z m793 -27 c-4 -22 -22 -20 -26 1 -2 10 3 16
13 16 10 0 15 -7 13 -17z m-1478 -23 c0 -5 -4 -10 -10 -10 -5 0 -10 5 -10 10
0 6 5 10 10 10 6 0 10 -4 10 -10z m1946 -71 c10 -17 -13 -36 -27 -22 -12 12
-4 33 11 33 5 0 12 -5 16 -11z m-2848 -56 c-2 -10 -10 -18 -18 -18 -8 0 -16 8
-18 18 -2 12 3 17 18 17 15 0 20 -5 18 -17z m262 -22 c-1 -18 -77 -68 -88 -56
-10 9 22 57 43 65 20 8 45 3 45 -9z m2380 -28 c0 -18 -5 -24 -17 -21 -19 4
-28 30 -19 55 9 23 36 -3 36 -34z m-637 -150 c2 -21 1 -42 -3 -47 -15 -16 -30
6 -30 45 0 52 26 54 33 2z m515 -2 c-4 -20 -36 -27 -52 -11 -8 8 -6 15 7 25
23 17 49 9 45 -14z m-2398 -40 c0 -12 -20 -25 -27 -18 -7 7 6 27 18 27 5 0 9
-4 9 -9z m226 -2 c10 -17 -13 -36 -27 -22 -12 12 -4 33 11 33 5 0 12 -5 16
-11z m262 -31 c-2 -13 -7 -23 -13 -23 -5 0 -11 10 -13 23 -2 15 2 22 13 22 11
0 15 -7 13 -22z m2222 -15 c0 -5 -9 -19 -20 -33 -25 -33 -48 -16 -24 18 14 21
44 31 44 15z m-536 -46 c8 -12 7 -20 -2 -29 -16 -16 -47 13 -38 37 7 19 25 16
40 -8z m-924 -27 c0 -5 -4 -10 -10 -10 -5 0 -10 5 -10 10 0 6 5 10 10 10 6 0
10 -4 10 -10z m-610 -177 c0 -7 -6 -13 -13 -13 -19 0 -36 20 -30 36 4 10 9 11
24 1 10 -6 19 -17 19 -24z m1810 33 c0 -2 -7 -7 -16 -10 -8 -3 -12 -2 -9 4 6
10 25 14 25 6z m-392 -48 c3 -27 -20 -54 -38 -43 -14 9 -13 48 2 63 18 18 33
9 36 -20z m-1828 -138 c0 -11 -7 -20 -15 -20 -8 0 -15 9 -15 20 0 11 7 20 15
20 8 0 15 -9 15 -20z m100 0 c-9 -17 -30 -28 -30 -16 0 16 15 36 26 36 12 0
12 -4 4 -20z m1250 -17 c0 -12 -33 -43 -47 -43 -16 0 -17 22 -1 38 13 13 48
17 48 5z m694 -30 c4 -9 2 -21 -3 -26 -15 -15 -46 -3 -49 21 -3 18 1 22 21 22
14 0 28 -7 31 -17z m114 -135 c-5 -32 -28 -35 -28 -4 0 17 5 26 16 26 10 0 14
-7 12 -22z m-418 -48 c0 -13 -7 -20 -20 -20 -13 0 -20 7 -20 20 0 13 7 20 20
20 13 0 20 -7 20 -20z m-1660 -45 c0 -8 -9 -15 -20 -15 -11 0 -20 7 -20 15 0
8 9 15 20 15 11 0 20 -7 20 -15z m494 -21 c23 -9 20 -34 -3 -34 -22 0 -35 15
-26 30 7 12 8 12 29 4z m1450 -43 c21 -23 18 -66 -4 -66 -15 0 -51 64 -43 78
8 13 29 7 47 -12z m-2024 -16 c0 -8 -4 -15 -9 -15 -13 0 -22 16 -14 24 11 11
23 6 23 -9z m1057 -31 c8 -23 -12 -38 -41 -30 -32 8 -33 24 -3 36 32 13 37 12
44 -6z m-666 -59 c-1 -15 -24 -12 -29 3 -3 9 2 13 12 10 10 -1 17 -7 17 -13z
m-180 -59 c-12 -15 -68 -32 -77 -24 -2 3 13 17 33 31 38 27 68 23 44 -7z m639
-27 c0 -5 -7 -9 -15 -9 -15 0 -20 12 -9 23 8 8 24 -1 24 -14z m484 6 c-4 -8
-15 -15 -25 -15 -10 0 -19 7 -19 15 0 9 9 15 25 15 18 0 23 -4 19 -15z m489
-15 c6 -23 -10 -37 -25 -22 -12 12 -4 42 11 42 5 0 11 -9 14 -20z m-128 -19
c7 -12 -12 -24 -25 -16 -11 7 -4 25 10 25 5 0 11 -4 15 -9z m-1215 -66 c0 -14
-2 -25 -4 -25 -2 0 -11 -3 -19 -6 -17 -6 -29 19 -21 41 4 8 15 15 25 15 14 0
19 -7 19 -25z m238 -17 c17 -17 15 -28 -7 -28 -19 0 -35 23 -24 34 9 9 18 7
31 -6z m480 -45 c-2 -11 -14 -19 -31 -21 -29 -4 -35 6 -15 26 19 19 50 15 46
-5z m-410 -10 c6 -19 -35 -16 -42 3 -4 11 0 15 16 12 12 -2 23 -9 26 -15z
m272 -44 c0 -5 -7 -9 -15 -9 -15 0 -20 12 -9 23 8 8 24 -1 24 -14z"/>
<path d="M8970 3500 c-36 -10 -78 -19 -93 -19 -16 -1 -26 -5 -22 -11 3 -5 40
-10 82 -10 59 0 83 5 109 21 67 41 34 50 -76 19z"/>
<path d="M5924 3496 c-10 -27 2 -43 14 -19 8 14 9 24 2 28 -6 3 -13 -1 -16 -9z"/>
<path d="M9724 3468 c33 -6 52 -6 60 2 7 7 -8 10 -49 9 l-60 -1 49 -10z"/>
<path d="M10308 3445 c-3 -14 -1 -25 3 -25 5 0 9 4 9 9 0 5 3 16 6 25 3 9 2
16 -4 16 -5 0 -12 -11 -14 -25z"/>
<path d="M5866 3394 c-9 -22 -8 -24 9 -18 8 4 15 12 15 20 0 19 -16 18 -24 -2z"/>
<path d="M2898 3383 c7 -3 16 -2 19 1 4 3 -2 6 -13 5 -11 0 -14 -3 -6 -6z"/>
<path d="M10270 3359 c0 -11 5 -17 10 -14 6 3 10 13 10 21 0 8 -4 14 -10 14
-5 0 -10 -9 -10 -21z"/>
<path d="M3050 3345 c0 -8 9 -15 20 -15 11 0 20 7 20 15 0 8 -9 15 -20 15 -11
0 -20 -7 -20 -15z"/>
<path d="M6940 3299 c0 -5 5 -7 10 -4 6 3 10 8 10 11 0 2 -4 4 -10 4 -5 0 -10
-5 -10 -11z"/>
<path d="M10226 3301 c-4 -7 -5 -15 -2 -18 9 -9 19 4 14 18 -4 11 -6 11 -12 0z"/>
<path d="M6803 3287 c-6 -7 -41 -32 -77 -57 -36 -25 -65 -48 -66 -52 0 -13 25
-9 46 7 10 8 26 15 35 15 9 0 36 13 60 30 24 16 52 30 62 30 15 0 15 3 5 20
-14 22 -47 26 -65 7z"/>
<path d="M10180 3225 c0 -8 2 -15 4 -15 2 0 6 7 10 15 3 8 1 15 -4 15 -6 0
-10 -7 -10 -15z"/>
<path d="M10140 3169 c0 -5 5 -7 10 -4 6 3 10 8 10 11 0 2 -4 4 -10 4 -5 0
-10 -5 -10 -11z"/>
<path d="M611 3134 c0 -11 3 -14 6 -6 3 7 2 16 -1 19 -3 4 -6 -2 -5 -13z"/>
<path d="M7522 3143 c-35 -7 -15 -23 29 -23 28 0 39 4 37 13 -5 13 -30 17 -66
10z"/>
<path d="M680 3126 c0 -9 7 -16 16 -16 9 0 14 5 12 12 -6 18 -28 21 -28 4z"/>
<path d="M4276 3126 c3 -9 11 -16 16 -16 13 0 5 23 -10 28 -7 2 -10 -2 -6 -12z"/>
<path d="M10100 3110 c0 -19 3 -21 12 -12 9 9 9 15 0 24 -9 9 -12 7 -12 -12z"/>
<path d="M647 3083 c4 -10 13 -22 20 -26 8 -5 18 -20 23 -33 12 -31 30 -31 30
1 0 14 -9 30 -20 37 -11 7 -20 18 -20 25 0 7 -9 13 -20 13 -14 0 -18 -5 -13
-17z"/>
<path d="M716 3093 c-12 -12 -6 -33 9 -33 8 0 15 6 15 14 0 17 -14 28 -24 19z"/>
<path d="M7240 3090 c0 -5 6 -10 14 -10 8 0 18 5 21 10 3 6 -3 10 -14 10 -12
0 -21 -4 -21 -10z"/>
<path d="M10056 3053 c-6 -14 -5 -15 5 -6 7 7 10 15 7 18 -3 3 -9 -2 -12 -12z"/>
<path d="M3580 3050 c0 -5 7 -10 16 -10 8 0 12 5 9 10 -3 6 -10 10 -16 10 -5
0 -9 -4 -9 -10z"/>
<path d="M762 3029 c1 -13 8 -23 13 -21 15 3 12 35 -3 40 -9 3 -13 -3 -10 -19z"/>
<path d="M10017 3013 c-4 -3 -7 -11 -7 -17 0 -6 5 -5 12 2 6 6 9 14 7 17 -3 3
-9 2 -12 -2z"/>
<path d="M730 2975 c0 -8 7 -15 15 -15 9 0 12 6 9 15 -4 8 -10 15 -15 15 -5 0
-9 -7 -9 -15z"/>
<path d="M771 2926 c-1 -10 9 -29 22 -41 12 -12 30 -36 39 -53 20 -37 38 -42
38 -11 0 12 -8 23 -20 26 -11 3 -20 11 -20 17 0 6 -8 19 -17 27 -10 9 -23 25
-30 35 -12 19 -12 19 -12 0z"/>
<path d="M3085 2920 c3 -5 11 -10 16 -10 6 0 7 5 4 10 -3 6 -11 10 -16 10 -6
0 -7 -4 -4 -10z"/>
<path d="M9930 2894 c0 -8 5 -12 10 -9 6 3 10 10 10 16 0 5 -4 9 -10 9 -5 0
-10 -7 -10 -16z"/>
<path d="M7440 2880 c0 -5 9 -10 20 -10 11 0 20 5 20 10 0 6 -9 10 -20 10 -11
0 -20 -4 -20 -10z"/>
<path d="M9886 2855 c-3 -8 -1 -15 4 -15 6 0 10 7 10 15 0 8 -2 15 -4 15 -2 0
-6 -7 -10 -15z"/>
<path d="M3190 2840 c0 -5 5 -10 11 -10 5 0 7 5 4 10 -3 6 -8 10 -11 10 -2 0
-4 -4 -4 -10z"/>
<path d="M6805 2840 c-3 -5 -1 -10 4 -10 6 0 11 5 11 10 0 6 -2 10 -4 10 -3 0
-8 -4 -11 -10z"/>
<path d="M9845 2800 c-3 -5 -1 -10 4 -10 6 0 11 5 11 10 0 6 -2 10 -4 10 -3 0
-8 -4 -11 -10z"/>
<path d="M890 2786 c0 -17 68 -92 75 -84 3 3 -8 22 -25 43 -16 21 -30 42 -30
46 0 5 -4 9 -10 9 -5 0 -10 -6 -10 -14z"/>
<path d="M2337 2774 c-13 -13 -7 -22 35 -53 39 -29 88 -41 88 -22 0 4 -24 23
-52 42 -66 42 -63 41 -71 33z"/>
<path d="M9805 2760 c-3 -5 -1 -10 4 -10 6 0 11 5 11 10 0 6 -2 10 -4 10 -3 0
-8 -4 -11 -10z"/>
<path d="M9743 2696 c-13 -12 -23 -24 -23 -26 0 -10 139 -9 145 0 4 6 -10 10
-33 10 -28 0 -44 6 -53 19 -14 19 -15 19 -36 -3z"/>
<path d="M980 2676 c0 -8 5 -18 10 -21 6 -3 10 1 10 9 0 8 -4 18 -10 21 -5 3
-10 -1 -10 -9z"/>
<path d="M2480 2681 c0 -20 89 -72 132 -76 24 -2 44 -9 46 -15 4 -11 42 -14
42 -2 0 8 -79 52 -93 52 -5 0 -21 8 -35 19 -33 22 -92 37 -92 22z"/>
<path d="M1020 2631 c0 -5 5 -13 10 -16 6 -3 10 -2 10 4 0 5 -4 13 -10 16 -5
3 -10 2 -10 -4z"/>
<path d="M9940 2630 c0 -5 17 -10 38 -9 30 0 33 2 17 9 -28 12 -55 12 -55 0z"/>
<path d="M10060 2590 c-12 -8 -9 -10 13 -10 15 0 27 5 27 10 0 13 -20 13 -40
0z"/>
<path d="M1065 2580 c3 -5 8 -10 11 -10 2 0 4 5 4 10 0 6 -5 10 -11 10 -5 0
-7 -4 -4 -10z"/>
<path d="M10150 2550 c-12 -8 -9 -10 13 -10 16 0 26 4 22 10 -8 12 -16 12 -35
0z"/>
<path d="M1235 2540 c3 -5 11 -10 16 -10 6 0 7 5 4 10 -3 6 -11 10 -16 10 -6
0 -7 -4 -4 -10z"/>
<path d="M7158 2543 c7 -3 16 -2 19 1 4 3 -2 6 -13 5 -11 0 -14 -3 -6 -6z"/>
<path d="M1280 2500 c0 -5 5 -10 11 -10 5 0 7 5 4 10 -3 6 -8 10 -11 10 -2 0
-4 -4 -4 -10z"/>
<path d="M1580 2505 c0 -20 234 -217 325 -272 54 -33 109 -54 138 -51 30 3 26
7 -63 57 -89 50 -318 218 -349 255 -12 15 -51 23 -51 11z"/>
<path d="M2990 2500 c0 -6 33 -10 80 -10 47 0 80 4 80 10 0 6 -33 10 -80 10
-47 0 -80 -4 -80 -10z"/>
<path d="M10225 2500 c3 -5 13 -10 21 -10 8 0 14 5 14 10 0 6 -9 10 -21 10
-11 0 -17 -4 -14 -10z"/>
<path d="M1142 2489 c2 -7 10 -15 17 -17 8 -3 12 1 9 9 -2 7 -10 15 -17 17 -8
3 -12 -1 -9 -9z"/>
<path d="M3625 2460 c-3 -5 3 -10 14 -10 12 0 21 5 21 10 0 6 -6 10 -14 10 -8
0 -18 -4 -21 -10z"/>
<path d="M10305 2460 c3 -5 14 -10 23 -10 15 0 15 2 2 10 -20 13 -33 13 -25 0z"/>
<path d="M1372 2418 c5 -15 28 -23 28 -10 0 5 -7 13 -16 16 -10 4 -14 1 -12
-6z"/>
<path d="M10370 2416 c0 -2 7 -6 15 -10 8 -3 15 -1 15 4 0 6 -7 10 -15 10 -8
0 -15 -2 -15 -4z"/>
<path d="M1206 2394 c-8 -22 -6 -24 40 -31 l39 -6 -16 24 c-20 29 -54 37 -63
13z"/>
<path d="M1435 2370 c3 -5 8 -10 11 -10 2 0 4 5 4 10 0 6 -5 10 -11 10 -5 0
-7 -4 -4 -10z"/>
<path d="M1025 2330 c-8 -13 25 -13 45 0 12 8 9 10 -12 10 -15 0 -30 -4 -33
-10z"/>
<path d="M1480 2330 c0 -5 7 -10 16 -10 8 0 12 5 9 10 -3 6 -10 10 -16 10 -5
0 -9 -4 -9 -10z"/>
<path d="M10485 2330 c3 -5 13 -10 21 -10 8 0 14 5 14 10 0 6 -9 10 -21 10
-11 0 -17 -4 -14 -10z"/>
<path d="M9325 2297 c-12 -10 -14 -16 -7 -21 13 -8 52 10 52 24 0 14 -23 12
-45 -3z"/>
<path d="M10520 2301 c0 -5 15 -20 33 -34 17 -14 50 -43 72 -64 36 -35 75 -60
75 -48 0 3 -14 18 -31 33 -17 15 -53 48 -80 75 -49 45 -69 57 -69 38z"/>
<path d="M950 2290 c-9 -6 -10 -10 -3 -10 6 0 15 5 18 10 8 12 4 12 -15 0z"/>
<path d="M1530 2290 c0 -5 7 -10 16 -10 8 0 12 5 9 10 -3 6 -10 10 -16 10 -5
0 -9 -4 -9 -10z"/>
<path d="M1360 2266 c0 -9 9 -20 20 -26 16 -8 20 -8 20 4 0 9 -9 20 -20 26
-16 8 -20 8 -20 -4z"/>
<path d="M868 2243 c7 -3 16 -2 19 1 4 3 -2 6 -13 5 -11 0 -14 -3 -6 -6z"/>
<path d="M2965 2223 c-78 -4 -107 -11 -100 -24 4 -6 95 -9 248 -8 133 0 266
-2 295 -6 33 -5 52 -4 52 2 0 27 -33 32 -207 32 -100 0 -192 2 -205 4 -13 2
-50 2 -83 0z"/>
<path d="M798 2203 c7 -3 16 -2 19 1 4 3 -2 6 -13 5 -11 0 -14 -3 -6 -6z"/>
<path d="M3564 2188 c-9 -15 19 -34 63 -43 54 -10 63 10 15 34 -47 24 -68 26
-78 9z"/>
<path d="M2099 2159 c25 -21 46 -24 56 -10 7 13 -8 21 -47 26 l-33 4 24 -20z"/>
<path d="M2565 2175 c-5 -2 -23 -6 -38 -9 -36 -8 -25 -26 16 -26 45 0 109 19
102 31 -6 8 -58 11 -80 4z"/>
<path d="M1705 2160 c3 -5 8 -10 11 -10 2 0 4 5 4 10 0 6 -5 10 -11 10 -5 0
-7 -4 -4 -10z"/>
<path d="M2266 2139 c-24 -15 -5 -29 39 -29 30 0 64 15 55 24 -12 11 -77 15
-94 5z"/>
<path d="M2440 2140 c0 -5 6 -10 14 -10 8 0 18 5 21 10 3 6 -3 10 -14 10 -12
0 -21 -4 -21 -10z"/>
<path d="M668 2123 c7 -3 16 -2 19 1 4 3 -2 6 -13 5 -11 0 -14 -3 -6 -6z"/>
<path d="M8480 2120 c0 -5 7 -10 15 -10 8 0 15 5 15 10 0 6 -7 10 -15 10 -8 0
-15 -4 -15 -10z"/>
<path d="M10720 2120 c0 -25 16 -44 25 -30 4 7 0 19 -9 28 -13 14 -16 14 -16
2z"/>
<path d="M535 2040 c-3 -5 3 -10 14 -10 12 0 21 5 21 10 0 6 -6 10 -14 10 -8
0 -18 -4 -21 -10z"/>
<path d="M478 1993 c7 -3 16 -2 19 1 4 3 -2 6 -13 5 -11 0 -14 -3 -6 -6z"/>
<path d="M9260 1972 c-6 -2 -10 -10 -10 -18 0 -11 27 -14 151 -14 116 0 150 3
147 13 -3 8 -45 13 -142 17 -75 3 -141 4 -146 2z"/>
<path d="M375 1950 c-8 -13 35 -13 55 0 11 7 7 10 -17 10 -17 0 -35 -4 -38
-10z"/>
<path d="M3615 1950 c3 -5 17 -10 30 -10 13 0 27 5 30 10 4 6 -8 10 -30 10
-22 0 -34 -4 -30 -10z"/>
<path d="M8830 1950 c0 -5 7 -10 15 -10 8 0 15 5 15 10 0 6 -7 10 -15 10 -8 0
-15 -4 -15 -10z"/>
<path d="M300 1910 c0 -13 30 -13 50 0 11 7 7 10 -17 10 -18 0 -33 -4 -33 -10z"/>
<path d="M190 1870 c0 -5 12 -10 26 -10 14 0 23 4 19 10 -3 6 -15 10 -26 10
-10 0 -19 -4 -19 -10z"/>
<path d="M8980 1870 c0 -5 9 -10 21 -10 11 0 17 5 14 10 -3 6 -13 10 -21 10
-8 0 -14 -4 -14 -10z"/>
<path d="M30 1830 c-8 -5 -18 -6 -22 -4 -4 3 -8 -4 -8 -15 0 -17 6 -21 30 -21
20 0 30 5 30 15 0 8 0 18 1 22 1 12 -15 13 -31 3z"/>
<path d="M1894 1809 c-10 -16 8 -29 49 -36 43 -7 49 7 12 31 -28 19 -51 21
-61 5z"/>
<path d="M1180 1800 c-13 -9 -13 -11 0 -20 36 -24 149 -3 123 23 -10 11 -106
8 -123 -3z"/>
<path d="M8421 1761 c-49 -26 -21 -36 34 -12 25 11 45 22 45 25 0 12 -47 4
-79 -13z"/>
<path d="M60 1753 c0 -5 14 -24 31 -43 17 -19 28 -27 25 -17 -3 10 -6 22 -6
27 0 4 -11 15 -25 24 -14 9 -25 13 -25 9z"/>
<path d="M10470 1740 c-13 -8 -12 -10 3 -10 9 0 17 5 17 10 0 12 -1 12 -20 0z"/>
<path d="M10440 1705 c-8 -9 -8 -15 -2 -15 12 0 26 19 19 26 -2 2 -10 -2 -17
-11z"/>
<path d="M130 1673 c0 -4 5 -15 10 -23 8 -13 10 -13 10 2 0 9 -4 20 -10 23 -5
3 -10 3 -10 -2z"/>
<path d="M3795 1661 c-6 -11 9 -23 19 -14 9 9 7 23 -3 23 -6 0 -12 -4 -16 -9z"/>
<path d="M7542 1658 c5 -15 48 -18 48 -3 0 6 -11 11 -26 13 -18 3 -25 0 -22
-10z"/>
<path d="M10380 1660 c-13 -8 -13 -10 2 -10 9 0 20 5 23 10 8 13 -5 13 -25 0z"/>
<path d="M180 1601 c0 -12 5 -21 10 -21 6 0 10 6 10 14 0 8 -4 18 -10 21 -5 3
-10 -3 -10 -14z"/>
<path d="M10320 1610 c0 -5 7 -10 15 -10 8 0 15 5 15 10 0 6 -7 10 -15 10 -8
0 -15 -4 -15 -10z"/>
<path d="M210 1570 c0 -6 12 -24 28 -40 15 -16 38 -45 52 -65 25 -34 40 -44
40 -26 0 9 -36 56 -68 89 -6 8 -17 22 -22 33 -11 20 -30 26 -30 9z"/>
<path d="M10265 1570 c-3 -5 -2 -10 4 -10 5 0 13 5 16 10 3 6 2 10 -4 10 -5 0
-13 -4 -16 -10z"/>
<path d="M2420 1529 c-15 -26 -8 -33 25 -25 28 7 34 31 9 40 -22 8 -22 8 -34
-15z"/>
<path d="M1985 1530 c-4 -6 13 -10 44 -10 28 0 51 5 51 10 0 6 -20 10 -44 10
-25 0 -48 -4 -51 -10z"/>
<path d="M10190 1526 c0 -9 30 -14 35 -6 4 6 -3 10 -14 10 -12 0 -21 -2 -21
-4z"/>
<path d="M10120 1490 c-12 -8 -11 -10 8 -10 12 0 22 5 22 10 0 13 -11 13 -30
0z"/>
<path d="M1625 1451 c-6 -11 9 -23 19 -14 9 9 7 23 -3 23 -6 0 -12 -4 -16 -9z"/>
<path d="M2282 1448 c5 -15 28 -18 29 -3 0 6 -7 12 -17 13 -10 3 -15 -1 -12
-10z"/>
<path d="M2747 1443 c-4 -5 1 -20 9 -32 13 -17 19 -19 30 -10 8 7 27 9 48 5
42 -8 55 7 20 22 -36 17 -101 26 -107 15z"/>
<path d="M10025 1440 c3 -5 12 -10 20 -10 8 0 17 5 20 10 4 6 -5 10 -20 10
-15 0 -24 -4 -20 -10z"/>
<path d="M340 1409 c0 -6 9 -13 19 -16 11 -3 21 -13 24 -24 3 -10 13 -19 23
-19 14 0 11 7 -16 35 -35 36 -50 43 -50 24z"/>
<path d="M2210 1400 c0 -5 4 -10 9 -10 6 0 13 5 16 10 3 6 -1 10 -9 10 -9 0
-16 -4 -16 -10z"/>
<path d="M9883 1398 c-28 -14 -30 -44 -3 -58 16 -8 20 -8 20 4 0 8 12 27 27
41 l28 25 -25 -1 c-14 0 -35 -5 -47 -11z"/>
<path d="M2650 1359 c0 -5 5 -7 10 -4 6 3 10 8 10 11 0 2 -4 4 -10 4 -5 0 -10
-5 -10 -11z"/>
<path d="M466 1295 c36 -34 64 -45 64 -26 0 5 -13 14 -30 21 -16 7 -35 18 -41
26 -6 8 -16 14 -21 14 -6 0 7 -16 28 -35z"/>
<path d="M3490 1320 c0 -5 5 -10 10 -10 6 0 10 5 10 10 0 6 -4 10 -10 10 -5 0
-10 -4 -10 -10z"/>
<path d="M9902 1306 c-12 -28 -7 -36 23 -36 12 0 30 -9 40 -20 10 -11 26 -20
35 -20 9 0 25 -9 35 -20 10 -11 27 -22 39 -26 20 -7 63 -34 101 -65 22 -18 65
-31 65 -21 0 8 -66 62 -75 62 -7 0 -162 122 -190 150 -28 27 -59 25 -73 -4z"/>
<path d="M7179 1279 c-10 -6 -7 -9 14 -9 29 0 35 5 14 13 -8 3 -20 1 -28 -4z"/>
<path d="M535 1230 c3 -5 15 -10 26 -10 10 0 19 5 19 10 0 6 -12 10 -26 10
-14 0 -23 -4 -19 -10z"/>
<path d="M603 1196 c4 -14 47 -21 47 -8 0 5 -11 12 -25 15 -16 3 -24 0 -22 -7z"/>
<path d="M7583 1203 c-24 -9 -13 -23 18 -23 27 0 30 2 19 15 -13 16 -17 17
-37 8z"/>
<path d="M675 1150 c3 -5 17 -10 31 -10 14 0 22 4 19 10 -3 6 -17 10 -31 10
-14 0 -22 -4 -19 -10z"/>
<path d="M7675 1150 c3 -5 13 -10 21 -10 8 0 14 5 14 10 0 6 -9 10 -21 10 -11
0 -17 -4 -14 -10z"/>
<path d="M750 1110 c0 -5 12 -10 28 -9 24 0 25 1 7 9 -27 12 -35 12 -35 0z"/>
<path d="M2172 1078 c-7 -7 -12 -16 -12 -20 0 -12 28 -10 36 3 10 17 -10 31
-24 17z"/>
<path d="M3015 1070 c-3 -5 -1 -10 4 -10 6 0 11 5 11 10 0 6 -2 10 -4 10 -3 0
-8 -4 -11 -10z"/>
<path d="M10255 1070 c3 -5 13 -10 21 -10 8 0 12 5 9 10 -3 6 -13 10 -21 10
-8 0 -12 -4 -9 -10z"/>
<path d="M860 1066 c0 -9 40 -13 46 -5 3 5 -6 9 -20 9 -14 0 -26 -2 -26 -4z"/>
<path d="M3968 1063 c7 -3 16 -2 19 1 4 3 -2 6 -13 5 -11 0 -14 -3 -6 -6z"/>
<path d="M10312 1029 c2 -7 10 -15 17 -17 8 -3 12 1 9 9 -2 7 -10 15 -17 17
-8 3 -12 -1 -9 -9z"/>
<path d="M945 1020 c7 -11 75 -10 75 2 0 4 -18 8 -41 8 -23 0 -38 -4 -34 -10z"/>
<path d="M1095 980 c-4 -6 9 -10 31 -10 42 0 42 4 2 14 -15 3 -30 2 -33 -4z"/>
<path d="M1620 979 c0 -5 5 -7 10 -4 6 3 10 8 10 11 0 2 -4 4 -10 4 -5 0 -10
-5 -10 -11z"/>
<path d="M8730 980 c0 -5 5 -10 10 -10 6 0 10 5 10 10 0 6 -4 10 -10 10 -5 0
-10 -4 -10 -10z"/>
<path d="M10370 982 c0 -5 7 -13 16 -16 10 -4 14 -1 12 6 -5 15 -28 23 -28 10z"/>
<path d="M9118 953 c-97 -3 -118 -6 -118 -19 0 -12 20 -14 133 -12 109 3 132
6 132 18 0 17 4 17 -147 13z"/>
<path d="M1529 932 c-37 -25 -132 -122 -125 -130 3 -3 19 7 34 21 16 15 32 27
36 27 11 0 116 83 116 92 0 13 -34 7 -61 -10z"/>
<path d="M10426 936 c10 -8 21 -12 24 -10 5 6 -21 24 -34 24 -6 0 -1 -6 10
-14z"/>
<path d="M1272 929 c11 -6 29 -6 50 0 32 9 31 9 -17 10 -38 0 -46 -2 -33 -10z"/>
<path d="M7205 900 c-3 -5 3 -10 15 -10 12 0 18 5 15 10 -3 6 -10 10 -15 10
-5 0 -12 -4 -15 -10z"/>
<path d="M10470 901 c0 -5 5 -13 10 -16 6 -3 10 -2 10 4 0 5 -4 13 -10 16 -5
3 -10 2 -10 -4z"/>
<path d="M7296 861 c-3 -5 1 -11 9 -15 15 -6 29 7 18 18 -9 9 -21 8 -27 -3z"/>
<path d="M10515 850 c3 -5 8 -10 11 -10 2 0 4 5 4 10 0 6 -5 10 -11 10 -5 0
-7 -4 -4 -10z"/>
<path d="M7386 823 c-11 -11 -6 -23 9 -23 8 0 15 4 15 9 0 13 -16 22 -24 14z"/>
<path d="M6515 810 c3 -5 8 -10 11 -10 2 0 4 5 4 10 0 6 -5 10 -11 10 -5 0 -7
-4 -4 -10z"/>
<path d="M10560 805 c7 -9 15 -13 17 -11 7 7 -7 26 -19 26 -6 0 -6 -6 2 -15z"/>
<path d="M1354 775 c-17 -13 -17 -14 -2 -15 9 0 20 5 23 11 11 17 0 20 -21 4z"/>
<path d="M10590 772 c0 -4 4 -12 9 -17 4 -6 11 -22 15 -37 5 -22 3 -28 -11
-29 -13 0 -12 -3 6 -10 24 -10 61 -4 61 10 0 4 -14 26 -32 49 -30 40 -48 52
-48 34z"/>
<path d="M1282 718 c-34 -35 -57 -54 -75 -61 -9 -3 -17 -11 -17 -17 0 -15 9
-12 40 13 16 12 45 33 64 47 20 14 36 28 36 33 0 15 -27 6 -48 -15z"/>
<path d="M3175 675 c-44 -37 -243 -132 -292 -140 -23 -4 -71 -15 -105 -26 -35
-10 -79 -19 -99 -19 -39 0 -73 -25 -47 -35 19 -7 146 11 161 23 7 6 39 15 72
22 33 7 65 16 70 20 6 5 31 14 57 20 26 7 53 18 59 26 6 8 17 14 25 14 23 0
164 96 164 112 0 16 -36 7 -65 -17z"/>
<path d="M10248 683 c6 -2 18 -2 25 0 6 3 1 5 -13 5 -14 0 -19 -2 -12 -5z"/>
<path d="M2410 640 c0 -5 7 -7 15 -4 8 4 15 8 15 10 0 2 -7 4 -15 4 -8 0 -15
-4 -15 -10z"/>
<path d="M10018 643 c6 -2 18 -2 25 0 6 3 1 5 -13 5 -14 0 -19 -2 -12 -5z"/>
<path d="M1140 610 c-8 -5 -11 -12 -8 -16 10 -9 38 3 38 16 0 12 -10 13 -30 0z"/>
<path d="M2330 600 c0 -5 7 -10 15 -10 8 0 15 5 15 10 0 6 -7 10 -15 10 -8 0
-15 -4 -15 -10z"/>
<path d="M6385 600 c3 -5 11 -10 16 -10 6 0 7 5 4 10 -3 6 -11 10 -16 10 -6 0
-7 -4 -4 -10z"/>
<path d="M9855 600 c-4 -6 6 -10 22 -10 22 0 25 2 13 10 -19 12 -27 12 -35 0z"/>
<path d="M1095 570 c-12 -4 -27 -15 -34 -24 -7 -9 -20 -16 -27 -16 -8 0 -14
-4 -14 -10 0 -5 5 -10 12 -10 16 0 88 50 88 61 0 10 1 10 -25 -1z"/>
<path d="M7025 560 c-3 -5 0 -13 8 -16 23 -9 152 0 152 11 0 14 -151 19 -160
5z"/>
<path d="M9733 553 c9 -2 25 -2 35 0 9 3 1 5 -18 5 -19 0 -27 -2 -17 -5z"/>
<path d="M7242 533 c-17 -7 4 -33 27 -33 9 0 30 -7 46 -16 228 -124 365 -179
365 -146 0 6 -10 14 -21 17 -12 4 -85 38 -163 76 -77 38 -147 69 -155 69 -8 0
-22 6 -30 14 -20 17 -52 26 -69 19z"/>
<path d="M2056 521 c-7 -11 22 -23 35 -15 5 3 7 10 4 15 -8 12 -32 12 -39 0z"/>
<path d="M6490 520 c0 -5 7 -10 16 -10 8 0 12 5 9 10 -3 6 -10 10 -16 10 -5 0
-9 -4 -9 -10z"/>
<path d="M9625 520 c-18 -8 -17 -9 8 -9 16 -1 26 3 22 9 -3 6 -7 10 -8 9 -1 0
-11 -4 -22 -9z"/>
<path d="M968 493 c-10 -3 -18 -8 -18 -13 0 -13 26 -19 41 -9 18 11 1 27 -23
22z"/>
<path d="M6550 479 c0 -5 9 -9 20 -9 11 0 20 2 20 4 0 2 -9 6 -20 9 -11 3 -20
1 -20 -4z"/>
<path d="M4500 470 c0 -5 6 -10 14 -10 8 0 18 5 21 10 3 6 -3 10 -14 10 -12 0
-21 -4 -21 -10z"/>
<path d="M9518 468 c9 -9 15 -9 24 0 9 9 7 12 -12 12 -19 0 -21 -3 -12 -12z"/>
<path d="M900 443 c-8 -4 -21 -14 -28 -25 -7 -10 -19 -18 -26 -18 -7 0 -21 -9
-31 -20 -10 -11 -26 -20 -37 -20 -26 0 -22 -15 13 -44 32 -27 47 -30 89 -16
25 8 25 8 -5 10 -16 1 -38 2 -47 1 -21 -3 -22 -1 -5 32 14 27 69 77 84 77 5 0
18 7 29 15 19 14 19 14 -1 14 -11 0 -27 -3 -35 -6z"/>
<path d="M4410 430 c0 -5 9 -10 20 -10 11 0 20 5 20 10 0 6 -9 10 -20 10 -11
0 -20 -4 -20 -10z"/>
<path d="M6628 433 c7 -3 16 -2 19 1 4 3 -2 6 -13 5 -11 0 -14 -3 -6 -6z"/>
<path d="M9428 433 c7 -3 16 -2 19 1 4 3 -2 6 -13 5 -11 0 -14 -3 -6 -6z"/>
<path d="M4325 390 c-4 -6 5 -10 20 -10 15 0 24 4 20 10 -3 6 -12 10 -20 10
-8 0 -17 -4 -20 -10z"/>
<path d="M6710 390 c0 -5 7 -10 16 -10 8 0 12 5 9 10 -3 6 -10 10 -16 10 -5 0
-9 -4 -9 -10z"/>
<path d="M9318 383 c7 -3 16 -2 19 1 4 3 -2 6 -13 5 -11 0 -14 -3 -6 -6z"/>
<path d="M4230 350 c-12 -8 -9 -10 13 -10 16 0 26 4 22 10 -8 12 -16 12 -35 0z"/>
<path d="M6790 350 c0 -5 10 -10 23 -10 18 0 19 2 7 10 -19 13 -30 13 -30 0z"/>
<path d="M9218 343 c6 -2 18 -2 25 0 6 3 1 5 -13 5 -14 0 -19 -2 -12 -5z"/>
<path d="M7741 321 c-11 -7 -10 -11 7 -20 30 -16 72 -14 72 4 0 8 -6 15 -12
15 -7 0 -22 3 -33 5 -11 3 -26 1 -34 -4z"/>
<path d="M3298 312 c-10 -2 -18 -8 -18 -13 0 -8 47 -3 58 6 7 5 -24 11 -40 7z"/>
<path d="M4145 310 c-18 -8 -17 -9 8 -9 16 -1 26 3 22 9 -3 6 -7 10 -8 9 -1 0
-11 -4 -22 -9z"/>
<path d="M6880 310 c0 -5 12 -10 28 -9 24 0 25 1 7 9 -27 12 -35 12 -35 0z"/>
<path d="M9118 303 c7 -3 16 -2 19 1 4 3 -2 6 -13 5 -11 0 -14 -3 -6 -6z"/>
<path d="M940 270 c0 -9 25 -20 46 -20 9 0 13 4 10 9 -7 11 -56 21 -56 11z"/>
<path d="M3108 263 c7 -3 16 -2 19 1 4 3 -2 6 -13 5 -11 0 -14 -3 -6 -6z"/>
<path d="M3990 260 c0 -5 13 -10 29 -10 17 0 33 5 36 10 4 6 -8 10 -29 10 -20
0 -36 -4 -36 -10z"/>
<path d="M6990 260 c0 -13 20 -13 40 0 12 8 9 10 -12 10 -16 0 -28 -4 -28 -10z"/>
<path d="M8998 263 c6 -2 18 -2 25 0 6 3 1 5 -13 5 -14 0 -19 -2 -12 -5z"/>
<path d="M1040 220 c0 -5 6 -10 14 -10 8 0 18 5 21 10 3 6 -3 10 -14 10 -12 0
-21 -4 -21 -10z"/>
<path d="M3890 220 c0 -5 11 -10 25 -10 14 0 25 5 25 10 0 6 -11 10 -25 10
-14 0 -25 -4 -25 -10z"/>
<path d="M7120 220 c0 -5 14 -10 31 -10 17 0 28 4 24 10 -3 6 -17 10 -31 10
-13 0 -24 -4 -24 -10z"/>
<path d="M8850 220 c0 -5 9 -10 19 -10 11 0 23 5 26 10 4 6 -5 10 -19 10 -14
0 -26 -4 -26 -10z"/>
<path d="M1120 180 c0 -5 14 -10 31 -10 17 0 28 4 24 10 -3 6 -17 10 -31 10
-13 0 -24 -4 -24 -10z"/>
<path d="M3766 181 c-7 -11 31 -22 51 -14 12 5 12 7 1 14 -17 11 -45 11 -52 0z"/>
<path d="M7285 180 c-15 -6 -7 -9 29 -9 27 -1 47 1 45 3 -11 9 -56 13 -74 6z"/>
<path d="M8690 180 c-11 -7 -5 -10 23 -10 23 0 36 4 32 10 -8 13 -35 13 -55 0z"/>
<path d="M1264 139 c-13 -5 -7 -8 24 -8 23 -1 42 1 42 3 0 8 -48 12 -66 5z"/>
<path d="M3600 140 c-12 -8 -9 -10 13 -10 16 0 26 4 22 10 -8 12 -16 12 -35 0z"/>
<path d="M7490 139 c-30 -5 -26 -7 23 -8 31 0 57 1 57 3 0 8 -47 11 -80 5z"/>
<path d="M8469 128 c29 -6 51 -6 65 0 16 8 7 11 -44 10 l-65 0 44 -10z"/>
<path d="M3392 101 c-21 -13 11 -21 45 -11 15 4 20 9 11 9 -9 1 -22 3 -30 6
-7 3 -19 1 -26 -4z"/>
<path d="M1455 90 c7 -12 69 -12 105 0 18 6 6 8 -43 9 -43 1 -66 -3 -62 -9z"/>
<path d="M7905 90 c3 -6 50 -10 105 -10 55 0 102 4 105 10 4 6 -33 10 -105 10
-72 0 -109 -4 -105 -10z"/>
<path d="M1690 50 c0 -5 15 -10 33 -9 27 0 29 2 12 9 -28 12 -45 12 -45 0z"/>
<path d="M3125 50 c-4 -6 21 -10 69 -9 42 1 76 5 76 10 0 12 -137 11 -145 -1z"/>
<path d="M1845 40 c3 -5 13 -10 21 -10 8 0 14 5 14 10 0 6 -9 10 -21 10 -11 0
-17 -4 -14 -10z"/>
<path d="M2203 20 c-149 -3 -275 -8 -279 -12 -4 -5 204 -8 462 -8 272 0 463 4
454 9 -20 12 -308 17 -637 11z"/>
</g>
</svg>
